%TF.GenerationSoftware,KiCad,Pcbnew,7.0.2-0*%
%TF.CreationDate,2023-07-03T21:11:48-04:00*%
%TF.ProjectId,controller,636f6e74-726f-46c6-9c65-722e6b696361,rev?*%
%TF.SameCoordinates,Original*%
%TF.FileFunction,Legend,Top*%
%TF.FilePolarity,Positive*%
%FSLAX46Y46*%
G04 Gerber Fmt 4.6, Leading zero omitted, Abs format (unit mm)*
G04 Created by KiCad (PCBNEW 7.0.2-0) date 2023-07-03 21:11:48*
%MOMM*%
%LPD*%
G01*
G04 APERTURE LIST*
%ADD10C,0.150000*%
%ADD11C,0.120000*%
G04 APERTURE END LIST*
D10*
X54261904Y-36445238D02*
X54166666Y-36397619D01*
X54166666Y-36397619D02*
X54023809Y-36397619D01*
X54023809Y-36397619D02*
X53880952Y-36445238D01*
X53880952Y-36445238D02*
X53785714Y-36540476D01*
X53785714Y-36540476D02*
X53738095Y-36635714D01*
X53738095Y-36635714D02*
X53690476Y-36826190D01*
X53690476Y-36826190D02*
X53690476Y-36969047D01*
X53690476Y-36969047D02*
X53738095Y-37159523D01*
X53738095Y-37159523D02*
X53785714Y-37254761D01*
X53785714Y-37254761D02*
X53880952Y-37350000D01*
X53880952Y-37350000D02*
X54023809Y-37397619D01*
X54023809Y-37397619D02*
X54119047Y-37397619D01*
X54119047Y-37397619D02*
X54261904Y-37350000D01*
X54261904Y-37350000D02*
X54309523Y-37302380D01*
X54309523Y-37302380D02*
X54309523Y-36969047D01*
X54309523Y-36969047D02*
X54119047Y-36969047D01*
X54738095Y-37397619D02*
X54738095Y-36730952D01*
X54738095Y-36921428D02*
X54785714Y-36826190D01*
X54785714Y-36826190D02*
X54833333Y-36778571D01*
X54833333Y-36778571D02*
X54928571Y-36730952D01*
X54928571Y-36730952D02*
X55023809Y-36730952D01*
X55785714Y-37397619D02*
X55785714Y-36873809D01*
X55785714Y-36873809D02*
X55738095Y-36778571D01*
X55738095Y-36778571D02*
X55642857Y-36730952D01*
X55642857Y-36730952D02*
X55452381Y-36730952D01*
X55452381Y-36730952D02*
X55357143Y-36778571D01*
X55785714Y-37350000D02*
X55690476Y-37397619D01*
X55690476Y-37397619D02*
X55452381Y-37397619D01*
X55452381Y-37397619D02*
X55357143Y-37350000D01*
X55357143Y-37350000D02*
X55309524Y-37254761D01*
X55309524Y-37254761D02*
X55309524Y-37159523D01*
X55309524Y-37159523D02*
X55357143Y-37064285D01*
X55357143Y-37064285D02*
X55452381Y-37016666D01*
X55452381Y-37016666D02*
X55690476Y-37016666D01*
X55690476Y-37016666D02*
X55785714Y-36969047D01*
X56690476Y-37397619D02*
X56690476Y-36397619D01*
X56690476Y-37350000D02*
X56595238Y-37397619D01*
X56595238Y-37397619D02*
X56404762Y-37397619D01*
X56404762Y-37397619D02*
X56309524Y-37350000D01*
X56309524Y-37350000D02*
X56261905Y-37302380D01*
X56261905Y-37302380D02*
X56214286Y-37207142D01*
X56214286Y-37207142D02*
X56214286Y-36921428D01*
X56214286Y-36921428D02*
X56261905Y-36826190D01*
X56261905Y-36826190D02*
X56309524Y-36778571D01*
X56309524Y-36778571D02*
X56404762Y-36730952D01*
X56404762Y-36730952D02*
X56595238Y-36730952D01*
X56595238Y-36730952D02*
X56690476Y-36778571D01*
X57166667Y-37397619D02*
X57166667Y-36730952D01*
X57166667Y-36397619D02*
X57119048Y-36445238D01*
X57119048Y-36445238D02*
X57166667Y-36492857D01*
X57166667Y-36492857D02*
X57214286Y-36445238D01*
X57214286Y-36445238D02*
X57166667Y-36397619D01*
X57166667Y-36397619D02*
X57166667Y-36492857D01*
X58023809Y-37350000D02*
X57928571Y-37397619D01*
X57928571Y-37397619D02*
X57738095Y-37397619D01*
X57738095Y-37397619D02*
X57642857Y-37350000D01*
X57642857Y-37350000D02*
X57595238Y-37254761D01*
X57595238Y-37254761D02*
X57595238Y-36873809D01*
X57595238Y-36873809D02*
X57642857Y-36778571D01*
X57642857Y-36778571D02*
X57738095Y-36730952D01*
X57738095Y-36730952D02*
X57928571Y-36730952D01*
X57928571Y-36730952D02*
X58023809Y-36778571D01*
X58023809Y-36778571D02*
X58071428Y-36873809D01*
X58071428Y-36873809D02*
X58071428Y-36969047D01*
X58071428Y-36969047D02*
X57595238Y-37064285D01*
X58500000Y-36730952D02*
X58500000Y-37397619D01*
X58500000Y-36826190D02*
X58547619Y-36778571D01*
X58547619Y-36778571D02*
X58642857Y-36730952D01*
X58642857Y-36730952D02*
X58785714Y-36730952D01*
X58785714Y-36730952D02*
X58880952Y-36778571D01*
X58880952Y-36778571D02*
X58928571Y-36873809D01*
X58928571Y-36873809D02*
X58928571Y-37397619D01*
X59261905Y-36730952D02*
X59642857Y-36730952D01*
X59404762Y-36397619D02*
X59404762Y-37254761D01*
X59404762Y-37254761D02*
X59452381Y-37350000D01*
X59452381Y-37350000D02*
X59547619Y-37397619D01*
X59547619Y-37397619D02*
X59642857Y-37397619D01*
X60309524Y-36873809D02*
X60452381Y-36921428D01*
X60452381Y-36921428D02*
X60500000Y-36969047D01*
X60500000Y-36969047D02*
X60547619Y-37064285D01*
X60547619Y-37064285D02*
X60547619Y-37207142D01*
X60547619Y-37207142D02*
X60500000Y-37302380D01*
X60500000Y-37302380D02*
X60452381Y-37350000D01*
X60452381Y-37350000D02*
X60357143Y-37397619D01*
X60357143Y-37397619D02*
X59976191Y-37397619D01*
X59976191Y-37397619D02*
X59976191Y-36397619D01*
X59976191Y-36397619D02*
X60309524Y-36397619D01*
X60309524Y-36397619D02*
X60404762Y-36445238D01*
X60404762Y-36445238D02*
X60452381Y-36492857D01*
X60452381Y-36492857D02*
X60500000Y-36588095D01*
X60500000Y-36588095D02*
X60500000Y-36683333D01*
X60500000Y-36683333D02*
X60452381Y-36778571D01*
X60452381Y-36778571D02*
X60404762Y-36826190D01*
X60404762Y-36826190D02*
X60309524Y-36873809D01*
X60309524Y-36873809D02*
X59976191Y-36873809D01*
X61119048Y-37397619D02*
X61023810Y-37350000D01*
X61023810Y-37350000D02*
X60976191Y-37254761D01*
X60976191Y-37254761D02*
X60976191Y-36397619D01*
X61642858Y-37397619D02*
X61547620Y-37350000D01*
X61547620Y-37350000D02*
X61500001Y-37302380D01*
X61500001Y-37302380D02*
X61452382Y-37207142D01*
X61452382Y-37207142D02*
X61452382Y-36921428D01*
X61452382Y-36921428D02*
X61500001Y-36826190D01*
X61500001Y-36826190D02*
X61547620Y-36778571D01*
X61547620Y-36778571D02*
X61642858Y-36730952D01*
X61642858Y-36730952D02*
X61785715Y-36730952D01*
X61785715Y-36730952D02*
X61880953Y-36778571D01*
X61880953Y-36778571D02*
X61928572Y-36826190D01*
X61928572Y-36826190D02*
X61976191Y-36921428D01*
X61976191Y-36921428D02*
X61976191Y-37207142D01*
X61976191Y-37207142D02*
X61928572Y-37302380D01*
X61928572Y-37302380D02*
X61880953Y-37350000D01*
X61880953Y-37350000D02*
X61785715Y-37397619D01*
X61785715Y-37397619D02*
X61642858Y-37397619D01*
X62547620Y-37397619D02*
X62452382Y-37350000D01*
X62452382Y-37350000D02*
X62404763Y-37302380D01*
X62404763Y-37302380D02*
X62357144Y-37207142D01*
X62357144Y-37207142D02*
X62357144Y-36921428D01*
X62357144Y-36921428D02*
X62404763Y-36826190D01*
X62404763Y-36826190D02*
X62452382Y-36778571D01*
X62452382Y-36778571D02*
X62547620Y-36730952D01*
X62547620Y-36730952D02*
X62690477Y-36730952D01*
X62690477Y-36730952D02*
X62785715Y-36778571D01*
X62785715Y-36778571D02*
X62833334Y-36826190D01*
X62833334Y-36826190D02*
X62880953Y-36921428D01*
X62880953Y-36921428D02*
X62880953Y-37207142D01*
X62880953Y-37207142D02*
X62833334Y-37302380D01*
X62833334Y-37302380D02*
X62785715Y-37350000D01*
X62785715Y-37350000D02*
X62690477Y-37397619D01*
X62690477Y-37397619D02*
X62547620Y-37397619D01*
X63309525Y-37397619D02*
X63309525Y-36730952D01*
X63309525Y-36826190D02*
X63357144Y-36778571D01*
X63357144Y-36778571D02*
X63452382Y-36730952D01*
X63452382Y-36730952D02*
X63595239Y-36730952D01*
X63595239Y-36730952D02*
X63690477Y-36778571D01*
X63690477Y-36778571D02*
X63738096Y-36873809D01*
X63738096Y-36873809D02*
X63738096Y-37397619D01*
X63738096Y-36873809D02*
X63785715Y-36778571D01*
X63785715Y-36778571D02*
X63880953Y-36730952D01*
X63880953Y-36730952D02*
X64023810Y-36730952D01*
X64023810Y-36730952D02*
X64119049Y-36778571D01*
X64119049Y-36778571D02*
X64166668Y-36873809D01*
X64166668Y-36873809D02*
X64166668Y-37397619D01*
X65976191Y-37302380D02*
X65928572Y-37350000D01*
X65928572Y-37350000D02*
X65785715Y-37397619D01*
X65785715Y-37397619D02*
X65690477Y-37397619D01*
X65690477Y-37397619D02*
X65547620Y-37350000D01*
X65547620Y-37350000D02*
X65452382Y-37254761D01*
X65452382Y-37254761D02*
X65404763Y-37159523D01*
X65404763Y-37159523D02*
X65357144Y-36969047D01*
X65357144Y-36969047D02*
X65357144Y-36826190D01*
X65357144Y-36826190D02*
X65404763Y-36635714D01*
X65404763Y-36635714D02*
X65452382Y-36540476D01*
X65452382Y-36540476D02*
X65547620Y-36445238D01*
X65547620Y-36445238D02*
X65690477Y-36397619D01*
X65690477Y-36397619D02*
X65785715Y-36397619D01*
X65785715Y-36397619D02*
X65928572Y-36445238D01*
X65928572Y-36445238D02*
X65976191Y-36492857D01*
X66547620Y-37397619D02*
X66452382Y-37350000D01*
X66452382Y-37350000D02*
X66404763Y-37302380D01*
X66404763Y-37302380D02*
X66357144Y-37207142D01*
X66357144Y-37207142D02*
X66357144Y-36921428D01*
X66357144Y-36921428D02*
X66404763Y-36826190D01*
X66404763Y-36826190D02*
X66452382Y-36778571D01*
X66452382Y-36778571D02*
X66547620Y-36730952D01*
X66547620Y-36730952D02*
X66690477Y-36730952D01*
X66690477Y-36730952D02*
X66785715Y-36778571D01*
X66785715Y-36778571D02*
X66833334Y-36826190D01*
X66833334Y-36826190D02*
X66880953Y-36921428D01*
X66880953Y-36921428D02*
X66880953Y-37207142D01*
X66880953Y-37207142D02*
X66833334Y-37302380D01*
X66833334Y-37302380D02*
X66785715Y-37350000D01*
X66785715Y-37350000D02*
X66690477Y-37397619D01*
X66690477Y-37397619D02*
X66547620Y-37397619D01*
X67309525Y-36730952D02*
X67309525Y-37397619D01*
X67309525Y-36826190D02*
X67357144Y-36778571D01*
X67357144Y-36778571D02*
X67452382Y-36730952D01*
X67452382Y-36730952D02*
X67595239Y-36730952D01*
X67595239Y-36730952D02*
X67690477Y-36778571D01*
X67690477Y-36778571D02*
X67738096Y-36873809D01*
X67738096Y-36873809D02*
X67738096Y-37397619D01*
X68071430Y-36730952D02*
X68452382Y-36730952D01*
X68214287Y-36397619D02*
X68214287Y-37254761D01*
X68214287Y-37254761D02*
X68261906Y-37350000D01*
X68261906Y-37350000D02*
X68357144Y-37397619D01*
X68357144Y-37397619D02*
X68452382Y-37397619D01*
X68785716Y-37397619D02*
X68785716Y-36730952D01*
X68785716Y-36921428D02*
X68833335Y-36826190D01*
X68833335Y-36826190D02*
X68880954Y-36778571D01*
X68880954Y-36778571D02*
X68976192Y-36730952D01*
X68976192Y-36730952D02*
X69071430Y-36730952D01*
X69547621Y-37397619D02*
X69452383Y-37350000D01*
X69452383Y-37350000D02*
X69404764Y-37302380D01*
X69404764Y-37302380D02*
X69357145Y-37207142D01*
X69357145Y-37207142D02*
X69357145Y-36921428D01*
X69357145Y-36921428D02*
X69404764Y-36826190D01*
X69404764Y-36826190D02*
X69452383Y-36778571D01*
X69452383Y-36778571D02*
X69547621Y-36730952D01*
X69547621Y-36730952D02*
X69690478Y-36730952D01*
X69690478Y-36730952D02*
X69785716Y-36778571D01*
X69785716Y-36778571D02*
X69833335Y-36826190D01*
X69833335Y-36826190D02*
X69880954Y-36921428D01*
X69880954Y-36921428D02*
X69880954Y-37207142D01*
X69880954Y-37207142D02*
X69833335Y-37302380D01*
X69833335Y-37302380D02*
X69785716Y-37350000D01*
X69785716Y-37350000D02*
X69690478Y-37397619D01*
X69690478Y-37397619D02*
X69547621Y-37397619D01*
X70452383Y-37397619D02*
X70357145Y-37350000D01*
X70357145Y-37350000D02*
X70309526Y-37254761D01*
X70309526Y-37254761D02*
X70309526Y-36397619D01*
X70976193Y-37397619D02*
X70880955Y-37350000D01*
X70880955Y-37350000D02*
X70833336Y-37254761D01*
X70833336Y-37254761D02*
X70833336Y-36397619D01*
X71738098Y-37350000D02*
X71642860Y-37397619D01*
X71642860Y-37397619D02*
X71452384Y-37397619D01*
X71452384Y-37397619D02*
X71357146Y-37350000D01*
X71357146Y-37350000D02*
X71309527Y-37254761D01*
X71309527Y-37254761D02*
X71309527Y-36873809D01*
X71309527Y-36873809D02*
X71357146Y-36778571D01*
X71357146Y-36778571D02*
X71452384Y-36730952D01*
X71452384Y-36730952D02*
X71642860Y-36730952D01*
X71642860Y-36730952D02*
X71738098Y-36778571D01*
X71738098Y-36778571D02*
X71785717Y-36873809D01*
X71785717Y-36873809D02*
X71785717Y-36969047D01*
X71785717Y-36969047D02*
X71309527Y-37064285D01*
X72214289Y-37397619D02*
X72214289Y-36730952D01*
X72214289Y-36921428D02*
X72261908Y-36826190D01*
X72261908Y-36826190D02*
X72309527Y-36778571D01*
X72309527Y-36778571D02*
X72404765Y-36730952D01*
X72404765Y-36730952D02*
X72500003Y-36730952D01*
X54309523Y-39017619D02*
X53976190Y-38541428D01*
X53738095Y-39017619D02*
X53738095Y-38017619D01*
X53738095Y-38017619D02*
X54119047Y-38017619D01*
X54119047Y-38017619D02*
X54214285Y-38065238D01*
X54214285Y-38065238D02*
X54261904Y-38112857D01*
X54261904Y-38112857D02*
X54309523Y-38208095D01*
X54309523Y-38208095D02*
X54309523Y-38350952D01*
X54309523Y-38350952D02*
X54261904Y-38446190D01*
X54261904Y-38446190D02*
X54214285Y-38493809D01*
X54214285Y-38493809D02*
X54119047Y-38541428D01*
X54119047Y-38541428D02*
X53738095Y-38541428D01*
X54738095Y-38493809D02*
X55071428Y-38493809D01*
X55214285Y-39017619D02*
X54738095Y-39017619D01*
X54738095Y-39017619D02*
X54738095Y-38017619D01*
X54738095Y-38017619D02*
X55214285Y-38017619D01*
X55500000Y-38017619D02*
X55833333Y-39017619D01*
X55833333Y-39017619D02*
X56166666Y-38017619D01*
X56690476Y-38017619D02*
X56785714Y-38017619D01*
X56785714Y-38017619D02*
X56880952Y-38065238D01*
X56880952Y-38065238D02*
X56928571Y-38112857D01*
X56928571Y-38112857D02*
X56976190Y-38208095D01*
X56976190Y-38208095D02*
X57023809Y-38398571D01*
X57023809Y-38398571D02*
X57023809Y-38636666D01*
X57023809Y-38636666D02*
X56976190Y-38827142D01*
X56976190Y-38827142D02*
X56928571Y-38922380D01*
X56928571Y-38922380D02*
X56880952Y-38970000D01*
X56880952Y-38970000D02*
X56785714Y-39017619D01*
X56785714Y-39017619D02*
X56690476Y-39017619D01*
X56690476Y-39017619D02*
X56595238Y-38970000D01*
X56595238Y-38970000D02*
X56547619Y-38922380D01*
X56547619Y-38922380D02*
X56500000Y-38827142D01*
X56500000Y-38827142D02*
X56452381Y-38636666D01*
X56452381Y-38636666D02*
X56452381Y-38398571D01*
X56452381Y-38398571D02*
X56500000Y-38208095D01*
X56500000Y-38208095D02*
X56547619Y-38112857D01*
X56547619Y-38112857D02*
X56595238Y-38065238D01*
X56595238Y-38065238D02*
X56690476Y-38017619D01*
X57642857Y-38017619D02*
X57738095Y-38017619D01*
X57738095Y-38017619D02*
X57833333Y-38065238D01*
X57833333Y-38065238D02*
X57880952Y-38112857D01*
X57880952Y-38112857D02*
X57928571Y-38208095D01*
X57928571Y-38208095D02*
X57976190Y-38398571D01*
X57976190Y-38398571D02*
X57976190Y-38636666D01*
X57976190Y-38636666D02*
X57928571Y-38827142D01*
X57928571Y-38827142D02*
X57880952Y-38922380D01*
X57880952Y-38922380D02*
X57833333Y-38970000D01*
X57833333Y-38970000D02*
X57738095Y-39017619D01*
X57738095Y-39017619D02*
X57642857Y-39017619D01*
X57642857Y-39017619D02*
X57547619Y-38970000D01*
X57547619Y-38970000D02*
X57500000Y-38922380D01*
X57500000Y-38922380D02*
X57452381Y-38827142D01*
X57452381Y-38827142D02*
X57404762Y-38636666D01*
X57404762Y-38636666D02*
X57404762Y-38398571D01*
X57404762Y-38398571D02*
X57452381Y-38208095D01*
X57452381Y-38208095D02*
X57500000Y-38112857D01*
X57500000Y-38112857D02*
X57547619Y-38065238D01*
X57547619Y-38065238D02*
X57642857Y-38017619D01*
X54309523Y-40542380D02*
X54261904Y-40590000D01*
X54261904Y-40590000D02*
X54119047Y-40637619D01*
X54119047Y-40637619D02*
X54023809Y-40637619D01*
X54023809Y-40637619D02*
X53880952Y-40590000D01*
X53880952Y-40590000D02*
X53785714Y-40494761D01*
X53785714Y-40494761D02*
X53738095Y-40399523D01*
X53738095Y-40399523D02*
X53690476Y-40209047D01*
X53690476Y-40209047D02*
X53690476Y-40066190D01*
X53690476Y-40066190D02*
X53738095Y-39875714D01*
X53738095Y-39875714D02*
X53785714Y-39780476D01*
X53785714Y-39780476D02*
X53880952Y-39685238D01*
X53880952Y-39685238D02*
X54023809Y-39637619D01*
X54023809Y-39637619D02*
X54119047Y-39637619D01*
X54119047Y-39637619D02*
X54261904Y-39685238D01*
X54261904Y-39685238D02*
X54309523Y-39732857D01*
X54880952Y-40637619D02*
X54785714Y-40590000D01*
X54785714Y-40590000D02*
X54738095Y-40542380D01*
X54738095Y-40542380D02*
X54690476Y-40447142D01*
X54690476Y-40447142D02*
X54690476Y-40161428D01*
X54690476Y-40161428D02*
X54738095Y-40066190D01*
X54738095Y-40066190D02*
X54785714Y-40018571D01*
X54785714Y-40018571D02*
X54880952Y-39970952D01*
X54880952Y-39970952D02*
X55023809Y-39970952D01*
X55023809Y-39970952D02*
X55119047Y-40018571D01*
X55119047Y-40018571D02*
X55166666Y-40066190D01*
X55166666Y-40066190D02*
X55214285Y-40161428D01*
X55214285Y-40161428D02*
X55214285Y-40447142D01*
X55214285Y-40447142D02*
X55166666Y-40542380D01*
X55166666Y-40542380D02*
X55119047Y-40590000D01*
X55119047Y-40590000D02*
X55023809Y-40637619D01*
X55023809Y-40637619D02*
X54880952Y-40637619D01*
X55642857Y-39970952D02*
X55642857Y-40970952D01*
X55642857Y-40018571D02*
X55738095Y-39970952D01*
X55738095Y-39970952D02*
X55928571Y-39970952D01*
X55928571Y-39970952D02*
X56023809Y-40018571D01*
X56023809Y-40018571D02*
X56071428Y-40066190D01*
X56071428Y-40066190D02*
X56119047Y-40161428D01*
X56119047Y-40161428D02*
X56119047Y-40447142D01*
X56119047Y-40447142D02*
X56071428Y-40542380D01*
X56071428Y-40542380D02*
X56023809Y-40590000D01*
X56023809Y-40590000D02*
X55928571Y-40637619D01*
X55928571Y-40637619D02*
X55738095Y-40637619D01*
X55738095Y-40637619D02*
X55642857Y-40590000D01*
X56452381Y-39970952D02*
X56690476Y-40637619D01*
X56928571Y-39970952D02*
X56690476Y-40637619D01*
X56690476Y-40637619D02*
X56595238Y-40875714D01*
X56595238Y-40875714D02*
X56547619Y-40923333D01*
X56547619Y-40923333D02*
X56452381Y-40970952D01*
X57309524Y-40637619D02*
X57309524Y-39970952D01*
X57309524Y-40161428D02*
X57357143Y-40066190D01*
X57357143Y-40066190D02*
X57404762Y-40018571D01*
X57404762Y-40018571D02*
X57500000Y-39970952D01*
X57500000Y-39970952D02*
X57595238Y-39970952D01*
X57928572Y-40637619D02*
X57928572Y-39970952D01*
X57928572Y-39637619D02*
X57880953Y-39685238D01*
X57880953Y-39685238D02*
X57928572Y-39732857D01*
X57928572Y-39732857D02*
X57976191Y-39685238D01*
X57976191Y-39685238D02*
X57928572Y-39637619D01*
X57928572Y-39637619D02*
X57928572Y-39732857D01*
X58833333Y-39970952D02*
X58833333Y-40780476D01*
X58833333Y-40780476D02*
X58785714Y-40875714D01*
X58785714Y-40875714D02*
X58738095Y-40923333D01*
X58738095Y-40923333D02*
X58642857Y-40970952D01*
X58642857Y-40970952D02*
X58500000Y-40970952D01*
X58500000Y-40970952D02*
X58404762Y-40923333D01*
X58833333Y-40590000D02*
X58738095Y-40637619D01*
X58738095Y-40637619D02*
X58547619Y-40637619D01*
X58547619Y-40637619D02*
X58452381Y-40590000D01*
X58452381Y-40590000D02*
X58404762Y-40542380D01*
X58404762Y-40542380D02*
X58357143Y-40447142D01*
X58357143Y-40447142D02*
X58357143Y-40161428D01*
X58357143Y-40161428D02*
X58404762Y-40066190D01*
X58404762Y-40066190D02*
X58452381Y-40018571D01*
X58452381Y-40018571D02*
X58547619Y-39970952D01*
X58547619Y-39970952D02*
X58738095Y-39970952D01*
X58738095Y-39970952D02*
X58833333Y-40018571D01*
X59309524Y-40637619D02*
X59309524Y-39637619D01*
X59738095Y-40637619D02*
X59738095Y-40113809D01*
X59738095Y-40113809D02*
X59690476Y-40018571D01*
X59690476Y-40018571D02*
X59595238Y-39970952D01*
X59595238Y-39970952D02*
X59452381Y-39970952D01*
X59452381Y-39970952D02*
X59357143Y-40018571D01*
X59357143Y-40018571D02*
X59309524Y-40066190D01*
X60071429Y-39970952D02*
X60452381Y-39970952D01*
X60214286Y-39637619D02*
X60214286Y-40494761D01*
X60214286Y-40494761D02*
X60261905Y-40590000D01*
X60261905Y-40590000D02*
X60357143Y-40637619D01*
X60357143Y-40637619D02*
X60452381Y-40637619D01*
X62119048Y-40542380D02*
X62071429Y-40590000D01*
X62071429Y-40590000D02*
X61928572Y-40637619D01*
X61928572Y-40637619D02*
X61833334Y-40637619D01*
X61833334Y-40637619D02*
X61690477Y-40590000D01*
X61690477Y-40590000D02*
X61595239Y-40494761D01*
X61595239Y-40494761D02*
X61547620Y-40399523D01*
X61547620Y-40399523D02*
X61500001Y-40209047D01*
X61500001Y-40209047D02*
X61500001Y-40066190D01*
X61500001Y-40066190D02*
X61547620Y-39875714D01*
X61547620Y-39875714D02*
X61595239Y-39780476D01*
X61595239Y-39780476D02*
X61690477Y-39685238D01*
X61690477Y-39685238D02*
X61833334Y-39637619D01*
X61833334Y-39637619D02*
X61928572Y-39637619D01*
X61928572Y-39637619D02*
X62071429Y-39685238D01*
X62071429Y-39685238D02*
X62119048Y-39732857D01*
X62547620Y-40113809D02*
X62880953Y-40113809D01*
X63023810Y-40637619D02*
X62547620Y-40637619D01*
X62547620Y-40637619D02*
X62547620Y-39637619D01*
X62547620Y-39637619D02*
X63023810Y-39637619D01*
X64023810Y-40637619D02*
X63690477Y-40161428D01*
X63452382Y-40637619D02*
X63452382Y-39637619D01*
X63452382Y-39637619D02*
X63833334Y-39637619D01*
X63833334Y-39637619D02*
X63928572Y-39685238D01*
X63928572Y-39685238D02*
X63976191Y-39732857D01*
X63976191Y-39732857D02*
X64023810Y-39828095D01*
X64023810Y-39828095D02*
X64023810Y-39970952D01*
X64023810Y-39970952D02*
X63976191Y-40066190D01*
X63976191Y-40066190D02*
X63928572Y-40113809D01*
X63928572Y-40113809D02*
X63833334Y-40161428D01*
X63833334Y-40161428D02*
X63452382Y-40161428D01*
X64452382Y-40637619D02*
X64452382Y-39637619D01*
X64452382Y-39637619D02*
X65023810Y-40637619D01*
X65023810Y-40637619D02*
X65023810Y-39637619D01*
X65500001Y-40256666D02*
X66261906Y-40256666D01*
X66928572Y-39637619D02*
X67119048Y-39637619D01*
X67119048Y-39637619D02*
X67214286Y-39685238D01*
X67214286Y-39685238D02*
X67309524Y-39780476D01*
X67309524Y-39780476D02*
X67357143Y-39970952D01*
X67357143Y-39970952D02*
X67357143Y-40304285D01*
X67357143Y-40304285D02*
X67309524Y-40494761D01*
X67309524Y-40494761D02*
X67214286Y-40590000D01*
X67214286Y-40590000D02*
X67119048Y-40637619D01*
X67119048Y-40637619D02*
X66928572Y-40637619D01*
X66928572Y-40637619D02*
X66833334Y-40590000D01*
X66833334Y-40590000D02*
X66738096Y-40494761D01*
X66738096Y-40494761D02*
X66690477Y-40304285D01*
X66690477Y-40304285D02*
X66690477Y-39970952D01*
X66690477Y-39970952D02*
X66738096Y-39780476D01*
X66738096Y-39780476D02*
X66833334Y-39685238D01*
X66833334Y-39685238D02*
X66928572Y-39637619D01*
X67785715Y-40637619D02*
X67785715Y-39637619D01*
X67785715Y-40113809D02*
X68357143Y-40113809D01*
X68357143Y-40637619D02*
X68357143Y-39637619D01*
X69309524Y-40637619D02*
X68833334Y-40637619D01*
X68833334Y-40637619D02*
X68833334Y-39637619D01*
X69642858Y-40256666D02*
X70404763Y-40256666D01*
X70833334Y-40590000D02*
X70976191Y-40637619D01*
X70976191Y-40637619D02*
X71214286Y-40637619D01*
X71214286Y-40637619D02*
X71309524Y-40590000D01*
X71309524Y-40590000D02*
X71357143Y-40542380D01*
X71357143Y-40542380D02*
X71404762Y-40447142D01*
X71404762Y-40447142D02*
X71404762Y-40351904D01*
X71404762Y-40351904D02*
X71357143Y-40256666D01*
X71357143Y-40256666D02*
X71309524Y-40209047D01*
X71309524Y-40209047D02*
X71214286Y-40161428D01*
X71214286Y-40161428D02*
X71023810Y-40113809D01*
X71023810Y-40113809D02*
X70928572Y-40066190D01*
X70928572Y-40066190D02*
X70880953Y-40018571D01*
X70880953Y-40018571D02*
X70833334Y-39923333D01*
X70833334Y-39923333D02*
X70833334Y-39828095D01*
X70833334Y-39828095D02*
X70880953Y-39732857D01*
X70880953Y-39732857D02*
X70928572Y-39685238D01*
X70928572Y-39685238D02*
X71023810Y-39637619D01*
X71023810Y-39637619D02*
X71261905Y-39637619D01*
X71261905Y-39637619D02*
X71404762Y-39685238D01*
X53690476Y-42210000D02*
X53833333Y-42257619D01*
X53833333Y-42257619D02*
X54071428Y-42257619D01*
X54071428Y-42257619D02*
X54166666Y-42210000D01*
X54166666Y-42210000D02*
X54214285Y-42162380D01*
X54214285Y-42162380D02*
X54261904Y-42067142D01*
X54261904Y-42067142D02*
X54261904Y-41971904D01*
X54261904Y-41971904D02*
X54214285Y-41876666D01*
X54214285Y-41876666D02*
X54166666Y-41829047D01*
X54166666Y-41829047D02*
X54071428Y-41781428D01*
X54071428Y-41781428D02*
X53880952Y-41733809D01*
X53880952Y-41733809D02*
X53785714Y-41686190D01*
X53785714Y-41686190D02*
X53738095Y-41638571D01*
X53738095Y-41638571D02*
X53690476Y-41543333D01*
X53690476Y-41543333D02*
X53690476Y-41448095D01*
X53690476Y-41448095D02*
X53738095Y-41352857D01*
X53738095Y-41352857D02*
X53785714Y-41305238D01*
X53785714Y-41305238D02*
X53880952Y-41257619D01*
X53880952Y-41257619D02*
X54119047Y-41257619D01*
X54119047Y-41257619D02*
X54261904Y-41305238D01*
X54547619Y-41590952D02*
X54928571Y-41590952D01*
X54690476Y-41257619D02*
X54690476Y-42114761D01*
X54690476Y-42114761D02*
X54738095Y-42210000D01*
X54738095Y-42210000D02*
X54833333Y-42257619D01*
X54833333Y-42257619D02*
X54928571Y-42257619D01*
X55642857Y-42210000D02*
X55547619Y-42257619D01*
X55547619Y-42257619D02*
X55357143Y-42257619D01*
X55357143Y-42257619D02*
X55261905Y-42210000D01*
X55261905Y-42210000D02*
X55214286Y-42114761D01*
X55214286Y-42114761D02*
X55214286Y-41733809D01*
X55214286Y-41733809D02*
X55261905Y-41638571D01*
X55261905Y-41638571D02*
X55357143Y-41590952D01*
X55357143Y-41590952D02*
X55547619Y-41590952D01*
X55547619Y-41590952D02*
X55642857Y-41638571D01*
X55642857Y-41638571D02*
X55690476Y-41733809D01*
X55690476Y-41733809D02*
X55690476Y-41829047D01*
X55690476Y-41829047D02*
X55214286Y-41924285D01*
X56119048Y-41590952D02*
X56119048Y-42590952D01*
X56119048Y-41638571D02*
X56214286Y-41590952D01*
X56214286Y-41590952D02*
X56404762Y-41590952D01*
X56404762Y-41590952D02*
X56500000Y-41638571D01*
X56500000Y-41638571D02*
X56547619Y-41686190D01*
X56547619Y-41686190D02*
X56595238Y-41781428D01*
X56595238Y-41781428D02*
X56595238Y-42067142D01*
X56595238Y-42067142D02*
X56547619Y-42162380D01*
X56547619Y-42162380D02*
X56500000Y-42210000D01*
X56500000Y-42210000D02*
X56404762Y-42257619D01*
X56404762Y-42257619D02*
X56214286Y-42257619D01*
X56214286Y-42257619D02*
X56119048Y-42210000D01*
X57023810Y-42257619D02*
X57023810Y-41257619D01*
X57452381Y-42257619D02*
X57452381Y-41733809D01*
X57452381Y-41733809D02*
X57404762Y-41638571D01*
X57404762Y-41638571D02*
X57309524Y-41590952D01*
X57309524Y-41590952D02*
X57166667Y-41590952D01*
X57166667Y-41590952D02*
X57071429Y-41638571D01*
X57071429Y-41638571D02*
X57023810Y-41686190D01*
X58309524Y-42210000D02*
X58214286Y-42257619D01*
X58214286Y-42257619D02*
X58023810Y-42257619D01*
X58023810Y-42257619D02*
X57928572Y-42210000D01*
X57928572Y-42210000D02*
X57880953Y-42114761D01*
X57880953Y-42114761D02*
X57880953Y-41733809D01*
X57880953Y-41733809D02*
X57928572Y-41638571D01*
X57928572Y-41638571D02*
X58023810Y-41590952D01*
X58023810Y-41590952D02*
X58214286Y-41590952D01*
X58214286Y-41590952D02*
X58309524Y-41638571D01*
X58309524Y-41638571D02*
X58357143Y-41733809D01*
X58357143Y-41733809D02*
X58357143Y-41829047D01*
X58357143Y-41829047D02*
X57880953Y-41924285D01*
X58785715Y-41590952D02*
X58785715Y-42257619D01*
X58785715Y-41686190D02*
X58833334Y-41638571D01*
X58833334Y-41638571D02*
X58928572Y-41590952D01*
X58928572Y-41590952D02*
X59071429Y-41590952D01*
X59071429Y-41590952D02*
X59166667Y-41638571D01*
X59166667Y-41638571D02*
X59214286Y-41733809D01*
X59214286Y-41733809D02*
X59214286Y-42257619D01*
X60452382Y-42257619D02*
X60452382Y-41257619D01*
X60452382Y-41733809D02*
X61023810Y-41733809D01*
X61023810Y-42257619D02*
X61023810Y-41257619D01*
X61928572Y-42257619D02*
X61928572Y-41733809D01*
X61928572Y-41733809D02*
X61880953Y-41638571D01*
X61880953Y-41638571D02*
X61785715Y-41590952D01*
X61785715Y-41590952D02*
X61595239Y-41590952D01*
X61595239Y-41590952D02*
X61500001Y-41638571D01*
X61928572Y-42210000D02*
X61833334Y-42257619D01*
X61833334Y-42257619D02*
X61595239Y-42257619D01*
X61595239Y-42257619D02*
X61500001Y-42210000D01*
X61500001Y-42210000D02*
X61452382Y-42114761D01*
X61452382Y-42114761D02*
X61452382Y-42019523D01*
X61452382Y-42019523D02*
X61500001Y-41924285D01*
X61500001Y-41924285D02*
X61595239Y-41876666D01*
X61595239Y-41876666D02*
X61833334Y-41876666D01*
X61833334Y-41876666D02*
X61928572Y-41829047D01*
X62309525Y-41590952D02*
X62500001Y-42257619D01*
X62500001Y-42257619D02*
X62690477Y-41781428D01*
X62690477Y-41781428D02*
X62880953Y-42257619D01*
X62880953Y-42257619D02*
X63071429Y-41590952D01*
X63833334Y-42210000D02*
X63738096Y-42257619D01*
X63738096Y-42257619D02*
X63547620Y-42257619D01*
X63547620Y-42257619D02*
X63452382Y-42210000D01*
X63452382Y-42210000D02*
X63404763Y-42114761D01*
X63404763Y-42114761D02*
X63404763Y-41733809D01*
X63404763Y-41733809D02*
X63452382Y-41638571D01*
X63452382Y-41638571D02*
X63547620Y-41590952D01*
X63547620Y-41590952D02*
X63738096Y-41590952D01*
X63738096Y-41590952D02*
X63833334Y-41638571D01*
X63833334Y-41638571D02*
X63880953Y-41733809D01*
X63880953Y-41733809D02*
X63880953Y-41829047D01*
X63880953Y-41829047D02*
X63404763Y-41924285D01*
X64261906Y-42210000D02*
X64357144Y-42257619D01*
X64357144Y-42257619D02*
X64547620Y-42257619D01*
X64547620Y-42257619D02*
X64642858Y-42210000D01*
X64642858Y-42210000D02*
X64690477Y-42114761D01*
X64690477Y-42114761D02*
X64690477Y-42067142D01*
X64690477Y-42067142D02*
X64642858Y-41971904D01*
X64642858Y-41971904D02*
X64547620Y-41924285D01*
X64547620Y-41924285D02*
X64404763Y-41924285D01*
X64404763Y-41924285D02*
X64309525Y-41876666D01*
X64309525Y-41876666D02*
X64261906Y-41781428D01*
X64261906Y-41781428D02*
X64261906Y-41733809D01*
X64261906Y-41733809D02*
X64309525Y-41638571D01*
X64309525Y-41638571D02*
X64404763Y-41590952D01*
X64404763Y-41590952D02*
X64547620Y-41590952D01*
X64547620Y-41590952D02*
X64642858Y-41638571D01*
%TO.C,U3*%
X50150119Y-40261904D02*
X50959642Y-40261904D01*
X50959642Y-40261904D02*
X51054880Y-40214285D01*
X51054880Y-40214285D02*
X51102500Y-40166666D01*
X51102500Y-40166666D02*
X51150119Y-40071428D01*
X51150119Y-40071428D02*
X51150119Y-39880952D01*
X51150119Y-39880952D02*
X51102500Y-39785714D01*
X51102500Y-39785714D02*
X51054880Y-39738095D01*
X51054880Y-39738095D02*
X50959642Y-39690476D01*
X50959642Y-39690476D02*
X50150119Y-39690476D01*
X50150119Y-39309523D02*
X50150119Y-38690476D01*
X50150119Y-38690476D02*
X50531071Y-39023809D01*
X50531071Y-39023809D02*
X50531071Y-38880952D01*
X50531071Y-38880952D02*
X50578690Y-38785714D01*
X50578690Y-38785714D02*
X50626309Y-38738095D01*
X50626309Y-38738095D02*
X50721547Y-38690476D01*
X50721547Y-38690476D02*
X50959642Y-38690476D01*
X50959642Y-38690476D02*
X51054880Y-38738095D01*
X51054880Y-38738095D02*
X51102500Y-38785714D01*
X51102500Y-38785714D02*
X51150119Y-38880952D01*
X51150119Y-38880952D02*
X51150119Y-39166666D01*
X51150119Y-39166666D02*
X51102500Y-39261904D01*
X51102500Y-39261904D02*
X51054880Y-39309523D01*
%TO.C,R17*%
X12712619Y-12142857D02*
X12236428Y-12476190D01*
X12712619Y-12714285D02*
X11712619Y-12714285D01*
X11712619Y-12714285D02*
X11712619Y-12333333D01*
X11712619Y-12333333D02*
X11760238Y-12238095D01*
X11760238Y-12238095D02*
X11807857Y-12190476D01*
X11807857Y-12190476D02*
X11903095Y-12142857D01*
X11903095Y-12142857D02*
X12045952Y-12142857D01*
X12045952Y-12142857D02*
X12141190Y-12190476D01*
X12141190Y-12190476D02*
X12188809Y-12238095D01*
X12188809Y-12238095D02*
X12236428Y-12333333D01*
X12236428Y-12333333D02*
X12236428Y-12714285D01*
X12712619Y-11190476D02*
X12712619Y-11761904D01*
X12712619Y-11476190D02*
X11712619Y-11476190D01*
X11712619Y-11476190D02*
X11855476Y-11571428D01*
X11855476Y-11571428D02*
X11950714Y-11666666D01*
X11950714Y-11666666D02*
X11998333Y-11761904D01*
X11712619Y-10857142D02*
X11712619Y-10190476D01*
X11712619Y-10190476D02*
X12712619Y-10619047D01*
%TO.C,R11*%
X22962619Y-12142857D02*
X22486428Y-12476190D01*
X22962619Y-12714285D02*
X21962619Y-12714285D01*
X21962619Y-12714285D02*
X21962619Y-12333333D01*
X21962619Y-12333333D02*
X22010238Y-12238095D01*
X22010238Y-12238095D02*
X22057857Y-12190476D01*
X22057857Y-12190476D02*
X22153095Y-12142857D01*
X22153095Y-12142857D02*
X22295952Y-12142857D01*
X22295952Y-12142857D02*
X22391190Y-12190476D01*
X22391190Y-12190476D02*
X22438809Y-12238095D01*
X22438809Y-12238095D02*
X22486428Y-12333333D01*
X22486428Y-12333333D02*
X22486428Y-12714285D01*
X22962619Y-11190476D02*
X22962619Y-11761904D01*
X22962619Y-11476190D02*
X21962619Y-11476190D01*
X21962619Y-11476190D02*
X22105476Y-11571428D01*
X22105476Y-11571428D02*
X22200714Y-11666666D01*
X22200714Y-11666666D02*
X22248333Y-11761904D01*
X22962619Y-10238095D02*
X22962619Y-10809523D01*
X22962619Y-10523809D02*
X21962619Y-10523809D01*
X21962619Y-10523809D02*
X22105476Y-10619047D01*
X22105476Y-10619047D02*
X22200714Y-10714285D01*
X22200714Y-10714285D02*
X22248333Y-10809523D01*
%TO.C,R3*%
X33530119Y-21916666D02*
X33053928Y-22249999D01*
X33530119Y-22488094D02*
X32530119Y-22488094D01*
X32530119Y-22488094D02*
X32530119Y-22107142D01*
X32530119Y-22107142D02*
X32577738Y-22011904D01*
X32577738Y-22011904D02*
X32625357Y-21964285D01*
X32625357Y-21964285D02*
X32720595Y-21916666D01*
X32720595Y-21916666D02*
X32863452Y-21916666D01*
X32863452Y-21916666D02*
X32958690Y-21964285D01*
X32958690Y-21964285D02*
X33006309Y-22011904D01*
X33006309Y-22011904D02*
X33053928Y-22107142D01*
X33053928Y-22107142D02*
X33053928Y-22488094D01*
X32530119Y-21583332D02*
X32530119Y-20964285D01*
X32530119Y-20964285D02*
X32911071Y-21297618D01*
X32911071Y-21297618D02*
X32911071Y-21154761D01*
X32911071Y-21154761D02*
X32958690Y-21059523D01*
X32958690Y-21059523D02*
X33006309Y-21011904D01*
X33006309Y-21011904D02*
X33101547Y-20964285D01*
X33101547Y-20964285D02*
X33339642Y-20964285D01*
X33339642Y-20964285D02*
X33434880Y-21011904D01*
X33434880Y-21011904D02*
X33482500Y-21059523D01*
X33482500Y-21059523D02*
X33530119Y-21154761D01*
X33530119Y-21154761D02*
X33530119Y-21440475D01*
X33530119Y-21440475D02*
X33482500Y-21535713D01*
X33482500Y-21535713D02*
X33434880Y-21583332D01*
%TO.C,R14*%
X17712619Y-12392857D02*
X17236428Y-12726190D01*
X17712619Y-12964285D02*
X16712619Y-12964285D01*
X16712619Y-12964285D02*
X16712619Y-12583333D01*
X16712619Y-12583333D02*
X16760238Y-12488095D01*
X16760238Y-12488095D02*
X16807857Y-12440476D01*
X16807857Y-12440476D02*
X16903095Y-12392857D01*
X16903095Y-12392857D02*
X17045952Y-12392857D01*
X17045952Y-12392857D02*
X17141190Y-12440476D01*
X17141190Y-12440476D02*
X17188809Y-12488095D01*
X17188809Y-12488095D02*
X17236428Y-12583333D01*
X17236428Y-12583333D02*
X17236428Y-12964285D01*
X17712619Y-11440476D02*
X17712619Y-12011904D01*
X17712619Y-11726190D02*
X16712619Y-11726190D01*
X16712619Y-11726190D02*
X16855476Y-11821428D01*
X16855476Y-11821428D02*
X16950714Y-11916666D01*
X16950714Y-11916666D02*
X16998333Y-12011904D01*
X17045952Y-10583333D02*
X17712619Y-10583333D01*
X16665000Y-10821428D02*
X17379285Y-11059523D01*
X17379285Y-11059523D02*
X17379285Y-10440476D01*
%TO.C,C5*%
X123083333Y-8617380D02*
X123035714Y-8665000D01*
X123035714Y-8665000D02*
X122892857Y-8712619D01*
X122892857Y-8712619D02*
X122797619Y-8712619D01*
X122797619Y-8712619D02*
X122654762Y-8665000D01*
X122654762Y-8665000D02*
X122559524Y-8569761D01*
X122559524Y-8569761D02*
X122511905Y-8474523D01*
X122511905Y-8474523D02*
X122464286Y-8284047D01*
X122464286Y-8284047D02*
X122464286Y-8141190D01*
X122464286Y-8141190D02*
X122511905Y-7950714D01*
X122511905Y-7950714D02*
X122559524Y-7855476D01*
X122559524Y-7855476D02*
X122654762Y-7760238D01*
X122654762Y-7760238D02*
X122797619Y-7712619D01*
X122797619Y-7712619D02*
X122892857Y-7712619D01*
X122892857Y-7712619D02*
X123035714Y-7760238D01*
X123035714Y-7760238D02*
X123083333Y-7807857D01*
X123988095Y-7712619D02*
X123511905Y-7712619D01*
X123511905Y-7712619D02*
X123464286Y-8188809D01*
X123464286Y-8188809D02*
X123511905Y-8141190D01*
X123511905Y-8141190D02*
X123607143Y-8093571D01*
X123607143Y-8093571D02*
X123845238Y-8093571D01*
X123845238Y-8093571D02*
X123940476Y-8141190D01*
X123940476Y-8141190D02*
X123988095Y-8188809D01*
X123988095Y-8188809D02*
X124035714Y-8284047D01*
X124035714Y-8284047D02*
X124035714Y-8522142D01*
X124035714Y-8522142D02*
X123988095Y-8617380D01*
X123988095Y-8617380D02*
X123940476Y-8665000D01*
X123940476Y-8665000D02*
X123845238Y-8712619D01*
X123845238Y-8712619D02*
X123607143Y-8712619D01*
X123607143Y-8712619D02*
X123511905Y-8665000D01*
X123511905Y-8665000D02*
X123464286Y-8617380D01*
%TO.C,R25*%
X40544642Y-8062619D02*
X40211309Y-7586428D01*
X39973214Y-8062619D02*
X39973214Y-7062619D01*
X39973214Y-7062619D02*
X40354166Y-7062619D01*
X40354166Y-7062619D02*
X40449404Y-7110238D01*
X40449404Y-7110238D02*
X40497023Y-7157857D01*
X40497023Y-7157857D02*
X40544642Y-7253095D01*
X40544642Y-7253095D02*
X40544642Y-7395952D01*
X40544642Y-7395952D02*
X40497023Y-7491190D01*
X40497023Y-7491190D02*
X40449404Y-7538809D01*
X40449404Y-7538809D02*
X40354166Y-7586428D01*
X40354166Y-7586428D02*
X39973214Y-7586428D01*
X40925595Y-7157857D02*
X40973214Y-7110238D01*
X40973214Y-7110238D02*
X41068452Y-7062619D01*
X41068452Y-7062619D02*
X41306547Y-7062619D01*
X41306547Y-7062619D02*
X41401785Y-7110238D01*
X41401785Y-7110238D02*
X41449404Y-7157857D01*
X41449404Y-7157857D02*
X41497023Y-7253095D01*
X41497023Y-7253095D02*
X41497023Y-7348333D01*
X41497023Y-7348333D02*
X41449404Y-7491190D01*
X41449404Y-7491190D02*
X40877976Y-8062619D01*
X40877976Y-8062619D02*
X41497023Y-8062619D01*
X42401785Y-7062619D02*
X41925595Y-7062619D01*
X41925595Y-7062619D02*
X41877976Y-7538809D01*
X41877976Y-7538809D02*
X41925595Y-7491190D01*
X41925595Y-7491190D02*
X42020833Y-7443571D01*
X42020833Y-7443571D02*
X42258928Y-7443571D01*
X42258928Y-7443571D02*
X42354166Y-7491190D01*
X42354166Y-7491190D02*
X42401785Y-7538809D01*
X42401785Y-7538809D02*
X42449404Y-7634047D01*
X42449404Y-7634047D02*
X42449404Y-7872142D01*
X42449404Y-7872142D02*
X42401785Y-7967380D01*
X42401785Y-7967380D02*
X42354166Y-8015000D01*
X42354166Y-8015000D02*
X42258928Y-8062619D01*
X42258928Y-8062619D02*
X42020833Y-8062619D01*
X42020833Y-8062619D02*
X41925595Y-8015000D01*
X41925595Y-8015000D02*
X41877976Y-7967380D01*
%TO.C,R21*%
X49280119Y-22392857D02*
X48803928Y-22726190D01*
X49280119Y-22964285D02*
X48280119Y-22964285D01*
X48280119Y-22964285D02*
X48280119Y-22583333D01*
X48280119Y-22583333D02*
X48327738Y-22488095D01*
X48327738Y-22488095D02*
X48375357Y-22440476D01*
X48375357Y-22440476D02*
X48470595Y-22392857D01*
X48470595Y-22392857D02*
X48613452Y-22392857D01*
X48613452Y-22392857D02*
X48708690Y-22440476D01*
X48708690Y-22440476D02*
X48756309Y-22488095D01*
X48756309Y-22488095D02*
X48803928Y-22583333D01*
X48803928Y-22583333D02*
X48803928Y-22964285D01*
X48375357Y-22011904D02*
X48327738Y-21964285D01*
X48327738Y-21964285D02*
X48280119Y-21869047D01*
X48280119Y-21869047D02*
X48280119Y-21630952D01*
X48280119Y-21630952D02*
X48327738Y-21535714D01*
X48327738Y-21535714D02*
X48375357Y-21488095D01*
X48375357Y-21488095D02*
X48470595Y-21440476D01*
X48470595Y-21440476D02*
X48565833Y-21440476D01*
X48565833Y-21440476D02*
X48708690Y-21488095D01*
X48708690Y-21488095D02*
X49280119Y-22059523D01*
X49280119Y-22059523D02*
X49280119Y-21440476D01*
X49280119Y-20488095D02*
X49280119Y-21059523D01*
X49280119Y-20773809D02*
X48280119Y-20773809D01*
X48280119Y-20773809D02*
X48422976Y-20869047D01*
X48422976Y-20869047D02*
X48518214Y-20964285D01*
X48518214Y-20964285D02*
X48565833Y-21059523D01*
%TO.C,Q6*%
X7904761Y-17557857D02*
X7809523Y-17510238D01*
X7809523Y-17510238D02*
X7714285Y-17415000D01*
X7714285Y-17415000D02*
X7571428Y-17272142D01*
X7571428Y-17272142D02*
X7476190Y-17224523D01*
X7476190Y-17224523D02*
X7380952Y-17224523D01*
X7428571Y-17462619D02*
X7333333Y-17415000D01*
X7333333Y-17415000D02*
X7238095Y-17319761D01*
X7238095Y-17319761D02*
X7190476Y-17129285D01*
X7190476Y-17129285D02*
X7190476Y-16795952D01*
X7190476Y-16795952D02*
X7238095Y-16605476D01*
X7238095Y-16605476D02*
X7333333Y-16510238D01*
X7333333Y-16510238D02*
X7428571Y-16462619D01*
X7428571Y-16462619D02*
X7619047Y-16462619D01*
X7619047Y-16462619D02*
X7714285Y-16510238D01*
X7714285Y-16510238D02*
X7809523Y-16605476D01*
X7809523Y-16605476D02*
X7857142Y-16795952D01*
X7857142Y-16795952D02*
X7857142Y-17129285D01*
X7857142Y-17129285D02*
X7809523Y-17319761D01*
X7809523Y-17319761D02*
X7714285Y-17415000D01*
X7714285Y-17415000D02*
X7619047Y-17462619D01*
X7619047Y-17462619D02*
X7428571Y-17462619D01*
X8714285Y-16462619D02*
X8523809Y-16462619D01*
X8523809Y-16462619D02*
X8428571Y-16510238D01*
X8428571Y-16510238D02*
X8380952Y-16557857D01*
X8380952Y-16557857D02*
X8285714Y-16700714D01*
X8285714Y-16700714D02*
X8238095Y-16891190D01*
X8238095Y-16891190D02*
X8238095Y-17272142D01*
X8238095Y-17272142D02*
X8285714Y-17367380D01*
X8285714Y-17367380D02*
X8333333Y-17415000D01*
X8333333Y-17415000D02*
X8428571Y-17462619D01*
X8428571Y-17462619D02*
X8619047Y-17462619D01*
X8619047Y-17462619D02*
X8714285Y-17415000D01*
X8714285Y-17415000D02*
X8761904Y-17367380D01*
X8761904Y-17367380D02*
X8809523Y-17272142D01*
X8809523Y-17272142D02*
X8809523Y-17034047D01*
X8809523Y-17034047D02*
X8761904Y-16938809D01*
X8761904Y-16938809D02*
X8714285Y-16891190D01*
X8714285Y-16891190D02*
X8619047Y-16843571D01*
X8619047Y-16843571D02*
X8428571Y-16843571D01*
X8428571Y-16843571D02*
X8333333Y-16891190D01*
X8333333Y-16891190D02*
X8285714Y-16938809D01*
X8285714Y-16938809D02*
X8238095Y-17034047D01*
%TO.C,R20*%
X54462619Y-12392857D02*
X53986428Y-12726190D01*
X54462619Y-12964285D02*
X53462619Y-12964285D01*
X53462619Y-12964285D02*
X53462619Y-12583333D01*
X53462619Y-12583333D02*
X53510238Y-12488095D01*
X53510238Y-12488095D02*
X53557857Y-12440476D01*
X53557857Y-12440476D02*
X53653095Y-12392857D01*
X53653095Y-12392857D02*
X53795952Y-12392857D01*
X53795952Y-12392857D02*
X53891190Y-12440476D01*
X53891190Y-12440476D02*
X53938809Y-12488095D01*
X53938809Y-12488095D02*
X53986428Y-12583333D01*
X53986428Y-12583333D02*
X53986428Y-12964285D01*
X53557857Y-12011904D02*
X53510238Y-11964285D01*
X53510238Y-11964285D02*
X53462619Y-11869047D01*
X53462619Y-11869047D02*
X53462619Y-11630952D01*
X53462619Y-11630952D02*
X53510238Y-11535714D01*
X53510238Y-11535714D02*
X53557857Y-11488095D01*
X53557857Y-11488095D02*
X53653095Y-11440476D01*
X53653095Y-11440476D02*
X53748333Y-11440476D01*
X53748333Y-11440476D02*
X53891190Y-11488095D01*
X53891190Y-11488095D02*
X54462619Y-12059523D01*
X54462619Y-12059523D02*
X54462619Y-11440476D01*
X53462619Y-10821428D02*
X53462619Y-10726190D01*
X53462619Y-10726190D02*
X53510238Y-10630952D01*
X53510238Y-10630952D02*
X53557857Y-10583333D01*
X53557857Y-10583333D02*
X53653095Y-10535714D01*
X53653095Y-10535714D02*
X53843571Y-10488095D01*
X53843571Y-10488095D02*
X54081666Y-10488095D01*
X54081666Y-10488095D02*
X54272142Y-10535714D01*
X54272142Y-10535714D02*
X54367380Y-10583333D01*
X54367380Y-10583333D02*
X54415000Y-10630952D01*
X54415000Y-10630952D02*
X54462619Y-10726190D01*
X54462619Y-10726190D02*
X54462619Y-10821428D01*
X54462619Y-10821428D02*
X54415000Y-10916666D01*
X54415000Y-10916666D02*
X54367380Y-10964285D01*
X54367380Y-10964285D02*
X54272142Y-11011904D01*
X54272142Y-11011904D02*
X54081666Y-11059523D01*
X54081666Y-11059523D02*
X53843571Y-11059523D01*
X53843571Y-11059523D02*
X53653095Y-11011904D01*
X53653095Y-11011904D02*
X53557857Y-10964285D01*
X53557857Y-10964285D02*
X53510238Y-10916666D01*
X53510238Y-10916666D02*
X53462619Y-10821428D01*
%TO.C,R22*%
X45544642Y-8062619D02*
X45211309Y-7586428D01*
X44973214Y-8062619D02*
X44973214Y-7062619D01*
X44973214Y-7062619D02*
X45354166Y-7062619D01*
X45354166Y-7062619D02*
X45449404Y-7110238D01*
X45449404Y-7110238D02*
X45497023Y-7157857D01*
X45497023Y-7157857D02*
X45544642Y-7253095D01*
X45544642Y-7253095D02*
X45544642Y-7395952D01*
X45544642Y-7395952D02*
X45497023Y-7491190D01*
X45497023Y-7491190D02*
X45449404Y-7538809D01*
X45449404Y-7538809D02*
X45354166Y-7586428D01*
X45354166Y-7586428D02*
X44973214Y-7586428D01*
X45925595Y-7157857D02*
X45973214Y-7110238D01*
X45973214Y-7110238D02*
X46068452Y-7062619D01*
X46068452Y-7062619D02*
X46306547Y-7062619D01*
X46306547Y-7062619D02*
X46401785Y-7110238D01*
X46401785Y-7110238D02*
X46449404Y-7157857D01*
X46449404Y-7157857D02*
X46497023Y-7253095D01*
X46497023Y-7253095D02*
X46497023Y-7348333D01*
X46497023Y-7348333D02*
X46449404Y-7491190D01*
X46449404Y-7491190D02*
X45877976Y-8062619D01*
X45877976Y-8062619D02*
X46497023Y-8062619D01*
X46877976Y-7157857D02*
X46925595Y-7110238D01*
X46925595Y-7110238D02*
X47020833Y-7062619D01*
X47020833Y-7062619D02*
X47258928Y-7062619D01*
X47258928Y-7062619D02*
X47354166Y-7110238D01*
X47354166Y-7110238D02*
X47401785Y-7157857D01*
X47401785Y-7157857D02*
X47449404Y-7253095D01*
X47449404Y-7253095D02*
X47449404Y-7348333D01*
X47449404Y-7348333D02*
X47401785Y-7491190D01*
X47401785Y-7491190D02*
X46830357Y-8062619D01*
X46830357Y-8062619D02*
X47449404Y-8062619D01*
%TO.C,R18*%
X7842619Y-22392857D02*
X7366428Y-22726190D01*
X7842619Y-22964285D02*
X6842619Y-22964285D01*
X6842619Y-22964285D02*
X6842619Y-22583333D01*
X6842619Y-22583333D02*
X6890238Y-22488095D01*
X6890238Y-22488095D02*
X6937857Y-22440476D01*
X6937857Y-22440476D02*
X7033095Y-22392857D01*
X7033095Y-22392857D02*
X7175952Y-22392857D01*
X7175952Y-22392857D02*
X7271190Y-22440476D01*
X7271190Y-22440476D02*
X7318809Y-22488095D01*
X7318809Y-22488095D02*
X7366428Y-22583333D01*
X7366428Y-22583333D02*
X7366428Y-22964285D01*
X7842619Y-21440476D02*
X7842619Y-22011904D01*
X7842619Y-21726190D02*
X6842619Y-21726190D01*
X6842619Y-21726190D02*
X6985476Y-21821428D01*
X6985476Y-21821428D02*
X7080714Y-21916666D01*
X7080714Y-21916666D02*
X7128333Y-22011904D01*
X7271190Y-20869047D02*
X7223571Y-20964285D01*
X7223571Y-20964285D02*
X7175952Y-21011904D01*
X7175952Y-21011904D02*
X7080714Y-21059523D01*
X7080714Y-21059523D02*
X7033095Y-21059523D01*
X7033095Y-21059523D02*
X6937857Y-21011904D01*
X6937857Y-21011904D02*
X6890238Y-20964285D01*
X6890238Y-20964285D02*
X6842619Y-20869047D01*
X6842619Y-20869047D02*
X6842619Y-20678571D01*
X6842619Y-20678571D02*
X6890238Y-20583333D01*
X6890238Y-20583333D02*
X6937857Y-20535714D01*
X6937857Y-20535714D02*
X7033095Y-20488095D01*
X7033095Y-20488095D02*
X7080714Y-20488095D01*
X7080714Y-20488095D02*
X7175952Y-20535714D01*
X7175952Y-20535714D02*
X7223571Y-20583333D01*
X7223571Y-20583333D02*
X7271190Y-20678571D01*
X7271190Y-20678571D02*
X7271190Y-20869047D01*
X7271190Y-20869047D02*
X7318809Y-20964285D01*
X7318809Y-20964285D02*
X7366428Y-21011904D01*
X7366428Y-21011904D02*
X7461666Y-21059523D01*
X7461666Y-21059523D02*
X7652142Y-21059523D01*
X7652142Y-21059523D02*
X7747380Y-21011904D01*
X7747380Y-21011904D02*
X7795000Y-20964285D01*
X7795000Y-20964285D02*
X7842619Y-20869047D01*
X7842619Y-20869047D02*
X7842619Y-20678571D01*
X7842619Y-20678571D02*
X7795000Y-20583333D01*
X7795000Y-20583333D02*
X7747380Y-20535714D01*
X7747380Y-20535714D02*
X7652142Y-20488095D01*
X7652142Y-20488095D02*
X7461666Y-20488095D01*
X7461666Y-20488095D02*
X7366428Y-20535714D01*
X7366428Y-20535714D02*
X7318809Y-20583333D01*
X7318809Y-20583333D02*
X7271190Y-20678571D01*
%TO.C,R19*%
X50794642Y-8062619D02*
X50461309Y-7586428D01*
X50223214Y-8062619D02*
X50223214Y-7062619D01*
X50223214Y-7062619D02*
X50604166Y-7062619D01*
X50604166Y-7062619D02*
X50699404Y-7110238D01*
X50699404Y-7110238D02*
X50747023Y-7157857D01*
X50747023Y-7157857D02*
X50794642Y-7253095D01*
X50794642Y-7253095D02*
X50794642Y-7395952D01*
X50794642Y-7395952D02*
X50747023Y-7491190D01*
X50747023Y-7491190D02*
X50699404Y-7538809D01*
X50699404Y-7538809D02*
X50604166Y-7586428D01*
X50604166Y-7586428D02*
X50223214Y-7586428D01*
X51747023Y-8062619D02*
X51175595Y-8062619D01*
X51461309Y-8062619D02*
X51461309Y-7062619D01*
X51461309Y-7062619D02*
X51366071Y-7205476D01*
X51366071Y-7205476D02*
X51270833Y-7300714D01*
X51270833Y-7300714D02*
X51175595Y-7348333D01*
X52223214Y-8062619D02*
X52413690Y-8062619D01*
X52413690Y-8062619D02*
X52508928Y-8015000D01*
X52508928Y-8015000D02*
X52556547Y-7967380D01*
X52556547Y-7967380D02*
X52651785Y-7824523D01*
X52651785Y-7824523D02*
X52699404Y-7634047D01*
X52699404Y-7634047D02*
X52699404Y-7253095D01*
X52699404Y-7253095D02*
X52651785Y-7157857D01*
X52651785Y-7157857D02*
X52604166Y-7110238D01*
X52604166Y-7110238D02*
X52508928Y-7062619D01*
X52508928Y-7062619D02*
X52318452Y-7062619D01*
X52318452Y-7062619D02*
X52223214Y-7110238D01*
X52223214Y-7110238D02*
X52175595Y-7157857D01*
X52175595Y-7157857D02*
X52127976Y-7253095D01*
X52127976Y-7253095D02*
X52127976Y-7491190D01*
X52127976Y-7491190D02*
X52175595Y-7586428D01*
X52175595Y-7586428D02*
X52223214Y-7634047D01*
X52223214Y-7634047D02*
X52318452Y-7681666D01*
X52318452Y-7681666D02*
X52508928Y-7681666D01*
X52508928Y-7681666D02*
X52604166Y-7634047D01*
X52604166Y-7634047D02*
X52651785Y-7586428D01*
X52651785Y-7586428D02*
X52699404Y-7491190D01*
%TO.C,R10*%
X19607141Y-8062619D02*
X19273808Y-7586428D01*
X19035713Y-8062619D02*
X19035713Y-7062619D01*
X19035713Y-7062619D02*
X19416665Y-7062619D01*
X19416665Y-7062619D02*
X19511903Y-7110238D01*
X19511903Y-7110238D02*
X19559522Y-7157857D01*
X19559522Y-7157857D02*
X19607141Y-7253095D01*
X19607141Y-7253095D02*
X19607141Y-7395952D01*
X19607141Y-7395952D02*
X19559522Y-7491190D01*
X19559522Y-7491190D02*
X19511903Y-7538809D01*
X19511903Y-7538809D02*
X19416665Y-7586428D01*
X19416665Y-7586428D02*
X19035713Y-7586428D01*
X20559522Y-8062619D02*
X19988094Y-8062619D01*
X20273808Y-8062619D02*
X20273808Y-7062619D01*
X20273808Y-7062619D02*
X20178570Y-7205476D01*
X20178570Y-7205476D02*
X20083332Y-7300714D01*
X20083332Y-7300714D02*
X19988094Y-7348333D01*
X21178570Y-7062619D02*
X21273808Y-7062619D01*
X21273808Y-7062619D02*
X21369046Y-7110238D01*
X21369046Y-7110238D02*
X21416665Y-7157857D01*
X21416665Y-7157857D02*
X21464284Y-7253095D01*
X21464284Y-7253095D02*
X21511903Y-7443571D01*
X21511903Y-7443571D02*
X21511903Y-7681666D01*
X21511903Y-7681666D02*
X21464284Y-7872142D01*
X21464284Y-7872142D02*
X21416665Y-7967380D01*
X21416665Y-7967380D02*
X21369046Y-8015000D01*
X21369046Y-8015000D02*
X21273808Y-8062619D01*
X21273808Y-8062619D02*
X21178570Y-8062619D01*
X21178570Y-8062619D02*
X21083332Y-8015000D01*
X21083332Y-8015000D02*
X21035713Y-7967380D01*
X21035713Y-7967380D02*
X20988094Y-7872142D01*
X20988094Y-7872142D02*
X20940475Y-7681666D01*
X20940475Y-7681666D02*
X20940475Y-7443571D01*
X20940475Y-7443571D02*
X20988094Y-7253095D01*
X20988094Y-7253095D02*
X21035713Y-7157857D01*
X21035713Y-7157857D02*
X21083332Y-7110238D01*
X21083332Y-7110238D02*
X21178570Y-7062619D01*
%TO.C,C1*%
X115333333Y-21117380D02*
X115285714Y-21165000D01*
X115285714Y-21165000D02*
X115142857Y-21212619D01*
X115142857Y-21212619D02*
X115047619Y-21212619D01*
X115047619Y-21212619D02*
X114904762Y-21165000D01*
X114904762Y-21165000D02*
X114809524Y-21069761D01*
X114809524Y-21069761D02*
X114761905Y-20974523D01*
X114761905Y-20974523D02*
X114714286Y-20784047D01*
X114714286Y-20784047D02*
X114714286Y-20641190D01*
X114714286Y-20641190D02*
X114761905Y-20450714D01*
X114761905Y-20450714D02*
X114809524Y-20355476D01*
X114809524Y-20355476D02*
X114904762Y-20260238D01*
X114904762Y-20260238D02*
X115047619Y-20212619D01*
X115047619Y-20212619D02*
X115142857Y-20212619D01*
X115142857Y-20212619D02*
X115285714Y-20260238D01*
X115285714Y-20260238D02*
X115333333Y-20307857D01*
X116285714Y-21212619D02*
X115714286Y-21212619D01*
X116000000Y-21212619D02*
X116000000Y-20212619D01*
X116000000Y-20212619D02*
X115904762Y-20355476D01*
X115904762Y-20355476D02*
X115809524Y-20450714D01*
X115809524Y-20450714D02*
X115714286Y-20498333D01*
%TO.C,C7*%
X131833333Y-26367380D02*
X131785714Y-26415000D01*
X131785714Y-26415000D02*
X131642857Y-26462619D01*
X131642857Y-26462619D02*
X131547619Y-26462619D01*
X131547619Y-26462619D02*
X131404762Y-26415000D01*
X131404762Y-26415000D02*
X131309524Y-26319761D01*
X131309524Y-26319761D02*
X131261905Y-26224523D01*
X131261905Y-26224523D02*
X131214286Y-26034047D01*
X131214286Y-26034047D02*
X131214286Y-25891190D01*
X131214286Y-25891190D02*
X131261905Y-25700714D01*
X131261905Y-25700714D02*
X131309524Y-25605476D01*
X131309524Y-25605476D02*
X131404762Y-25510238D01*
X131404762Y-25510238D02*
X131547619Y-25462619D01*
X131547619Y-25462619D02*
X131642857Y-25462619D01*
X131642857Y-25462619D02*
X131785714Y-25510238D01*
X131785714Y-25510238D02*
X131833333Y-25557857D01*
X132166667Y-25462619D02*
X132833333Y-25462619D01*
X132833333Y-25462619D02*
X132404762Y-26462619D01*
%TO.C,Q9*%
X39404761Y-17307857D02*
X39309523Y-17260238D01*
X39309523Y-17260238D02*
X39214285Y-17165000D01*
X39214285Y-17165000D02*
X39071428Y-17022142D01*
X39071428Y-17022142D02*
X38976190Y-16974523D01*
X38976190Y-16974523D02*
X38880952Y-16974523D01*
X38928571Y-17212619D02*
X38833333Y-17165000D01*
X38833333Y-17165000D02*
X38738095Y-17069761D01*
X38738095Y-17069761D02*
X38690476Y-16879285D01*
X38690476Y-16879285D02*
X38690476Y-16545952D01*
X38690476Y-16545952D02*
X38738095Y-16355476D01*
X38738095Y-16355476D02*
X38833333Y-16260238D01*
X38833333Y-16260238D02*
X38928571Y-16212619D01*
X38928571Y-16212619D02*
X39119047Y-16212619D01*
X39119047Y-16212619D02*
X39214285Y-16260238D01*
X39214285Y-16260238D02*
X39309523Y-16355476D01*
X39309523Y-16355476D02*
X39357142Y-16545952D01*
X39357142Y-16545952D02*
X39357142Y-16879285D01*
X39357142Y-16879285D02*
X39309523Y-17069761D01*
X39309523Y-17069761D02*
X39214285Y-17165000D01*
X39214285Y-17165000D02*
X39119047Y-17212619D01*
X39119047Y-17212619D02*
X38928571Y-17212619D01*
X39833333Y-17212619D02*
X40023809Y-17212619D01*
X40023809Y-17212619D02*
X40119047Y-17165000D01*
X40119047Y-17165000D02*
X40166666Y-17117380D01*
X40166666Y-17117380D02*
X40261904Y-16974523D01*
X40261904Y-16974523D02*
X40309523Y-16784047D01*
X40309523Y-16784047D02*
X40309523Y-16403095D01*
X40309523Y-16403095D02*
X40261904Y-16307857D01*
X40261904Y-16307857D02*
X40214285Y-16260238D01*
X40214285Y-16260238D02*
X40119047Y-16212619D01*
X40119047Y-16212619D02*
X39928571Y-16212619D01*
X39928571Y-16212619D02*
X39833333Y-16260238D01*
X39833333Y-16260238D02*
X39785714Y-16307857D01*
X39785714Y-16307857D02*
X39738095Y-16403095D01*
X39738095Y-16403095D02*
X39738095Y-16641190D01*
X39738095Y-16641190D02*
X39785714Y-16736428D01*
X39785714Y-16736428D02*
X39833333Y-16784047D01*
X39833333Y-16784047D02*
X39928571Y-16831666D01*
X39928571Y-16831666D02*
X40119047Y-16831666D01*
X40119047Y-16831666D02*
X40214285Y-16784047D01*
X40214285Y-16784047D02*
X40261904Y-16736428D01*
X40261904Y-16736428D02*
X40309523Y-16641190D01*
%TO.C,U4*%
X137088095Y-27812619D02*
X137088095Y-28622142D01*
X137088095Y-28622142D02*
X137135714Y-28717380D01*
X137135714Y-28717380D02*
X137183333Y-28765000D01*
X137183333Y-28765000D02*
X137278571Y-28812619D01*
X137278571Y-28812619D02*
X137469047Y-28812619D01*
X137469047Y-28812619D02*
X137564285Y-28765000D01*
X137564285Y-28765000D02*
X137611904Y-28717380D01*
X137611904Y-28717380D02*
X137659523Y-28622142D01*
X137659523Y-28622142D02*
X137659523Y-27812619D01*
X138564285Y-28145952D02*
X138564285Y-28812619D01*
X138326190Y-27765000D02*
X138088095Y-28479285D01*
X138088095Y-28479285D02*
X138707142Y-28479285D01*
%TO.C,C4*%
X136833333Y-26367380D02*
X136785714Y-26415000D01*
X136785714Y-26415000D02*
X136642857Y-26462619D01*
X136642857Y-26462619D02*
X136547619Y-26462619D01*
X136547619Y-26462619D02*
X136404762Y-26415000D01*
X136404762Y-26415000D02*
X136309524Y-26319761D01*
X136309524Y-26319761D02*
X136261905Y-26224523D01*
X136261905Y-26224523D02*
X136214286Y-26034047D01*
X136214286Y-26034047D02*
X136214286Y-25891190D01*
X136214286Y-25891190D02*
X136261905Y-25700714D01*
X136261905Y-25700714D02*
X136309524Y-25605476D01*
X136309524Y-25605476D02*
X136404762Y-25510238D01*
X136404762Y-25510238D02*
X136547619Y-25462619D01*
X136547619Y-25462619D02*
X136642857Y-25462619D01*
X136642857Y-25462619D02*
X136785714Y-25510238D01*
X136785714Y-25510238D02*
X136833333Y-25557857D01*
X137690476Y-25795952D02*
X137690476Y-26462619D01*
X137452381Y-25415000D02*
X137214286Y-26129285D01*
X137214286Y-26129285D02*
X137833333Y-26129285D01*
%TO.C,Q7*%
X49654761Y-17307857D02*
X49559523Y-17260238D01*
X49559523Y-17260238D02*
X49464285Y-17165000D01*
X49464285Y-17165000D02*
X49321428Y-17022142D01*
X49321428Y-17022142D02*
X49226190Y-16974523D01*
X49226190Y-16974523D02*
X49130952Y-16974523D01*
X49178571Y-17212619D02*
X49083333Y-17165000D01*
X49083333Y-17165000D02*
X48988095Y-17069761D01*
X48988095Y-17069761D02*
X48940476Y-16879285D01*
X48940476Y-16879285D02*
X48940476Y-16545952D01*
X48940476Y-16545952D02*
X48988095Y-16355476D01*
X48988095Y-16355476D02*
X49083333Y-16260238D01*
X49083333Y-16260238D02*
X49178571Y-16212619D01*
X49178571Y-16212619D02*
X49369047Y-16212619D01*
X49369047Y-16212619D02*
X49464285Y-16260238D01*
X49464285Y-16260238D02*
X49559523Y-16355476D01*
X49559523Y-16355476D02*
X49607142Y-16545952D01*
X49607142Y-16545952D02*
X49607142Y-16879285D01*
X49607142Y-16879285D02*
X49559523Y-17069761D01*
X49559523Y-17069761D02*
X49464285Y-17165000D01*
X49464285Y-17165000D02*
X49369047Y-17212619D01*
X49369047Y-17212619D02*
X49178571Y-17212619D01*
X49940476Y-16212619D02*
X50607142Y-16212619D01*
X50607142Y-16212619D02*
X50178571Y-17212619D01*
%TO.C,R15*%
X12842619Y-22392857D02*
X12366428Y-22726190D01*
X12842619Y-22964285D02*
X11842619Y-22964285D01*
X11842619Y-22964285D02*
X11842619Y-22583333D01*
X11842619Y-22583333D02*
X11890238Y-22488095D01*
X11890238Y-22488095D02*
X11937857Y-22440476D01*
X11937857Y-22440476D02*
X12033095Y-22392857D01*
X12033095Y-22392857D02*
X12175952Y-22392857D01*
X12175952Y-22392857D02*
X12271190Y-22440476D01*
X12271190Y-22440476D02*
X12318809Y-22488095D01*
X12318809Y-22488095D02*
X12366428Y-22583333D01*
X12366428Y-22583333D02*
X12366428Y-22964285D01*
X12842619Y-21440476D02*
X12842619Y-22011904D01*
X12842619Y-21726190D02*
X11842619Y-21726190D01*
X11842619Y-21726190D02*
X11985476Y-21821428D01*
X11985476Y-21821428D02*
X12080714Y-21916666D01*
X12080714Y-21916666D02*
X12128333Y-22011904D01*
X11842619Y-20535714D02*
X11842619Y-21011904D01*
X11842619Y-21011904D02*
X12318809Y-21059523D01*
X12318809Y-21059523D02*
X12271190Y-21011904D01*
X12271190Y-21011904D02*
X12223571Y-20916666D01*
X12223571Y-20916666D02*
X12223571Y-20678571D01*
X12223571Y-20678571D02*
X12271190Y-20583333D01*
X12271190Y-20583333D02*
X12318809Y-20535714D01*
X12318809Y-20535714D02*
X12414047Y-20488095D01*
X12414047Y-20488095D02*
X12652142Y-20488095D01*
X12652142Y-20488095D02*
X12747380Y-20535714D01*
X12747380Y-20535714D02*
X12795000Y-20583333D01*
X12795000Y-20583333D02*
X12842619Y-20678571D01*
X12842619Y-20678571D02*
X12842619Y-20916666D01*
X12842619Y-20916666D02*
X12795000Y-21011904D01*
X12795000Y-21011904D02*
X12747380Y-21059523D01*
%TO.C,R27*%
X39030119Y-22392857D02*
X38553928Y-22726190D01*
X39030119Y-22964285D02*
X38030119Y-22964285D01*
X38030119Y-22964285D02*
X38030119Y-22583333D01*
X38030119Y-22583333D02*
X38077738Y-22488095D01*
X38077738Y-22488095D02*
X38125357Y-22440476D01*
X38125357Y-22440476D02*
X38220595Y-22392857D01*
X38220595Y-22392857D02*
X38363452Y-22392857D01*
X38363452Y-22392857D02*
X38458690Y-22440476D01*
X38458690Y-22440476D02*
X38506309Y-22488095D01*
X38506309Y-22488095D02*
X38553928Y-22583333D01*
X38553928Y-22583333D02*
X38553928Y-22964285D01*
X38125357Y-22011904D02*
X38077738Y-21964285D01*
X38077738Y-21964285D02*
X38030119Y-21869047D01*
X38030119Y-21869047D02*
X38030119Y-21630952D01*
X38030119Y-21630952D02*
X38077738Y-21535714D01*
X38077738Y-21535714D02*
X38125357Y-21488095D01*
X38125357Y-21488095D02*
X38220595Y-21440476D01*
X38220595Y-21440476D02*
X38315833Y-21440476D01*
X38315833Y-21440476D02*
X38458690Y-21488095D01*
X38458690Y-21488095D02*
X39030119Y-22059523D01*
X39030119Y-22059523D02*
X39030119Y-21440476D01*
X38030119Y-21107142D02*
X38030119Y-20440476D01*
X38030119Y-20440476D02*
X39030119Y-20869047D01*
%TO.C,R2*%
X38462619Y-11916666D02*
X37986428Y-12249999D01*
X38462619Y-12488094D02*
X37462619Y-12488094D01*
X37462619Y-12488094D02*
X37462619Y-12107142D01*
X37462619Y-12107142D02*
X37510238Y-12011904D01*
X37510238Y-12011904D02*
X37557857Y-11964285D01*
X37557857Y-11964285D02*
X37653095Y-11916666D01*
X37653095Y-11916666D02*
X37795952Y-11916666D01*
X37795952Y-11916666D02*
X37891190Y-11964285D01*
X37891190Y-11964285D02*
X37938809Y-12011904D01*
X37938809Y-12011904D02*
X37986428Y-12107142D01*
X37986428Y-12107142D02*
X37986428Y-12488094D01*
X37557857Y-11535713D02*
X37510238Y-11488094D01*
X37510238Y-11488094D02*
X37462619Y-11392856D01*
X37462619Y-11392856D02*
X37462619Y-11154761D01*
X37462619Y-11154761D02*
X37510238Y-11059523D01*
X37510238Y-11059523D02*
X37557857Y-11011904D01*
X37557857Y-11011904D02*
X37653095Y-10964285D01*
X37653095Y-10964285D02*
X37748333Y-10964285D01*
X37748333Y-10964285D02*
X37891190Y-11011904D01*
X37891190Y-11011904D02*
X38462619Y-11583332D01*
X38462619Y-11583332D02*
X38462619Y-10964285D01*
%TO.C,U1*%
X34400120Y-40261904D02*
X35209643Y-40261904D01*
X35209643Y-40261904D02*
X35304881Y-40214285D01*
X35304881Y-40214285D02*
X35352501Y-40166666D01*
X35352501Y-40166666D02*
X35400120Y-40071428D01*
X35400120Y-40071428D02*
X35400120Y-39880952D01*
X35400120Y-39880952D02*
X35352501Y-39785714D01*
X35352501Y-39785714D02*
X35304881Y-39738095D01*
X35304881Y-39738095D02*
X35209643Y-39690476D01*
X35209643Y-39690476D02*
X34400120Y-39690476D01*
X35400120Y-38690476D02*
X35400120Y-39261904D01*
X35400120Y-38976190D02*
X34400120Y-38976190D01*
X34400120Y-38976190D02*
X34542977Y-39071428D01*
X34542977Y-39071428D02*
X34638215Y-39166666D01*
X34638215Y-39166666D02*
X34685834Y-39261904D01*
%TO.C,R9*%
X23280120Y-21916666D02*
X22803929Y-22249999D01*
X23280120Y-22488094D02*
X22280120Y-22488094D01*
X22280120Y-22488094D02*
X22280120Y-22107142D01*
X22280120Y-22107142D02*
X22327739Y-22011904D01*
X22327739Y-22011904D02*
X22375358Y-21964285D01*
X22375358Y-21964285D02*
X22470596Y-21916666D01*
X22470596Y-21916666D02*
X22613453Y-21916666D01*
X22613453Y-21916666D02*
X22708691Y-21964285D01*
X22708691Y-21964285D02*
X22756310Y-22011904D01*
X22756310Y-22011904D02*
X22803929Y-22107142D01*
X22803929Y-22107142D02*
X22803929Y-22488094D01*
X23280120Y-21440475D02*
X23280120Y-21249999D01*
X23280120Y-21249999D02*
X23232501Y-21154761D01*
X23232501Y-21154761D02*
X23184881Y-21107142D01*
X23184881Y-21107142D02*
X23042024Y-21011904D01*
X23042024Y-21011904D02*
X22851548Y-20964285D01*
X22851548Y-20964285D02*
X22470596Y-20964285D01*
X22470596Y-20964285D02*
X22375358Y-21011904D01*
X22375358Y-21011904D02*
X22327739Y-21059523D01*
X22327739Y-21059523D02*
X22280120Y-21154761D01*
X22280120Y-21154761D02*
X22280120Y-21345237D01*
X22280120Y-21345237D02*
X22327739Y-21440475D01*
X22327739Y-21440475D02*
X22375358Y-21488094D01*
X22375358Y-21488094D02*
X22470596Y-21535713D01*
X22470596Y-21535713D02*
X22708691Y-21535713D01*
X22708691Y-21535713D02*
X22803929Y-21488094D01*
X22803929Y-21488094D02*
X22851548Y-21440475D01*
X22851548Y-21440475D02*
X22899167Y-21345237D01*
X22899167Y-21345237D02*
X22899167Y-21154761D01*
X22899167Y-21154761D02*
X22851548Y-21059523D01*
X22851548Y-21059523D02*
X22803929Y-21011904D01*
X22803929Y-21011904D02*
X22708691Y-20964285D01*
%TO.C,R28*%
X128857142Y-6712619D02*
X128523809Y-6236428D01*
X128285714Y-6712619D02*
X128285714Y-5712619D01*
X128285714Y-5712619D02*
X128666666Y-5712619D01*
X128666666Y-5712619D02*
X128761904Y-5760238D01*
X128761904Y-5760238D02*
X128809523Y-5807857D01*
X128809523Y-5807857D02*
X128857142Y-5903095D01*
X128857142Y-5903095D02*
X128857142Y-6045952D01*
X128857142Y-6045952D02*
X128809523Y-6141190D01*
X128809523Y-6141190D02*
X128761904Y-6188809D01*
X128761904Y-6188809D02*
X128666666Y-6236428D01*
X128666666Y-6236428D02*
X128285714Y-6236428D01*
X129238095Y-5807857D02*
X129285714Y-5760238D01*
X129285714Y-5760238D02*
X129380952Y-5712619D01*
X129380952Y-5712619D02*
X129619047Y-5712619D01*
X129619047Y-5712619D02*
X129714285Y-5760238D01*
X129714285Y-5760238D02*
X129761904Y-5807857D01*
X129761904Y-5807857D02*
X129809523Y-5903095D01*
X129809523Y-5903095D02*
X129809523Y-5998333D01*
X129809523Y-5998333D02*
X129761904Y-6141190D01*
X129761904Y-6141190D02*
X129190476Y-6712619D01*
X129190476Y-6712619D02*
X129809523Y-6712619D01*
X130380952Y-6141190D02*
X130285714Y-6093571D01*
X130285714Y-6093571D02*
X130238095Y-6045952D01*
X130238095Y-6045952D02*
X130190476Y-5950714D01*
X130190476Y-5950714D02*
X130190476Y-5903095D01*
X130190476Y-5903095D02*
X130238095Y-5807857D01*
X130238095Y-5807857D02*
X130285714Y-5760238D01*
X130285714Y-5760238D02*
X130380952Y-5712619D01*
X130380952Y-5712619D02*
X130571428Y-5712619D01*
X130571428Y-5712619D02*
X130666666Y-5760238D01*
X130666666Y-5760238D02*
X130714285Y-5807857D01*
X130714285Y-5807857D02*
X130761904Y-5903095D01*
X130761904Y-5903095D02*
X130761904Y-5950714D01*
X130761904Y-5950714D02*
X130714285Y-6045952D01*
X130714285Y-6045952D02*
X130666666Y-6093571D01*
X130666666Y-6093571D02*
X130571428Y-6141190D01*
X130571428Y-6141190D02*
X130380952Y-6141190D01*
X130380952Y-6141190D02*
X130285714Y-6188809D01*
X130285714Y-6188809D02*
X130238095Y-6236428D01*
X130238095Y-6236428D02*
X130190476Y-6331666D01*
X130190476Y-6331666D02*
X130190476Y-6522142D01*
X130190476Y-6522142D02*
X130238095Y-6617380D01*
X130238095Y-6617380D02*
X130285714Y-6665000D01*
X130285714Y-6665000D02*
X130380952Y-6712619D01*
X130380952Y-6712619D02*
X130571428Y-6712619D01*
X130571428Y-6712619D02*
X130666666Y-6665000D01*
X130666666Y-6665000D02*
X130714285Y-6617380D01*
X130714285Y-6617380D02*
X130761904Y-6522142D01*
X130761904Y-6522142D02*
X130761904Y-6331666D01*
X130761904Y-6331666D02*
X130714285Y-6236428D01*
X130714285Y-6236428D02*
X130666666Y-6188809D01*
X130666666Y-6188809D02*
X130571428Y-6141190D01*
%TO.C,J1*%
X25166666Y-32212619D02*
X25166666Y-32926904D01*
X25166666Y-32926904D02*
X25119047Y-33069761D01*
X25119047Y-33069761D02*
X25023809Y-33165000D01*
X25023809Y-33165000D02*
X24880952Y-33212619D01*
X24880952Y-33212619D02*
X24785714Y-33212619D01*
X26166666Y-33212619D02*
X25595238Y-33212619D01*
X25880952Y-33212619D02*
X25880952Y-32212619D01*
X25880952Y-32212619D02*
X25785714Y-32355476D01*
X25785714Y-32355476D02*
X25690476Y-32450714D01*
X25690476Y-32450714D02*
X25595238Y-32498333D01*
%TO.C,R6*%
X28280120Y-21916666D02*
X27803929Y-22249999D01*
X28280120Y-22488094D02*
X27280120Y-22488094D01*
X27280120Y-22488094D02*
X27280120Y-22107142D01*
X27280120Y-22107142D02*
X27327739Y-22011904D01*
X27327739Y-22011904D02*
X27375358Y-21964285D01*
X27375358Y-21964285D02*
X27470596Y-21916666D01*
X27470596Y-21916666D02*
X27613453Y-21916666D01*
X27613453Y-21916666D02*
X27708691Y-21964285D01*
X27708691Y-21964285D02*
X27756310Y-22011904D01*
X27756310Y-22011904D02*
X27803929Y-22107142D01*
X27803929Y-22107142D02*
X27803929Y-22488094D01*
X27280120Y-21059523D02*
X27280120Y-21249999D01*
X27280120Y-21249999D02*
X27327739Y-21345237D01*
X27327739Y-21345237D02*
X27375358Y-21392856D01*
X27375358Y-21392856D02*
X27518215Y-21488094D01*
X27518215Y-21488094D02*
X27708691Y-21535713D01*
X27708691Y-21535713D02*
X28089643Y-21535713D01*
X28089643Y-21535713D02*
X28184881Y-21488094D01*
X28184881Y-21488094D02*
X28232501Y-21440475D01*
X28232501Y-21440475D02*
X28280120Y-21345237D01*
X28280120Y-21345237D02*
X28280120Y-21154761D01*
X28280120Y-21154761D02*
X28232501Y-21059523D01*
X28232501Y-21059523D02*
X28184881Y-21011904D01*
X28184881Y-21011904D02*
X28089643Y-20964285D01*
X28089643Y-20964285D02*
X27851548Y-20964285D01*
X27851548Y-20964285D02*
X27756310Y-21011904D01*
X27756310Y-21011904D02*
X27708691Y-21059523D01*
X27708691Y-21059523D02*
X27661072Y-21154761D01*
X27661072Y-21154761D02*
X27661072Y-21345237D01*
X27661072Y-21345237D02*
X27708691Y-21440475D01*
X27708691Y-21440475D02*
X27756310Y-21488094D01*
X27756310Y-21488094D02*
X27851548Y-21535713D01*
%TO.C,R8*%
X28212619Y-11666666D02*
X27736428Y-11999999D01*
X28212619Y-12238094D02*
X27212619Y-12238094D01*
X27212619Y-12238094D02*
X27212619Y-11857142D01*
X27212619Y-11857142D02*
X27260238Y-11761904D01*
X27260238Y-11761904D02*
X27307857Y-11714285D01*
X27307857Y-11714285D02*
X27403095Y-11666666D01*
X27403095Y-11666666D02*
X27545952Y-11666666D01*
X27545952Y-11666666D02*
X27641190Y-11714285D01*
X27641190Y-11714285D02*
X27688809Y-11761904D01*
X27688809Y-11761904D02*
X27736428Y-11857142D01*
X27736428Y-11857142D02*
X27736428Y-12238094D01*
X27641190Y-11095237D02*
X27593571Y-11190475D01*
X27593571Y-11190475D02*
X27545952Y-11238094D01*
X27545952Y-11238094D02*
X27450714Y-11285713D01*
X27450714Y-11285713D02*
X27403095Y-11285713D01*
X27403095Y-11285713D02*
X27307857Y-11238094D01*
X27307857Y-11238094D02*
X27260238Y-11190475D01*
X27260238Y-11190475D02*
X27212619Y-11095237D01*
X27212619Y-11095237D02*
X27212619Y-10904761D01*
X27212619Y-10904761D02*
X27260238Y-10809523D01*
X27260238Y-10809523D02*
X27307857Y-10761904D01*
X27307857Y-10761904D02*
X27403095Y-10714285D01*
X27403095Y-10714285D02*
X27450714Y-10714285D01*
X27450714Y-10714285D02*
X27545952Y-10761904D01*
X27545952Y-10761904D02*
X27593571Y-10809523D01*
X27593571Y-10809523D02*
X27641190Y-10904761D01*
X27641190Y-10904761D02*
X27641190Y-11095237D01*
X27641190Y-11095237D02*
X27688809Y-11190475D01*
X27688809Y-11190475D02*
X27736428Y-11238094D01*
X27736428Y-11238094D02*
X27831666Y-11285713D01*
X27831666Y-11285713D02*
X28022142Y-11285713D01*
X28022142Y-11285713D02*
X28117380Y-11238094D01*
X28117380Y-11238094D02*
X28165000Y-11190475D01*
X28165000Y-11190475D02*
X28212619Y-11095237D01*
X28212619Y-11095237D02*
X28212619Y-10904761D01*
X28212619Y-10904761D02*
X28165000Y-10809523D01*
X28165000Y-10809523D02*
X28117380Y-10761904D01*
X28117380Y-10761904D02*
X28022142Y-10714285D01*
X28022142Y-10714285D02*
X27831666Y-10714285D01*
X27831666Y-10714285D02*
X27736428Y-10761904D01*
X27736428Y-10761904D02*
X27688809Y-10809523D01*
X27688809Y-10809523D02*
X27641190Y-10904761D01*
%TO.C,J4*%
X40916666Y-32212619D02*
X40916666Y-32926904D01*
X40916666Y-32926904D02*
X40869047Y-33069761D01*
X40869047Y-33069761D02*
X40773809Y-33165000D01*
X40773809Y-33165000D02*
X40630952Y-33212619D01*
X40630952Y-33212619D02*
X40535714Y-33212619D01*
X41821428Y-32545952D02*
X41821428Y-33212619D01*
X41583333Y-32165000D02*
X41345238Y-32879285D01*
X41345238Y-32879285D02*
X41964285Y-32879285D01*
%TO.C,R29*%
X134607142Y-18812619D02*
X134273809Y-18336428D01*
X134035714Y-18812619D02*
X134035714Y-17812619D01*
X134035714Y-17812619D02*
X134416666Y-17812619D01*
X134416666Y-17812619D02*
X134511904Y-17860238D01*
X134511904Y-17860238D02*
X134559523Y-17907857D01*
X134559523Y-17907857D02*
X134607142Y-18003095D01*
X134607142Y-18003095D02*
X134607142Y-18145952D01*
X134607142Y-18145952D02*
X134559523Y-18241190D01*
X134559523Y-18241190D02*
X134511904Y-18288809D01*
X134511904Y-18288809D02*
X134416666Y-18336428D01*
X134416666Y-18336428D02*
X134035714Y-18336428D01*
X134988095Y-17907857D02*
X135035714Y-17860238D01*
X135035714Y-17860238D02*
X135130952Y-17812619D01*
X135130952Y-17812619D02*
X135369047Y-17812619D01*
X135369047Y-17812619D02*
X135464285Y-17860238D01*
X135464285Y-17860238D02*
X135511904Y-17907857D01*
X135511904Y-17907857D02*
X135559523Y-18003095D01*
X135559523Y-18003095D02*
X135559523Y-18098333D01*
X135559523Y-18098333D02*
X135511904Y-18241190D01*
X135511904Y-18241190D02*
X134940476Y-18812619D01*
X134940476Y-18812619D02*
X135559523Y-18812619D01*
X136035714Y-18812619D02*
X136226190Y-18812619D01*
X136226190Y-18812619D02*
X136321428Y-18765000D01*
X136321428Y-18765000D02*
X136369047Y-18717380D01*
X136369047Y-18717380D02*
X136464285Y-18574523D01*
X136464285Y-18574523D02*
X136511904Y-18384047D01*
X136511904Y-18384047D02*
X136511904Y-18003095D01*
X136511904Y-18003095D02*
X136464285Y-17907857D01*
X136464285Y-17907857D02*
X136416666Y-17860238D01*
X136416666Y-17860238D02*
X136321428Y-17812619D01*
X136321428Y-17812619D02*
X136130952Y-17812619D01*
X136130952Y-17812619D02*
X136035714Y-17860238D01*
X136035714Y-17860238D02*
X135988095Y-17907857D01*
X135988095Y-17907857D02*
X135940476Y-18003095D01*
X135940476Y-18003095D02*
X135940476Y-18241190D01*
X135940476Y-18241190D02*
X135988095Y-18336428D01*
X135988095Y-18336428D02*
X136035714Y-18384047D01*
X136035714Y-18384047D02*
X136130952Y-18431666D01*
X136130952Y-18431666D02*
X136321428Y-18431666D01*
X136321428Y-18431666D02*
X136416666Y-18384047D01*
X136416666Y-18384047D02*
X136464285Y-18336428D01*
X136464285Y-18336428D02*
X136511904Y-18241190D01*
%TO.C,R23*%
X48962619Y-12392857D02*
X48486428Y-12726190D01*
X48962619Y-12964285D02*
X47962619Y-12964285D01*
X47962619Y-12964285D02*
X47962619Y-12583333D01*
X47962619Y-12583333D02*
X48010238Y-12488095D01*
X48010238Y-12488095D02*
X48057857Y-12440476D01*
X48057857Y-12440476D02*
X48153095Y-12392857D01*
X48153095Y-12392857D02*
X48295952Y-12392857D01*
X48295952Y-12392857D02*
X48391190Y-12440476D01*
X48391190Y-12440476D02*
X48438809Y-12488095D01*
X48438809Y-12488095D02*
X48486428Y-12583333D01*
X48486428Y-12583333D02*
X48486428Y-12964285D01*
X48057857Y-12011904D02*
X48010238Y-11964285D01*
X48010238Y-11964285D02*
X47962619Y-11869047D01*
X47962619Y-11869047D02*
X47962619Y-11630952D01*
X47962619Y-11630952D02*
X48010238Y-11535714D01*
X48010238Y-11535714D02*
X48057857Y-11488095D01*
X48057857Y-11488095D02*
X48153095Y-11440476D01*
X48153095Y-11440476D02*
X48248333Y-11440476D01*
X48248333Y-11440476D02*
X48391190Y-11488095D01*
X48391190Y-11488095D02*
X48962619Y-12059523D01*
X48962619Y-12059523D02*
X48962619Y-11440476D01*
X47962619Y-11107142D02*
X47962619Y-10488095D01*
X47962619Y-10488095D02*
X48343571Y-10821428D01*
X48343571Y-10821428D02*
X48343571Y-10678571D01*
X48343571Y-10678571D02*
X48391190Y-10583333D01*
X48391190Y-10583333D02*
X48438809Y-10535714D01*
X48438809Y-10535714D02*
X48534047Y-10488095D01*
X48534047Y-10488095D02*
X48772142Y-10488095D01*
X48772142Y-10488095D02*
X48867380Y-10535714D01*
X48867380Y-10535714D02*
X48915000Y-10583333D01*
X48915000Y-10583333D02*
X48962619Y-10678571D01*
X48962619Y-10678571D02*
X48962619Y-10964285D01*
X48962619Y-10964285D02*
X48915000Y-11059523D01*
X48915000Y-11059523D02*
X48867380Y-11107142D01*
%TO.C,C8*%
X128833333Y-35117380D02*
X128785714Y-35165000D01*
X128785714Y-35165000D02*
X128642857Y-35212619D01*
X128642857Y-35212619D02*
X128547619Y-35212619D01*
X128547619Y-35212619D02*
X128404762Y-35165000D01*
X128404762Y-35165000D02*
X128309524Y-35069761D01*
X128309524Y-35069761D02*
X128261905Y-34974523D01*
X128261905Y-34974523D02*
X128214286Y-34784047D01*
X128214286Y-34784047D02*
X128214286Y-34641190D01*
X128214286Y-34641190D02*
X128261905Y-34450714D01*
X128261905Y-34450714D02*
X128309524Y-34355476D01*
X128309524Y-34355476D02*
X128404762Y-34260238D01*
X128404762Y-34260238D02*
X128547619Y-34212619D01*
X128547619Y-34212619D02*
X128642857Y-34212619D01*
X128642857Y-34212619D02*
X128785714Y-34260238D01*
X128785714Y-34260238D02*
X128833333Y-34307857D01*
X129404762Y-34641190D02*
X129309524Y-34593571D01*
X129309524Y-34593571D02*
X129261905Y-34545952D01*
X129261905Y-34545952D02*
X129214286Y-34450714D01*
X129214286Y-34450714D02*
X129214286Y-34403095D01*
X129214286Y-34403095D02*
X129261905Y-34307857D01*
X129261905Y-34307857D02*
X129309524Y-34260238D01*
X129309524Y-34260238D02*
X129404762Y-34212619D01*
X129404762Y-34212619D02*
X129595238Y-34212619D01*
X129595238Y-34212619D02*
X129690476Y-34260238D01*
X129690476Y-34260238D02*
X129738095Y-34307857D01*
X129738095Y-34307857D02*
X129785714Y-34403095D01*
X129785714Y-34403095D02*
X129785714Y-34450714D01*
X129785714Y-34450714D02*
X129738095Y-34545952D01*
X129738095Y-34545952D02*
X129690476Y-34593571D01*
X129690476Y-34593571D02*
X129595238Y-34641190D01*
X129595238Y-34641190D02*
X129404762Y-34641190D01*
X129404762Y-34641190D02*
X129309524Y-34688809D01*
X129309524Y-34688809D02*
X129261905Y-34736428D01*
X129261905Y-34736428D02*
X129214286Y-34831666D01*
X129214286Y-34831666D02*
X129214286Y-35022142D01*
X129214286Y-35022142D02*
X129261905Y-35117380D01*
X129261905Y-35117380D02*
X129309524Y-35165000D01*
X129309524Y-35165000D02*
X129404762Y-35212619D01*
X129404762Y-35212619D02*
X129595238Y-35212619D01*
X129595238Y-35212619D02*
X129690476Y-35165000D01*
X129690476Y-35165000D02*
X129738095Y-35117380D01*
X129738095Y-35117380D02*
X129785714Y-35022142D01*
X129785714Y-35022142D02*
X129785714Y-34831666D01*
X129785714Y-34831666D02*
X129738095Y-34736428D01*
X129738095Y-34736428D02*
X129690476Y-34688809D01*
X129690476Y-34688809D02*
X129595238Y-34641190D01*
%TO.C,Y1*%
X115023809Y-16736428D02*
X115023809Y-17212619D01*
X114690476Y-16212619D02*
X115023809Y-16736428D01*
X115023809Y-16736428D02*
X115357142Y-16212619D01*
X116214285Y-17212619D02*
X115642857Y-17212619D01*
X115928571Y-17212619D02*
X115928571Y-16212619D01*
X115928571Y-16212619D02*
X115833333Y-16355476D01*
X115833333Y-16355476D02*
X115738095Y-16450714D01*
X115738095Y-16450714D02*
X115642857Y-16498333D01*
%TO.C,J5*%
X135816666Y-13547619D02*
X135816666Y-14261904D01*
X135816666Y-14261904D02*
X135769047Y-14404761D01*
X135769047Y-14404761D02*
X135673809Y-14500000D01*
X135673809Y-14500000D02*
X135530952Y-14547619D01*
X135530952Y-14547619D02*
X135435714Y-14547619D01*
X136769047Y-13547619D02*
X136292857Y-13547619D01*
X136292857Y-13547619D02*
X136245238Y-14023809D01*
X136245238Y-14023809D02*
X136292857Y-13976190D01*
X136292857Y-13976190D02*
X136388095Y-13928571D01*
X136388095Y-13928571D02*
X136626190Y-13928571D01*
X136626190Y-13928571D02*
X136721428Y-13976190D01*
X136721428Y-13976190D02*
X136769047Y-14023809D01*
X136769047Y-14023809D02*
X136816666Y-14119047D01*
X136816666Y-14119047D02*
X136816666Y-14357142D01*
X136816666Y-14357142D02*
X136769047Y-14452380D01*
X136769047Y-14452380D02*
X136721428Y-14500000D01*
X136721428Y-14500000D02*
X136626190Y-14547619D01*
X136626190Y-14547619D02*
X136388095Y-14547619D01*
X136388095Y-14547619D02*
X136292857Y-14500000D01*
X136292857Y-14500000D02*
X136245238Y-14452380D01*
%TO.C,C2*%
X115333333Y-14367380D02*
X115285714Y-14415000D01*
X115285714Y-14415000D02*
X115142857Y-14462619D01*
X115142857Y-14462619D02*
X115047619Y-14462619D01*
X115047619Y-14462619D02*
X114904762Y-14415000D01*
X114904762Y-14415000D02*
X114809524Y-14319761D01*
X114809524Y-14319761D02*
X114761905Y-14224523D01*
X114761905Y-14224523D02*
X114714286Y-14034047D01*
X114714286Y-14034047D02*
X114714286Y-13891190D01*
X114714286Y-13891190D02*
X114761905Y-13700714D01*
X114761905Y-13700714D02*
X114809524Y-13605476D01*
X114809524Y-13605476D02*
X114904762Y-13510238D01*
X114904762Y-13510238D02*
X115047619Y-13462619D01*
X115047619Y-13462619D02*
X115142857Y-13462619D01*
X115142857Y-13462619D02*
X115285714Y-13510238D01*
X115285714Y-13510238D02*
X115333333Y-13557857D01*
X115714286Y-13557857D02*
X115761905Y-13510238D01*
X115761905Y-13510238D02*
X115857143Y-13462619D01*
X115857143Y-13462619D02*
X116095238Y-13462619D01*
X116095238Y-13462619D02*
X116190476Y-13510238D01*
X116190476Y-13510238D02*
X116238095Y-13557857D01*
X116238095Y-13557857D02*
X116285714Y-13653095D01*
X116285714Y-13653095D02*
X116285714Y-13748333D01*
X116285714Y-13748333D02*
X116238095Y-13891190D01*
X116238095Y-13891190D02*
X115666667Y-14462619D01*
X115666667Y-14462619D02*
X116285714Y-14462619D01*
%TO.C,J6*%
X144916666Y-13382619D02*
X144916666Y-14096904D01*
X144916666Y-14096904D02*
X144869047Y-14239761D01*
X144869047Y-14239761D02*
X144773809Y-14335000D01*
X144773809Y-14335000D02*
X144630952Y-14382619D01*
X144630952Y-14382619D02*
X144535714Y-14382619D01*
X145821428Y-13382619D02*
X145630952Y-13382619D01*
X145630952Y-13382619D02*
X145535714Y-13430238D01*
X145535714Y-13430238D02*
X145488095Y-13477857D01*
X145488095Y-13477857D02*
X145392857Y-13620714D01*
X145392857Y-13620714D02*
X145345238Y-13811190D01*
X145345238Y-13811190D02*
X145345238Y-14192142D01*
X145345238Y-14192142D02*
X145392857Y-14287380D01*
X145392857Y-14287380D02*
X145440476Y-14335000D01*
X145440476Y-14335000D02*
X145535714Y-14382619D01*
X145535714Y-14382619D02*
X145726190Y-14382619D01*
X145726190Y-14382619D02*
X145821428Y-14335000D01*
X145821428Y-14335000D02*
X145869047Y-14287380D01*
X145869047Y-14287380D02*
X145916666Y-14192142D01*
X145916666Y-14192142D02*
X145916666Y-13954047D01*
X145916666Y-13954047D02*
X145869047Y-13858809D01*
X145869047Y-13858809D02*
X145821428Y-13811190D01*
X145821428Y-13811190D02*
X145726190Y-13763571D01*
X145726190Y-13763571D02*
X145535714Y-13763571D01*
X145535714Y-13763571D02*
X145440476Y-13811190D01*
X145440476Y-13811190D02*
X145392857Y-13858809D01*
X145392857Y-13858809D02*
X145345238Y-13954047D01*
%TO.C,R24*%
X44030119Y-22392857D02*
X43553928Y-22726190D01*
X44030119Y-22964285D02*
X43030119Y-22964285D01*
X43030119Y-22964285D02*
X43030119Y-22583333D01*
X43030119Y-22583333D02*
X43077738Y-22488095D01*
X43077738Y-22488095D02*
X43125357Y-22440476D01*
X43125357Y-22440476D02*
X43220595Y-22392857D01*
X43220595Y-22392857D02*
X43363452Y-22392857D01*
X43363452Y-22392857D02*
X43458690Y-22440476D01*
X43458690Y-22440476D02*
X43506309Y-22488095D01*
X43506309Y-22488095D02*
X43553928Y-22583333D01*
X43553928Y-22583333D02*
X43553928Y-22964285D01*
X43125357Y-22011904D02*
X43077738Y-21964285D01*
X43077738Y-21964285D02*
X43030119Y-21869047D01*
X43030119Y-21869047D02*
X43030119Y-21630952D01*
X43030119Y-21630952D02*
X43077738Y-21535714D01*
X43077738Y-21535714D02*
X43125357Y-21488095D01*
X43125357Y-21488095D02*
X43220595Y-21440476D01*
X43220595Y-21440476D02*
X43315833Y-21440476D01*
X43315833Y-21440476D02*
X43458690Y-21488095D01*
X43458690Y-21488095D02*
X44030119Y-22059523D01*
X44030119Y-22059523D02*
X44030119Y-21440476D01*
X43363452Y-20583333D02*
X44030119Y-20583333D01*
X42982500Y-20821428D02*
X43696785Y-21059523D01*
X43696785Y-21059523D02*
X43696785Y-20440476D01*
%TO.C,R26*%
X43712619Y-12642857D02*
X43236428Y-12976190D01*
X43712619Y-13214285D02*
X42712619Y-13214285D01*
X42712619Y-13214285D02*
X42712619Y-12833333D01*
X42712619Y-12833333D02*
X42760238Y-12738095D01*
X42760238Y-12738095D02*
X42807857Y-12690476D01*
X42807857Y-12690476D02*
X42903095Y-12642857D01*
X42903095Y-12642857D02*
X43045952Y-12642857D01*
X43045952Y-12642857D02*
X43141190Y-12690476D01*
X43141190Y-12690476D02*
X43188809Y-12738095D01*
X43188809Y-12738095D02*
X43236428Y-12833333D01*
X43236428Y-12833333D02*
X43236428Y-13214285D01*
X42807857Y-12261904D02*
X42760238Y-12214285D01*
X42760238Y-12214285D02*
X42712619Y-12119047D01*
X42712619Y-12119047D02*
X42712619Y-11880952D01*
X42712619Y-11880952D02*
X42760238Y-11785714D01*
X42760238Y-11785714D02*
X42807857Y-11738095D01*
X42807857Y-11738095D02*
X42903095Y-11690476D01*
X42903095Y-11690476D02*
X42998333Y-11690476D01*
X42998333Y-11690476D02*
X43141190Y-11738095D01*
X43141190Y-11738095D02*
X43712619Y-12309523D01*
X43712619Y-12309523D02*
X43712619Y-11690476D01*
X42712619Y-10833333D02*
X42712619Y-11023809D01*
X42712619Y-11023809D02*
X42760238Y-11119047D01*
X42760238Y-11119047D02*
X42807857Y-11166666D01*
X42807857Y-11166666D02*
X42950714Y-11261904D01*
X42950714Y-11261904D02*
X43141190Y-11309523D01*
X43141190Y-11309523D02*
X43522142Y-11309523D01*
X43522142Y-11309523D02*
X43617380Y-11261904D01*
X43617380Y-11261904D02*
X43665000Y-11214285D01*
X43665000Y-11214285D02*
X43712619Y-11119047D01*
X43712619Y-11119047D02*
X43712619Y-10928571D01*
X43712619Y-10928571D02*
X43665000Y-10833333D01*
X43665000Y-10833333D02*
X43617380Y-10785714D01*
X43617380Y-10785714D02*
X43522142Y-10738095D01*
X43522142Y-10738095D02*
X43284047Y-10738095D01*
X43284047Y-10738095D02*
X43188809Y-10785714D01*
X43188809Y-10785714D02*
X43141190Y-10833333D01*
X43141190Y-10833333D02*
X43093571Y-10928571D01*
X43093571Y-10928571D02*
X43093571Y-11119047D01*
X43093571Y-11119047D02*
X43141190Y-11214285D01*
X43141190Y-11214285D02*
X43188809Y-11261904D01*
X43188809Y-11261904D02*
X43284047Y-11309523D01*
%TO.C,Q8*%
X44404761Y-17307857D02*
X44309523Y-17260238D01*
X44309523Y-17260238D02*
X44214285Y-17165000D01*
X44214285Y-17165000D02*
X44071428Y-17022142D01*
X44071428Y-17022142D02*
X43976190Y-16974523D01*
X43976190Y-16974523D02*
X43880952Y-16974523D01*
X43928571Y-17212619D02*
X43833333Y-17165000D01*
X43833333Y-17165000D02*
X43738095Y-17069761D01*
X43738095Y-17069761D02*
X43690476Y-16879285D01*
X43690476Y-16879285D02*
X43690476Y-16545952D01*
X43690476Y-16545952D02*
X43738095Y-16355476D01*
X43738095Y-16355476D02*
X43833333Y-16260238D01*
X43833333Y-16260238D02*
X43928571Y-16212619D01*
X43928571Y-16212619D02*
X44119047Y-16212619D01*
X44119047Y-16212619D02*
X44214285Y-16260238D01*
X44214285Y-16260238D02*
X44309523Y-16355476D01*
X44309523Y-16355476D02*
X44357142Y-16545952D01*
X44357142Y-16545952D02*
X44357142Y-16879285D01*
X44357142Y-16879285D02*
X44309523Y-17069761D01*
X44309523Y-17069761D02*
X44214285Y-17165000D01*
X44214285Y-17165000D02*
X44119047Y-17212619D01*
X44119047Y-17212619D02*
X43928571Y-17212619D01*
X44928571Y-16641190D02*
X44833333Y-16593571D01*
X44833333Y-16593571D02*
X44785714Y-16545952D01*
X44785714Y-16545952D02*
X44738095Y-16450714D01*
X44738095Y-16450714D02*
X44738095Y-16403095D01*
X44738095Y-16403095D02*
X44785714Y-16307857D01*
X44785714Y-16307857D02*
X44833333Y-16260238D01*
X44833333Y-16260238D02*
X44928571Y-16212619D01*
X44928571Y-16212619D02*
X45119047Y-16212619D01*
X45119047Y-16212619D02*
X45214285Y-16260238D01*
X45214285Y-16260238D02*
X45261904Y-16307857D01*
X45261904Y-16307857D02*
X45309523Y-16403095D01*
X45309523Y-16403095D02*
X45309523Y-16450714D01*
X45309523Y-16450714D02*
X45261904Y-16545952D01*
X45261904Y-16545952D02*
X45214285Y-16593571D01*
X45214285Y-16593571D02*
X45119047Y-16641190D01*
X45119047Y-16641190D02*
X44928571Y-16641190D01*
X44928571Y-16641190D02*
X44833333Y-16688809D01*
X44833333Y-16688809D02*
X44785714Y-16736428D01*
X44785714Y-16736428D02*
X44738095Y-16831666D01*
X44738095Y-16831666D02*
X44738095Y-17022142D01*
X44738095Y-17022142D02*
X44785714Y-17117380D01*
X44785714Y-17117380D02*
X44833333Y-17165000D01*
X44833333Y-17165000D02*
X44928571Y-17212619D01*
X44928571Y-17212619D02*
X45119047Y-17212619D01*
X45119047Y-17212619D02*
X45214285Y-17165000D01*
X45214285Y-17165000D02*
X45261904Y-17117380D01*
X45261904Y-17117380D02*
X45309523Y-17022142D01*
X45309523Y-17022142D02*
X45309523Y-16831666D01*
X45309523Y-16831666D02*
X45261904Y-16736428D01*
X45261904Y-16736428D02*
X45214285Y-16688809D01*
X45214285Y-16688809D02*
X45119047Y-16641190D01*
%TO.C,Q5*%
X13154761Y-17557857D02*
X13059523Y-17510238D01*
X13059523Y-17510238D02*
X12964285Y-17415000D01*
X12964285Y-17415000D02*
X12821428Y-17272142D01*
X12821428Y-17272142D02*
X12726190Y-17224523D01*
X12726190Y-17224523D02*
X12630952Y-17224523D01*
X12678571Y-17462619D02*
X12583333Y-17415000D01*
X12583333Y-17415000D02*
X12488095Y-17319761D01*
X12488095Y-17319761D02*
X12440476Y-17129285D01*
X12440476Y-17129285D02*
X12440476Y-16795952D01*
X12440476Y-16795952D02*
X12488095Y-16605476D01*
X12488095Y-16605476D02*
X12583333Y-16510238D01*
X12583333Y-16510238D02*
X12678571Y-16462619D01*
X12678571Y-16462619D02*
X12869047Y-16462619D01*
X12869047Y-16462619D02*
X12964285Y-16510238D01*
X12964285Y-16510238D02*
X13059523Y-16605476D01*
X13059523Y-16605476D02*
X13107142Y-16795952D01*
X13107142Y-16795952D02*
X13107142Y-17129285D01*
X13107142Y-17129285D02*
X13059523Y-17319761D01*
X13059523Y-17319761D02*
X12964285Y-17415000D01*
X12964285Y-17415000D02*
X12869047Y-17462619D01*
X12869047Y-17462619D02*
X12678571Y-17462619D01*
X14011904Y-16462619D02*
X13535714Y-16462619D01*
X13535714Y-16462619D02*
X13488095Y-16938809D01*
X13488095Y-16938809D02*
X13535714Y-16891190D01*
X13535714Y-16891190D02*
X13630952Y-16843571D01*
X13630952Y-16843571D02*
X13869047Y-16843571D01*
X13869047Y-16843571D02*
X13964285Y-16891190D01*
X13964285Y-16891190D02*
X14011904Y-16938809D01*
X14011904Y-16938809D02*
X14059523Y-17034047D01*
X14059523Y-17034047D02*
X14059523Y-17272142D01*
X14059523Y-17272142D02*
X14011904Y-17367380D01*
X14011904Y-17367380D02*
X13964285Y-17415000D01*
X13964285Y-17415000D02*
X13869047Y-17462619D01*
X13869047Y-17462619D02*
X13630952Y-17462619D01*
X13630952Y-17462619D02*
X13535714Y-17415000D01*
X13535714Y-17415000D02*
X13488095Y-17367380D01*
%TO.C,C3*%
X134333333Y-26367380D02*
X134285714Y-26415000D01*
X134285714Y-26415000D02*
X134142857Y-26462619D01*
X134142857Y-26462619D02*
X134047619Y-26462619D01*
X134047619Y-26462619D02*
X133904762Y-26415000D01*
X133904762Y-26415000D02*
X133809524Y-26319761D01*
X133809524Y-26319761D02*
X133761905Y-26224523D01*
X133761905Y-26224523D02*
X133714286Y-26034047D01*
X133714286Y-26034047D02*
X133714286Y-25891190D01*
X133714286Y-25891190D02*
X133761905Y-25700714D01*
X133761905Y-25700714D02*
X133809524Y-25605476D01*
X133809524Y-25605476D02*
X133904762Y-25510238D01*
X133904762Y-25510238D02*
X134047619Y-25462619D01*
X134047619Y-25462619D02*
X134142857Y-25462619D01*
X134142857Y-25462619D02*
X134285714Y-25510238D01*
X134285714Y-25510238D02*
X134333333Y-25557857D01*
X134666667Y-25462619D02*
X135285714Y-25462619D01*
X135285714Y-25462619D02*
X134952381Y-25843571D01*
X134952381Y-25843571D02*
X135095238Y-25843571D01*
X135095238Y-25843571D02*
X135190476Y-25891190D01*
X135190476Y-25891190D02*
X135238095Y-25938809D01*
X135238095Y-25938809D02*
X135285714Y-26034047D01*
X135285714Y-26034047D02*
X135285714Y-26272142D01*
X135285714Y-26272142D02*
X135238095Y-26367380D01*
X135238095Y-26367380D02*
X135190476Y-26415000D01*
X135190476Y-26415000D02*
X135095238Y-26462619D01*
X135095238Y-26462619D02*
X134809524Y-26462619D01*
X134809524Y-26462619D02*
X134714286Y-26415000D01*
X134714286Y-26415000D02*
X134666667Y-26367380D01*
%TO.C,Q1*%
X33904761Y-17307857D02*
X33809523Y-17260238D01*
X33809523Y-17260238D02*
X33714285Y-17165000D01*
X33714285Y-17165000D02*
X33571428Y-17022142D01*
X33571428Y-17022142D02*
X33476190Y-16974523D01*
X33476190Y-16974523D02*
X33380952Y-16974523D01*
X33428571Y-17212619D02*
X33333333Y-17165000D01*
X33333333Y-17165000D02*
X33238095Y-17069761D01*
X33238095Y-17069761D02*
X33190476Y-16879285D01*
X33190476Y-16879285D02*
X33190476Y-16545952D01*
X33190476Y-16545952D02*
X33238095Y-16355476D01*
X33238095Y-16355476D02*
X33333333Y-16260238D01*
X33333333Y-16260238D02*
X33428571Y-16212619D01*
X33428571Y-16212619D02*
X33619047Y-16212619D01*
X33619047Y-16212619D02*
X33714285Y-16260238D01*
X33714285Y-16260238D02*
X33809523Y-16355476D01*
X33809523Y-16355476D02*
X33857142Y-16545952D01*
X33857142Y-16545952D02*
X33857142Y-16879285D01*
X33857142Y-16879285D02*
X33809523Y-17069761D01*
X33809523Y-17069761D02*
X33714285Y-17165000D01*
X33714285Y-17165000D02*
X33619047Y-17212619D01*
X33619047Y-17212619D02*
X33428571Y-17212619D01*
X34809523Y-17212619D02*
X34238095Y-17212619D01*
X34523809Y-17212619D02*
X34523809Y-16212619D01*
X34523809Y-16212619D02*
X34428571Y-16355476D01*
X34428571Y-16355476D02*
X34333333Y-16450714D01*
X34333333Y-16450714D02*
X34238095Y-16498333D01*
%TO.C,R5*%
X33212619Y-11916666D02*
X32736428Y-12249999D01*
X33212619Y-12488094D02*
X32212619Y-12488094D01*
X32212619Y-12488094D02*
X32212619Y-12107142D01*
X32212619Y-12107142D02*
X32260238Y-12011904D01*
X32260238Y-12011904D02*
X32307857Y-11964285D01*
X32307857Y-11964285D02*
X32403095Y-11916666D01*
X32403095Y-11916666D02*
X32545952Y-11916666D01*
X32545952Y-11916666D02*
X32641190Y-11964285D01*
X32641190Y-11964285D02*
X32688809Y-12011904D01*
X32688809Y-12011904D02*
X32736428Y-12107142D01*
X32736428Y-12107142D02*
X32736428Y-12488094D01*
X32212619Y-11011904D02*
X32212619Y-11488094D01*
X32212619Y-11488094D02*
X32688809Y-11535713D01*
X32688809Y-11535713D02*
X32641190Y-11488094D01*
X32641190Y-11488094D02*
X32593571Y-11392856D01*
X32593571Y-11392856D02*
X32593571Y-11154761D01*
X32593571Y-11154761D02*
X32641190Y-11059523D01*
X32641190Y-11059523D02*
X32688809Y-11011904D01*
X32688809Y-11011904D02*
X32784047Y-10964285D01*
X32784047Y-10964285D02*
X33022142Y-10964285D01*
X33022142Y-10964285D02*
X33117380Y-11011904D01*
X33117380Y-11011904D02*
X33165000Y-11059523D01*
X33165000Y-11059523D02*
X33212619Y-11154761D01*
X33212619Y-11154761D02*
X33212619Y-11392856D01*
X33212619Y-11392856D02*
X33165000Y-11488094D01*
X33165000Y-11488094D02*
X33117380Y-11535713D01*
%TO.C,R30*%
X125857142Y-7962619D02*
X125523809Y-7486428D01*
X125285714Y-7962619D02*
X125285714Y-6962619D01*
X125285714Y-6962619D02*
X125666666Y-6962619D01*
X125666666Y-6962619D02*
X125761904Y-7010238D01*
X125761904Y-7010238D02*
X125809523Y-7057857D01*
X125809523Y-7057857D02*
X125857142Y-7153095D01*
X125857142Y-7153095D02*
X125857142Y-7295952D01*
X125857142Y-7295952D02*
X125809523Y-7391190D01*
X125809523Y-7391190D02*
X125761904Y-7438809D01*
X125761904Y-7438809D02*
X125666666Y-7486428D01*
X125666666Y-7486428D02*
X125285714Y-7486428D01*
X126190476Y-6962619D02*
X126809523Y-6962619D01*
X126809523Y-6962619D02*
X126476190Y-7343571D01*
X126476190Y-7343571D02*
X126619047Y-7343571D01*
X126619047Y-7343571D02*
X126714285Y-7391190D01*
X126714285Y-7391190D02*
X126761904Y-7438809D01*
X126761904Y-7438809D02*
X126809523Y-7534047D01*
X126809523Y-7534047D02*
X126809523Y-7772142D01*
X126809523Y-7772142D02*
X126761904Y-7867380D01*
X126761904Y-7867380D02*
X126714285Y-7915000D01*
X126714285Y-7915000D02*
X126619047Y-7962619D01*
X126619047Y-7962619D02*
X126333333Y-7962619D01*
X126333333Y-7962619D02*
X126238095Y-7915000D01*
X126238095Y-7915000D02*
X126190476Y-7867380D01*
X127428571Y-6962619D02*
X127523809Y-6962619D01*
X127523809Y-6962619D02*
X127619047Y-7010238D01*
X127619047Y-7010238D02*
X127666666Y-7057857D01*
X127666666Y-7057857D02*
X127714285Y-7153095D01*
X127714285Y-7153095D02*
X127761904Y-7343571D01*
X127761904Y-7343571D02*
X127761904Y-7581666D01*
X127761904Y-7581666D02*
X127714285Y-7772142D01*
X127714285Y-7772142D02*
X127666666Y-7867380D01*
X127666666Y-7867380D02*
X127619047Y-7915000D01*
X127619047Y-7915000D02*
X127523809Y-7962619D01*
X127523809Y-7962619D02*
X127428571Y-7962619D01*
X127428571Y-7962619D02*
X127333333Y-7915000D01*
X127333333Y-7915000D02*
X127285714Y-7867380D01*
X127285714Y-7867380D02*
X127238095Y-7772142D01*
X127238095Y-7772142D02*
X127190476Y-7581666D01*
X127190476Y-7581666D02*
X127190476Y-7343571D01*
X127190476Y-7343571D02*
X127238095Y-7153095D01*
X127238095Y-7153095D02*
X127285714Y-7057857D01*
X127285714Y-7057857D02*
X127333333Y-7010238D01*
X127333333Y-7010238D02*
X127428571Y-6962619D01*
%TO.C,R4*%
X30270834Y-8062619D02*
X29937501Y-7586428D01*
X29699406Y-8062619D02*
X29699406Y-7062619D01*
X29699406Y-7062619D02*
X30080358Y-7062619D01*
X30080358Y-7062619D02*
X30175596Y-7110238D01*
X30175596Y-7110238D02*
X30223215Y-7157857D01*
X30223215Y-7157857D02*
X30270834Y-7253095D01*
X30270834Y-7253095D02*
X30270834Y-7395952D01*
X30270834Y-7395952D02*
X30223215Y-7491190D01*
X30223215Y-7491190D02*
X30175596Y-7538809D01*
X30175596Y-7538809D02*
X30080358Y-7586428D01*
X30080358Y-7586428D02*
X29699406Y-7586428D01*
X31127977Y-7395952D02*
X31127977Y-8062619D01*
X30889882Y-7015000D02*
X30651787Y-7729285D01*
X30651787Y-7729285D02*
X31270834Y-7729285D01*
%TO.C,R7*%
X25270834Y-8062619D02*
X24937501Y-7586428D01*
X24699406Y-8062619D02*
X24699406Y-7062619D01*
X24699406Y-7062619D02*
X25080358Y-7062619D01*
X25080358Y-7062619D02*
X25175596Y-7110238D01*
X25175596Y-7110238D02*
X25223215Y-7157857D01*
X25223215Y-7157857D02*
X25270834Y-7253095D01*
X25270834Y-7253095D02*
X25270834Y-7395952D01*
X25270834Y-7395952D02*
X25223215Y-7491190D01*
X25223215Y-7491190D02*
X25175596Y-7538809D01*
X25175596Y-7538809D02*
X25080358Y-7586428D01*
X25080358Y-7586428D02*
X24699406Y-7586428D01*
X25604168Y-7062619D02*
X26270834Y-7062619D01*
X26270834Y-7062619D02*
X25842263Y-8062619D01*
%TO.C,R1*%
X35520833Y-8062619D02*
X35187500Y-7586428D01*
X34949405Y-8062619D02*
X34949405Y-7062619D01*
X34949405Y-7062619D02*
X35330357Y-7062619D01*
X35330357Y-7062619D02*
X35425595Y-7110238D01*
X35425595Y-7110238D02*
X35473214Y-7157857D01*
X35473214Y-7157857D02*
X35520833Y-7253095D01*
X35520833Y-7253095D02*
X35520833Y-7395952D01*
X35520833Y-7395952D02*
X35473214Y-7491190D01*
X35473214Y-7491190D02*
X35425595Y-7538809D01*
X35425595Y-7538809D02*
X35330357Y-7586428D01*
X35330357Y-7586428D02*
X34949405Y-7586428D01*
X36473214Y-8062619D02*
X35901786Y-8062619D01*
X36187500Y-8062619D02*
X36187500Y-7062619D01*
X36187500Y-7062619D02*
X36092262Y-7205476D01*
X36092262Y-7205476D02*
X35997024Y-7300714D01*
X35997024Y-7300714D02*
X35901786Y-7348333D01*
%TO.C,R13*%
X14357142Y-8062619D02*
X14023809Y-7586428D01*
X13785714Y-8062619D02*
X13785714Y-7062619D01*
X13785714Y-7062619D02*
X14166666Y-7062619D01*
X14166666Y-7062619D02*
X14261904Y-7110238D01*
X14261904Y-7110238D02*
X14309523Y-7157857D01*
X14309523Y-7157857D02*
X14357142Y-7253095D01*
X14357142Y-7253095D02*
X14357142Y-7395952D01*
X14357142Y-7395952D02*
X14309523Y-7491190D01*
X14309523Y-7491190D02*
X14261904Y-7538809D01*
X14261904Y-7538809D02*
X14166666Y-7586428D01*
X14166666Y-7586428D02*
X13785714Y-7586428D01*
X15309523Y-8062619D02*
X14738095Y-8062619D01*
X15023809Y-8062619D02*
X15023809Y-7062619D01*
X15023809Y-7062619D02*
X14928571Y-7205476D01*
X14928571Y-7205476D02*
X14833333Y-7300714D01*
X14833333Y-7300714D02*
X14738095Y-7348333D01*
X15642857Y-7062619D02*
X16261904Y-7062619D01*
X16261904Y-7062619D02*
X15928571Y-7443571D01*
X15928571Y-7443571D02*
X16071428Y-7443571D01*
X16071428Y-7443571D02*
X16166666Y-7491190D01*
X16166666Y-7491190D02*
X16214285Y-7538809D01*
X16214285Y-7538809D02*
X16261904Y-7634047D01*
X16261904Y-7634047D02*
X16261904Y-7872142D01*
X16261904Y-7872142D02*
X16214285Y-7967380D01*
X16214285Y-7967380D02*
X16166666Y-8015000D01*
X16166666Y-8015000D02*
X16071428Y-8062619D01*
X16071428Y-8062619D02*
X15785714Y-8062619D01*
X15785714Y-8062619D02*
X15690476Y-8015000D01*
X15690476Y-8015000D02*
X15642857Y-7967380D01*
%TO.C,R12*%
X18092618Y-22392857D02*
X17616427Y-22726190D01*
X18092618Y-22964285D02*
X17092618Y-22964285D01*
X17092618Y-22964285D02*
X17092618Y-22583333D01*
X17092618Y-22583333D02*
X17140237Y-22488095D01*
X17140237Y-22488095D02*
X17187856Y-22440476D01*
X17187856Y-22440476D02*
X17283094Y-22392857D01*
X17283094Y-22392857D02*
X17425951Y-22392857D01*
X17425951Y-22392857D02*
X17521189Y-22440476D01*
X17521189Y-22440476D02*
X17568808Y-22488095D01*
X17568808Y-22488095D02*
X17616427Y-22583333D01*
X17616427Y-22583333D02*
X17616427Y-22964285D01*
X18092618Y-21440476D02*
X18092618Y-22011904D01*
X18092618Y-21726190D02*
X17092618Y-21726190D01*
X17092618Y-21726190D02*
X17235475Y-21821428D01*
X17235475Y-21821428D02*
X17330713Y-21916666D01*
X17330713Y-21916666D02*
X17378332Y-22011904D01*
X17187856Y-21059523D02*
X17140237Y-21011904D01*
X17140237Y-21011904D02*
X17092618Y-20916666D01*
X17092618Y-20916666D02*
X17092618Y-20678571D01*
X17092618Y-20678571D02*
X17140237Y-20583333D01*
X17140237Y-20583333D02*
X17187856Y-20535714D01*
X17187856Y-20535714D02*
X17283094Y-20488095D01*
X17283094Y-20488095D02*
X17378332Y-20488095D01*
X17378332Y-20488095D02*
X17521189Y-20535714D01*
X17521189Y-20535714D02*
X18092618Y-21107142D01*
X18092618Y-21107142D02*
X18092618Y-20488095D01*
%TO.C,Q4*%
X18154761Y-17557857D02*
X18059523Y-17510238D01*
X18059523Y-17510238D02*
X17964285Y-17415000D01*
X17964285Y-17415000D02*
X17821428Y-17272142D01*
X17821428Y-17272142D02*
X17726190Y-17224523D01*
X17726190Y-17224523D02*
X17630952Y-17224523D01*
X17678571Y-17462619D02*
X17583333Y-17415000D01*
X17583333Y-17415000D02*
X17488095Y-17319761D01*
X17488095Y-17319761D02*
X17440476Y-17129285D01*
X17440476Y-17129285D02*
X17440476Y-16795952D01*
X17440476Y-16795952D02*
X17488095Y-16605476D01*
X17488095Y-16605476D02*
X17583333Y-16510238D01*
X17583333Y-16510238D02*
X17678571Y-16462619D01*
X17678571Y-16462619D02*
X17869047Y-16462619D01*
X17869047Y-16462619D02*
X17964285Y-16510238D01*
X17964285Y-16510238D02*
X18059523Y-16605476D01*
X18059523Y-16605476D02*
X18107142Y-16795952D01*
X18107142Y-16795952D02*
X18107142Y-17129285D01*
X18107142Y-17129285D02*
X18059523Y-17319761D01*
X18059523Y-17319761D02*
X17964285Y-17415000D01*
X17964285Y-17415000D02*
X17869047Y-17462619D01*
X17869047Y-17462619D02*
X17678571Y-17462619D01*
X18964285Y-16795952D02*
X18964285Y-17462619D01*
X18726190Y-16415000D02*
X18488095Y-17129285D01*
X18488095Y-17129285D02*
X19107142Y-17129285D01*
%TO.C,Q2*%
X28654761Y-17307857D02*
X28559523Y-17260238D01*
X28559523Y-17260238D02*
X28464285Y-17165000D01*
X28464285Y-17165000D02*
X28321428Y-17022142D01*
X28321428Y-17022142D02*
X28226190Y-16974523D01*
X28226190Y-16974523D02*
X28130952Y-16974523D01*
X28178571Y-17212619D02*
X28083333Y-17165000D01*
X28083333Y-17165000D02*
X27988095Y-17069761D01*
X27988095Y-17069761D02*
X27940476Y-16879285D01*
X27940476Y-16879285D02*
X27940476Y-16545952D01*
X27940476Y-16545952D02*
X27988095Y-16355476D01*
X27988095Y-16355476D02*
X28083333Y-16260238D01*
X28083333Y-16260238D02*
X28178571Y-16212619D01*
X28178571Y-16212619D02*
X28369047Y-16212619D01*
X28369047Y-16212619D02*
X28464285Y-16260238D01*
X28464285Y-16260238D02*
X28559523Y-16355476D01*
X28559523Y-16355476D02*
X28607142Y-16545952D01*
X28607142Y-16545952D02*
X28607142Y-16879285D01*
X28607142Y-16879285D02*
X28559523Y-17069761D01*
X28559523Y-17069761D02*
X28464285Y-17165000D01*
X28464285Y-17165000D02*
X28369047Y-17212619D01*
X28369047Y-17212619D02*
X28178571Y-17212619D01*
X28988095Y-16307857D02*
X29035714Y-16260238D01*
X29035714Y-16260238D02*
X29130952Y-16212619D01*
X29130952Y-16212619D02*
X29369047Y-16212619D01*
X29369047Y-16212619D02*
X29464285Y-16260238D01*
X29464285Y-16260238D02*
X29511904Y-16307857D01*
X29511904Y-16307857D02*
X29559523Y-16403095D01*
X29559523Y-16403095D02*
X29559523Y-16498333D01*
X29559523Y-16498333D02*
X29511904Y-16641190D01*
X29511904Y-16641190D02*
X28940476Y-17212619D01*
X28940476Y-17212619D02*
X29559523Y-17212619D01*
%TO.C,R16*%
X9357142Y-8062619D02*
X9023809Y-7586428D01*
X8785714Y-8062619D02*
X8785714Y-7062619D01*
X8785714Y-7062619D02*
X9166666Y-7062619D01*
X9166666Y-7062619D02*
X9261904Y-7110238D01*
X9261904Y-7110238D02*
X9309523Y-7157857D01*
X9309523Y-7157857D02*
X9357142Y-7253095D01*
X9357142Y-7253095D02*
X9357142Y-7395952D01*
X9357142Y-7395952D02*
X9309523Y-7491190D01*
X9309523Y-7491190D02*
X9261904Y-7538809D01*
X9261904Y-7538809D02*
X9166666Y-7586428D01*
X9166666Y-7586428D02*
X8785714Y-7586428D01*
X10309523Y-8062619D02*
X9738095Y-8062619D01*
X10023809Y-8062619D02*
X10023809Y-7062619D01*
X10023809Y-7062619D02*
X9928571Y-7205476D01*
X9928571Y-7205476D02*
X9833333Y-7300714D01*
X9833333Y-7300714D02*
X9738095Y-7348333D01*
X11166666Y-7062619D02*
X10976190Y-7062619D01*
X10976190Y-7062619D02*
X10880952Y-7110238D01*
X10880952Y-7110238D02*
X10833333Y-7157857D01*
X10833333Y-7157857D02*
X10738095Y-7300714D01*
X10738095Y-7300714D02*
X10690476Y-7491190D01*
X10690476Y-7491190D02*
X10690476Y-7872142D01*
X10690476Y-7872142D02*
X10738095Y-7967380D01*
X10738095Y-7967380D02*
X10785714Y-8015000D01*
X10785714Y-8015000D02*
X10880952Y-8062619D01*
X10880952Y-8062619D02*
X11071428Y-8062619D01*
X11071428Y-8062619D02*
X11166666Y-8015000D01*
X11166666Y-8015000D02*
X11214285Y-7967380D01*
X11214285Y-7967380D02*
X11261904Y-7872142D01*
X11261904Y-7872142D02*
X11261904Y-7634047D01*
X11261904Y-7634047D02*
X11214285Y-7538809D01*
X11214285Y-7538809D02*
X11166666Y-7491190D01*
X11166666Y-7491190D02*
X11071428Y-7443571D01*
X11071428Y-7443571D02*
X10880952Y-7443571D01*
X10880952Y-7443571D02*
X10785714Y-7491190D01*
X10785714Y-7491190D02*
X10738095Y-7538809D01*
X10738095Y-7538809D02*
X10690476Y-7634047D01*
%TO.C,C6*%
X120333333Y-10867380D02*
X120285714Y-10915000D01*
X120285714Y-10915000D02*
X120142857Y-10962619D01*
X120142857Y-10962619D02*
X120047619Y-10962619D01*
X120047619Y-10962619D02*
X119904762Y-10915000D01*
X119904762Y-10915000D02*
X119809524Y-10819761D01*
X119809524Y-10819761D02*
X119761905Y-10724523D01*
X119761905Y-10724523D02*
X119714286Y-10534047D01*
X119714286Y-10534047D02*
X119714286Y-10391190D01*
X119714286Y-10391190D02*
X119761905Y-10200714D01*
X119761905Y-10200714D02*
X119809524Y-10105476D01*
X119809524Y-10105476D02*
X119904762Y-10010238D01*
X119904762Y-10010238D02*
X120047619Y-9962619D01*
X120047619Y-9962619D02*
X120142857Y-9962619D01*
X120142857Y-9962619D02*
X120285714Y-10010238D01*
X120285714Y-10010238D02*
X120333333Y-10057857D01*
X121190476Y-9962619D02*
X121000000Y-9962619D01*
X121000000Y-9962619D02*
X120904762Y-10010238D01*
X120904762Y-10010238D02*
X120857143Y-10057857D01*
X120857143Y-10057857D02*
X120761905Y-10200714D01*
X120761905Y-10200714D02*
X120714286Y-10391190D01*
X120714286Y-10391190D02*
X120714286Y-10772142D01*
X120714286Y-10772142D02*
X120761905Y-10867380D01*
X120761905Y-10867380D02*
X120809524Y-10915000D01*
X120809524Y-10915000D02*
X120904762Y-10962619D01*
X120904762Y-10962619D02*
X121095238Y-10962619D01*
X121095238Y-10962619D02*
X121190476Y-10915000D01*
X121190476Y-10915000D02*
X121238095Y-10867380D01*
X121238095Y-10867380D02*
X121285714Y-10772142D01*
X121285714Y-10772142D02*
X121285714Y-10534047D01*
X121285714Y-10534047D02*
X121238095Y-10438809D01*
X121238095Y-10438809D02*
X121190476Y-10391190D01*
X121190476Y-10391190D02*
X121095238Y-10343571D01*
X121095238Y-10343571D02*
X120904762Y-10343571D01*
X120904762Y-10343571D02*
X120809524Y-10391190D01*
X120809524Y-10391190D02*
X120761905Y-10438809D01*
X120761905Y-10438809D02*
X120714286Y-10534047D01*
%TO.C,Q3*%
X23404761Y-17557857D02*
X23309523Y-17510238D01*
X23309523Y-17510238D02*
X23214285Y-17415000D01*
X23214285Y-17415000D02*
X23071428Y-17272142D01*
X23071428Y-17272142D02*
X22976190Y-17224523D01*
X22976190Y-17224523D02*
X22880952Y-17224523D01*
X22928571Y-17462619D02*
X22833333Y-17415000D01*
X22833333Y-17415000D02*
X22738095Y-17319761D01*
X22738095Y-17319761D02*
X22690476Y-17129285D01*
X22690476Y-17129285D02*
X22690476Y-16795952D01*
X22690476Y-16795952D02*
X22738095Y-16605476D01*
X22738095Y-16605476D02*
X22833333Y-16510238D01*
X22833333Y-16510238D02*
X22928571Y-16462619D01*
X22928571Y-16462619D02*
X23119047Y-16462619D01*
X23119047Y-16462619D02*
X23214285Y-16510238D01*
X23214285Y-16510238D02*
X23309523Y-16605476D01*
X23309523Y-16605476D02*
X23357142Y-16795952D01*
X23357142Y-16795952D02*
X23357142Y-17129285D01*
X23357142Y-17129285D02*
X23309523Y-17319761D01*
X23309523Y-17319761D02*
X23214285Y-17415000D01*
X23214285Y-17415000D02*
X23119047Y-17462619D01*
X23119047Y-17462619D02*
X22928571Y-17462619D01*
X23690476Y-16462619D02*
X24309523Y-16462619D01*
X24309523Y-16462619D02*
X23976190Y-16843571D01*
X23976190Y-16843571D02*
X24119047Y-16843571D01*
X24119047Y-16843571D02*
X24214285Y-16891190D01*
X24214285Y-16891190D02*
X24261904Y-16938809D01*
X24261904Y-16938809D02*
X24309523Y-17034047D01*
X24309523Y-17034047D02*
X24309523Y-17272142D01*
X24309523Y-17272142D02*
X24261904Y-17367380D01*
X24261904Y-17367380D02*
X24214285Y-17415000D01*
X24214285Y-17415000D02*
X24119047Y-17462619D01*
X24119047Y-17462619D02*
X23833333Y-17462619D01*
X23833333Y-17462619D02*
X23738095Y-17415000D01*
X23738095Y-17415000D02*
X23690476Y-17367380D01*
%TO.C,U5*%
X130988095Y-13212619D02*
X130988095Y-14022142D01*
X130988095Y-14022142D02*
X131035714Y-14117380D01*
X131035714Y-14117380D02*
X131083333Y-14165000D01*
X131083333Y-14165000D02*
X131178571Y-14212619D01*
X131178571Y-14212619D02*
X131369047Y-14212619D01*
X131369047Y-14212619D02*
X131464285Y-14165000D01*
X131464285Y-14165000D02*
X131511904Y-14117380D01*
X131511904Y-14117380D02*
X131559523Y-14022142D01*
X131559523Y-14022142D02*
X131559523Y-13212619D01*
X132511904Y-13212619D02*
X132035714Y-13212619D01*
X132035714Y-13212619D02*
X131988095Y-13688809D01*
X131988095Y-13688809D02*
X132035714Y-13641190D01*
X132035714Y-13641190D02*
X132130952Y-13593571D01*
X132130952Y-13593571D02*
X132369047Y-13593571D01*
X132369047Y-13593571D02*
X132464285Y-13641190D01*
X132464285Y-13641190D02*
X132511904Y-13688809D01*
X132511904Y-13688809D02*
X132559523Y-13784047D01*
X132559523Y-13784047D02*
X132559523Y-14022142D01*
X132559523Y-14022142D02*
X132511904Y-14117380D01*
X132511904Y-14117380D02*
X132464285Y-14165000D01*
X132464285Y-14165000D02*
X132369047Y-14212619D01*
X132369047Y-14212619D02*
X132130952Y-14212619D01*
X132130952Y-14212619D02*
X132035714Y-14165000D01*
X132035714Y-14165000D02*
X131988095Y-14117380D01*
%TO.C,U2*%
X18962619Y-40261904D02*
X19772142Y-40261904D01*
X19772142Y-40261904D02*
X19867380Y-40214285D01*
X19867380Y-40214285D02*
X19915000Y-40166666D01*
X19915000Y-40166666D02*
X19962619Y-40071428D01*
X19962619Y-40071428D02*
X19962619Y-39880952D01*
X19962619Y-39880952D02*
X19915000Y-39785714D01*
X19915000Y-39785714D02*
X19867380Y-39738095D01*
X19867380Y-39738095D02*
X19772142Y-39690476D01*
X19772142Y-39690476D02*
X18962619Y-39690476D01*
X19057857Y-39261904D02*
X19010238Y-39214285D01*
X19010238Y-39214285D02*
X18962619Y-39119047D01*
X18962619Y-39119047D02*
X18962619Y-38880952D01*
X18962619Y-38880952D02*
X19010238Y-38785714D01*
X19010238Y-38785714D02*
X19057857Y-38738095D01*
X19057857Y-38738095D02*
X19153095Y-38690476D01*
X19153095Y-38690476D02*
X19248333Y-38690476D01*
X19248333Y-38690476D02*
X19391190Y-38738095D01*
X19391190Y-38738095D02*
X19962619Y-39309523D01*
X19962619Y-39309523D02*
X19962619Y-38690476D01*
%TO.C,C9*%
X128833333Y-31867380D02*
X128785714Y-31915000D01*
X128785714Y-31915000D02*
X128642857Y-31962619D01*
X128642857Y-31962619D02*
X128547619Y-31962619D01*
X128547619Y-31962619D02*
X128404762Y-31915000D01*
X128404762Y-31915000D02*
X128309524Y-31819761D01*
X128309524Y-31819761D02*
X128261905Y-31724523D01*
X128261905Y-31724523D02*
X128214286Y-31534047D01*
X128214286Y-31534047D02*
X128214286Y-31391190D01*
X128214286Y-31391190D02*
X128261905Y-31200714D01*
X128261905Y-31200714D02*
X128309524Y-31105476D01*
X128309524Y-31105476D02*
X128404762Y-31010238D01*
X128404762Y-31010238D02*
X128547619Y-30962619D01*
X128547619Y-30962619D02*
X128642857Y-30962619D01*
X128642857Y-30962619D02*
X128785714Y-31010238D01*
X128785714Y-31010238D02*
X128833333Y-31057857D01*
X129309524Y-31962619D02*
X129500000Y-31962619D01*
X129500000Y-31962619D02*
X129595238Y-31915000D01*
X129595238Y-31915000D02*
X129642857Y-31867380D01*
X129642857Y-31867380D02*
X129738095Y-31724523D01*
X129738095Y-31724523D02*
X129785714Y-31534047D01*
X129785714Y-31534047D02*
X129785714Y-31153095D01*
X129785714Y-31153095D02*
X129738095Y-31057857D01*
X129738095Y-31057857D02*
X129690476Y-31010238D01*
X129690476Y-31010238D02*
X129595238Y-30962619D01*
X129595238Y-30962619D02*
X129404762Y-30962619D01*
X129404762Y-30962619D02*
X129309524Y-31010238D01*
X129309524Y-31010238D02*
X129261905Y-31057857D01*
X129261905Y-31057857D02*
X129214286Y-31153095D01*
X129214286Y-31153095D02*
X129214286Y-31391190D01*
X129214286Y-31391190D02*
X129261905Y-31486428D01*
X129261905Y-31486428D02*
X129309524Y-31534047D01*
X129309524Y-31534047D02*
X129404762Y-31581666D01*
X129404762Y-31581666D02*
X129595238Y-31581666D01*
X129595238Y-31581666D02*
X129690476Y-31534047D01*
X129690476Y-31534047D02*
X129738095Y-31486428D01*
X129738095Y-31486428D02*
X129785714Y-31391190D01*
%TO.C,J3*%
X9416666Y-32212619D02*
X9416666Y-32926904D01*
X9416666Y-32926904D02*
X9369047Y-33069761D01*
X9369047Y-33069761D02*
X9273809Y-33165000D01*
X9273809Y-33165000D02*
X9130952Y-33212619D01*
X9130952Y-33212619D02*
X9035714Y-33212619D01*
X9797619Y-32212619D02*
X10416666Y-32212619D01*
X10416666Y-32212619D02*
X10083333Y-32593571D01*
X10083333Y-32593571D02*
X10226190Y-32593571D01*
X10226190Y-32593571D02*
X10321428Y-32641190D01*
X10321428Y-32641190D02*
X10369047Y-32688809D01*
X10369047Y-32688809D02*
X10416666Y-32784047D01*
X10416666Y-32784047D02*
X10416666Y-33022142D01*
X10416666Y-33022142D02*
X10369047Y-33117380D01*
X10369047Y-33117380D02*
X10321428Y-33165000D01*
X10321428Y-33165000D02*
X10226190Y-33212619D01*
X10226190Y-33212619D02*
X9940476Y-33212619D01*
X9940476Y-33212619D02*
X9845238Y-33165000D01*
X9845238Y-33165000D02*
X9797619Y-33117380D01*
D11*
%TO.C,U3*%
X49597500Y-35400000D02*
X49597500Y-41410000D01*
X42777500Y-37650000D02*
X42777500Y-41410000D01*
X49597500Y-41410000D02*
X48337500Y-41410000D01*
X42777500Y-41410000D02*
X44037500Y-41410000D01*
%TO.C,R17*%
X10227064Y-12485000D02*
X9772936Y-12485000D01*
X10227064Y-11015000D02*
X9772936Y-11015000D01*
%TO.C,R11*%
X20477063Y-12485000D02*
X20022935Y-12485000D01*
X20477063Y-11015000D02*
X20022935Y-11015000D01*
%TO.C,R3*%
X33977500Y-23927064D02*
X33977500Y-19572936D01*
X37397500Y-23927064D02*
X37397500Y-19572936D01*
%TO.C,R14*%
X15227064Y-12485000D02*
X14772936Y-12485000D01*
X15227064Y-11015000D02*
X14772936Y-11015000D01*
%TO.C,C5*%
X123515000Y-11061252D02*
X123515000Y-10538748D01*
X124985000Y-11061252D02*
X124985000Y-10538748D01*
%TO.C,R25*%
X40960436Y-8515000D02*
X41414564Y-8515000D01*
X40960436Y-9985000D02*
X41414564Y-9985000D01*
%TO.C,R21*%
X49727500Y-23927064D02*
X49727500Y-19572936D01*
X53147500Y-23927064D02*
X53147500Y-19572936D01*
%TO.C,Q6*%
X11560000Y-15312500D02*
X11560000Y-13637500D01*
X11560000Y-15312500D02*
X11560000Y-15962500D01*
X8440000Y-15312500D02*
X8440000Y-14662500D01*
X8440000Y-15312500D02*
X8440000Y-15962500D01*
%TO.C,R20*%
X51664564Y-12485000D02*
X51210436Y-12485000D01*
X51664564Y-11015000D02*
X51210436Y-11015000D01*
%TO.C,R22*%
X45960436Y-8515000D02*
X46414564Y-8515000D01*
X45960436Y-9985000D02*
X46414564Y-9985000D01*
%TO.C,R18*%
X8290000Y-23927064D02*
X8290000Y-19572936D01*
X11710000Y-23927064D02*
X11710000Y-19572936D01*
%TO.C,R19*%
X51210436Y-8515000D02*
X51664564Y-8515000D01*
X51210436Y-9985000D02*
X51664564Y-9985000D01*
%TO.C,R10*%
X20022935Y-8515000D02*
X20477063Y-8515000D01*
X20022935Y-9985000D02*
X20477063Y-9985000D01*
%TO.C,C1*%
X118511252Y-21535000D02*
X117988748Y-21535000D01*
X118511252Y-20065000D02*
X117988748Y-20065000D01*
%TO.C,C7*%
X132735000Y-23238748D02*
X132735000Y-23761252D01*
X131265000Y-23238748D02*
X131265000Y-23761252D01*
%TO.C,Q9*%
X42747500Y-15312500D02*
X42747500Y-13637500D01*
X42747500Y-15312500D02*
X42747500Y-15962500D01*
X39627500Y-15312500D02*
X39627500Y-14662500D01*
X39627500Y-15312500D02*
X39627500Y-15962500D01*
%TO.C,U4*%
X133750000Y-29440000D02*
X139760000Y-29440000D01*
X136000000Y-36260000D02*
X139760000Y-36260000D01*
X139760000Y-29440000D02*
X139760000Y-30700000D01*
X139760000Y-36260000D02*
X139760000Y-35000000D01*
%TO.C,C4*%
X137735000Y-23238748D02*
X137735000Y-23761252D01*
X136265000Y-23238748D02*
X136265000Y-23761252D01*
%TO.C,Q7*%
X52997500Y-15312500D02*
X52997500Y-13637500D01*
X52997500Y-15312500D02*
X52997500Y-15962500D01*
X49877500Y-15312500D02*
X49877500Y-14662500D01*
X49877500Y-15312500D02*
X49877500Y-15962500D01*
%TO.C,R15*%
X13290000Y-23927064D02*
X13290000Y-19572936D01*
X16710000Y-23927064D02*
X16710000Y-19572936D01*
%TO.C,R27*%
X39477500Y-23927064D02*
X39477500Y-19572936D01*
X42897500Y-23927064D02*
X42897500Y-19572936D01*
%TO.C,R2*%
X35914564Y-12485000D02*
X35460436Y-12485000D01*
X35914564Y-11015000D02*
X35460436Y-11015000D01*
%TO.C,U1*%
X33847501Y-35400000D02*
X33847501Y-41410000D01*
X27027501Y-37650000D02*
X27027501Y-41410000D01*
X33847501Y-41410000D02*
X32587501Y-41410000D01*
X27027501Y-41410000D02*
X28287501Y-41410000D01*
%TO.C,R9*%
X23727501Y-23927064D02*
X23727501Y-19572936D01*
X27147501Y-23927064D02*
X27147501Y-19572936D01*
%TO.C,R28*%
X129765000Y-8639564D02*
X129765000Y-8185436D01*
X131235000Y-8639564D02*
X131235000Y-8185436D01*
%TO.C,J1*%
X24515000Y-26390000D02*
X36685000Y-26390000D01*
X24515000Y-27240000D02*
X24515000Y-26390000D01*
X24515000Y-30760000D02*
X24515000Y-31610000D01*
X24515000Y-31610000D02*
X26840000Y-31610000D01*
X26840000Y-31610000D02*
X26840000Y-34000000D01*
X36685000Y-26390000D02*
X36685000Y-27240000D01*
X36685000Y-30760000D02*
X36685000Y-31610000D01*
X36685000Y-31610000D02*
X34360000Y-31610000D01*
%TO.C,R6*%
X28727501Y-23927064D02*
X28727501Y-19572936D01*
X32147501Y-23927064D02*
X32147501Y-19572936D01*
%TO.C,R8*%
X25664565Y-12485000D02*
X25210437Y-12485000D01*
X25664565Y-11015000D02*
X25210437Y-11015000D01*
%TO.C,J4*%
X40265000Y-26390000D02*
X52435000Y-26390000D01*
X40265000Y-27240000D02*
X40265000Y-26390000D01*
X40265000Y-30760000D02*
X40265000Y-31610000D01*
X40265000Y-31610000D02*
X42590000Y-31610000D01*
X42590000Y-31610000D02*
X42590000Y-34000000D01*
X52435000Y-26390000D02*
X52435000Y-27240000D01*
X52435000Y-30760000D02*
X52435000Y-31610000D01*
X52435000Y-31610000D02*
X50110000Y-31610000D01*
%TO.C,R29*%
X135022936Y-19265000D02*
X135477064Y-19265000D01*
X135022936Y-20735000D02*
X135477064Y-20735000D01*
%TO.C,R23*%
X46414564Y-12485000D02*
X45960436Y-12485000D01*
X46414564Y-11015000D02*
X45960436Y-11015000D01*
%TO.C,C8*%
X131985000Y-34538748D02*
X131985000Y-35061252D01*
X130515000Y-34538748D02*
X130515000Y-35061252D01*
%TO.C,Y1*%
X119800000Y-15200000D02*
X116500000Y-15200000D01*
X116500000Y-15200000D02*
X116500000Y-19200000D01*
%TO.C,J5*%
X139240000Y-13020000D02*
X137915000Y-13020000D01*
X137915000Y-13085000D02*
X137915000Y-13020000D01*
X137915000Y-13085000D02*
X134385000Y-13085000D01*
X137915000Y-6680000D02*
X137915000Y-6615000D01*
X137915000Y-6615000D02*
X134385000Y-6615000D01*
X134385000Y-13085000D02*
X134385000Y-13020000D01*
X134385000Y-6680000D02*
X134385000Y-6615000D01*
%TO.C,C2*%
X118461252Y-14535000D02*
X117938748Y-14535000D01*
X118461252Y-13065000D02*
X117938748Y-13065000D01*
%TO.C,J6*%
X143920000Y-14920000D02*
X145250000Y-14920000D01*
X143920000Y-16250000D02*
X143920000Y-14920000D01*
X143920000Y-17520000D02*
X143920000Y-30280000D01*
X143920000Y-17520000D02*
X146580000Y-17520000D01*
X143920000Y-30280000D02*
X146580000Y-30280000D01*
X146580000Y-17520000D02*
X146580000Y-30280000D01*
%TO.C,R24*%
X44477500Y-23927064D02*
X44477500Y-19572936D01*
X47897500Y-23927064D02*
X47897500Y-19572936D01*
%TO.C,R26*%
X41414564Y-12485000D02*
X40960436Y-12485000D01*
X41414564Y-11015000D02*
X40960436Y-11015000D01*
%TO.C,Q8*%
X47747500Y-15312500D02*
X47747500Y-13637500D01*
X47747500Y-15312500D02*
X47747500Y-15962500D01*
X44627500Y-15312500D02*
X44627500Y-14662500D01*
X44627500Y-15312500D02*
X44627500Y-15962500D01*
%TO.C,Q5*%
X16560000Y-15312500D02*
X16560000Y-13637500D01*
X16560000Y-15312500D02*
X16560000Y-15962500D01*
X13440000Y-15312500D02*
X13440000Y-14662500D01*
X13440000Y-15312500D02*
X13440000Y-15962500D01*
%TO.C,C3*%
X135235000Y-23238748D02*
X135235000Y-23761252D01*
X133765000Y-23238748D02*
X133765000Y-23761252D01*
%TO.C,Q1*%
X37247500Y-15312500D02*
X37247500Y-13637500D01*
X37247500Y-15312500D02*
X37247500Y-15962500D01*
X34127500Y-15312500D02*
X34127500Y-14662500D01*
X34127500Y-15312500D02*
X34127500Y-15962500D01*
%TO.C,R5*%
X30664565Y-12485000D02*
X30210437Y-12485000D01*
X30664565Y-11015000D02*
X30210437Y-11015000D01*
%TO.C,R30*%
X125765000Y-10977064D02*
X125765000Y-10522936D01*
X127235000Y-10977064D02*
X127235000Y-10522936D01*
%TO.C,R4*%
X30210437Y-8515000D02*
X30664565Y-8515000D01*
X30210437Y-9985000D02*
X30664565Y-9985000D01*
%TO.C,R7*%
X25210437Y-8515000D02*
X25664565Y-8515000D01*
X25210437Y-9985000D02*
X25664565Y-9985000D01*
%TO.C,R1*%
X35460436Y-8515000D02*
X35914564Y-8515000D01*
X35460436Y-9985000D02*
X35914564Y-9985000D01*
%TO.C,R13*%
X14772936Y-8515000D02*
X15227064Y-8515000D01*
X14772936Y-9985000D02*
X15227064Y-9985000D01*
%TO.C,R12*%
X18539999Y-23927064D02*
X18539999Y-19572936D01*
X21959999Y-23927064D02*
X21959999Y-19572936D01*
%TO.C,Q4*%
X21809999Y-15312500D02*
X21809999Y-13637500D01*
X21809999Y-15312500D02*
X21809999Y-15962500D01*
X18689999Y-15312500D02*
X18689999Y-14662500D01*
X18689999Y-15312500D02*
X18689999Y-15962500D01*
%TO.C,Q2*%
X31997501Y-15312500D02*
X31997501Y-13637500D01*
X31997501Y-15312500D02*
X31997501Y-15962500D01*
X28877501Y-15312500D02*
X28877501Y-14662500D01*
X28877501Y-15312500D02*
X28877501Y-15962500D01*
%TO.C,R16*%
X9772936Y-8515000D02*
X10227064Y-8515000D01*
X9772936Y-9985000D02*
X10227064Y-9985000D01*
%TO.C,C6*%
X121265000Y-13061252D02*
X121265000Y-12538748D01*
X122735000Y-13061252D02*
X122735000Y-12538748D01*
%TO.C,Q3*%
X26997501Y-15312500D02*
X26997501Y-13637500D01*
X26997501Y-15312500D02*
X26997501Y-15962500D01*
X23877501Y-15312500D02*
X23877501Y-14662500D01*
X23877501Y-15312500D02*
X23877501Y-15962500D01*
%TO.C,U5*%
X123590000Y-14350000D02*
X123590000Y-14800000D01*
X123590000Y-14800000D02*
X122300000Y-14800000D01*
X123590000Y-21570000D02*
X123590000Y-21120000D01*
X124040000Y-14350000D02*
X123590000Y-14350000D01*
X124040000Y-21570000D02*
X123590000Y-21570000D01*
X130360000Y-14350000D02*
X130810000Y-14350000D01*
X130360000Y-21570000D02*
X130810000Y-21570000D01*
X130810000Y-14350000D02*
X130810000Y-14800000D01*
X130810000Y-21570000D02*
X130810000Y-21120000D01*
%TO.C,U2*%
X18410000Y-35400000D02*
X18410000Y-41410000D01*
X11590000Y-37650000D02*
X11590000Y-41410000D01*
X18410000Y-41410000D02*
X17150000Y-41410000D01*
X11590000Y-41410000D02*
X12850000Y-41410000D01*
%TO.C,C9*%
X130515000Y-31311252D02*
X130515000Y-30788748D01*
X131985000Y-31311252D02*
X131985000Y-30788748D01*
%TO.C,J3*%
X9015000Y-26390000D02*
X21185000Y-26390000D01*
X9015000Y-27240000D02*
X9015000Y-26390000D01*
X9015000Y-30760000D02*
X9015000Y-31610000D01*
X9015000Y-31610000D02*
X11340000Y-31610000D01*
X11340000Y-31610000D02*
X11340000Y-34000000D01*
X21185000Y-26390000D02*
X21185000Y-27240000D01*
X21185000Y-30760000D02*
X21185000Y-31610000D01*
X21185000Y-31610000D02*
X18860000Y-31610000D01*
%TD*%
M02*
