M48
INCH,TZ
T1C0.0157
T2C0.0236
T3C0.0315
T4C0.0394
T5C0.0709
T6C0.1260
%
G90
G05
T1
X3051Y-4724
X3051Y-5217
X3051Y-5709
X5020Y-4724
X5020Y-5217
X5020Y-5709
X6594Y-14961
X6988Y-14961
X7087Y-4724
X7087Y-5217
X7087Y-5709
X7382Y-14173
X7382Y-14665
X9094Y-4724
X9094Y-5217
X9094Y-5709
X11097Y-4724
X11097Y-5217
X11097Y-5709
X12672Y-14961
X13066Y-14961
X13164Y-4724
X13164Y-5217
X13164Y-5709
X13460Y-14173
X13460Y-14665
X15354Y-4626
X15354Y-5118
X15354Y-5610
X17298Y-4724
X17298Y-5217
X17298Y-5709
X18873Y-14961
X19267Y-14961
X19365Y-4724
X19365Y-5217
X19365Y-5709
X19660Y-14173
X19660Y-14665
X29232Y-12598
X44291Y-5118
X44291Y-5709
X44291Y-6299
X45472Y-5157
X45472Y-5984
X45472Y-6929
X46181Y-4528
X47008Y-4528
X47441Y-6339
X47441Y-7362
X47441Y-8346
X47835Y-7559
X47913Y-3504
X48031Y-4134
X48465Y-9724
X48740Y-10197
X48917Y-3445
X49409Y-7165
X49528Y-8071
X49705Y-6201
X49803Y-3445
X49803Y-12480
X50197Y-6102
X50266Y-9331
X50669Y-9646
X51024Y-11850
X51024Y-14094
X51181Y-9488
X51654Y-14606
X51673Y-1476
X51673Y-2165
X51693Y-11260
X51929Y-3701
X52480Y-9921
X52598Y-11299
X52835Y-2323
X53031Y-11299
X53445Y-6299
X53465Y-9882
X53465Y-11299
X53622Y-4882
X53642Y-2854
X53642Y-4331
X54094Y-7874
X54823Y-8268
X55118Y-2854
X55118Y-4331
X55217Y-6398
X56004Y-10433
T4
X22736Y-9882
X23720Y-9882
X24705Y-9882
X29134Y-9862
X30118Y-9862
X31102Y-9862
X35531Y-9862
X36516Y-9862
X37500Y-9862
X57126Y-7398
X57126Y-9398
X57126Y-11398
X57244Y-6398
X57244Y-8398
X57244Y-10398
T6
X1969Y-1969
X1969Y-17717
X57087Y-1969
X57087Y-17717
T2
G00X54232Y-15630
M15
G01X54232Y-16850
M16
G05
T3
G00X50098Y-15669
M15
G01X50098Y-16811
M16
G05
G00X52598Y-18091
M15
G01X51457Y-18091
M16
G05
T5
G00X21988Y-7185
M15
G01X21988Y-7067
M16
G05
G00X25453Y-7185
M15
G01X25453Y-7067
M16
G05
G00X28386Y-7165
M15
G01X28386Y-7047
M16
G05
G00X31850Y-7165
M15
G01X31850Y-7047
M16
G05
G00X34783Y-7165
M15
G01X34783Y-7047
M16
G05
G00X38248Y-7165
M15
G01X38248Y-7047
M16
G05
T0
M30
