%TF.GenerationSoftware,KiCad,Pcbnew,7.0.2-0*%
%TF.CreationDate,2023-07-03T21:11:49-04:00*%
%TF.ProjectId,controller,636f6e74-726f-46c6-9c65-722e6b696361,rev?*%
%TF.SameCoordinates,Original*%
%TF.FileFunction,Soldermask,Top*%
%TF.FilePolarity,Negative*%
%FSLAX46Y46*%
G04 Gerber Fmt 4.6, Leading zero omitted, Abs format (unit mm)*
G04 Created by KiCad (PCBNEW 7.0.2-0) date 2023-07-03 21:11:49*
%MOMM*%
%LPD*%
G01*
G04 APERTURE LIST*
G04 Aperture macros list*
%AMRoundRect*
0 Rectangle with rounded corners*
0 $1 Rounding radius*
0 $2 $3 $4 $5 $6 $7 $8 $9 X,Y pos of 4 corners*
0 Add a 4 corners polygon primitive as box body*
4,1,4,$2,$3,$4,$5,$6,$7,$8,$9,$2,$3,0*
0 Add four circle primitives for the rounded corners*
1,1,$1+$1,$2,$3*
1,1,$1+$1,$4,$5*
1,1,$1+$1,$6,$7*
1,1,$1+$1,$8,$9*
0 Add four rect primitives between the rounded corners*
20,1,$1+$1,$2,$3,$4,$5,0*
20,1,$1+$1,$4,$5,$6,$7,0*
20,1,$1+$1,$6,$7,$8,$9,0*
20,1,$1+$1,$8,$9,$2,$3,0*%
%AMOutline5P*
0 Free polygon, 5 corners , with rotation*
0 The origin of the aperture is its center*
0 number of corners: always 5*
0 $1 to $10 corner X, Y*
0 $11 Rotation angle, in degrees counterclockwise*
0 create outline with 5 corners*
4,1,5,$1,$2,$3,$4,$5,$6,$7,$8,$9,$10,$1,$2,$11*%
%AMOutline6P*
0 Free polygon, 6 corners , with rotation*
0 The origin of the aperture is its center*
0 number of corners: always 6*
0 $1 to $12 corner X, Y*
0 $13 Rotation angle, in degrees counterclockwise*
0 create outline with 6 corners*
4,1,6,$1,$2,$3,$4,$5,$6,$7,$8,$9,$10,$11,$12,$1,$2,$13*%
%AMOutline7P*
0 Free polygon, 7 corners , with rotation*
0 The origin of the aperture is its center*
0 number of corners: always 7*
0 $1 to $14 corner X, Y*
0 $15 Rotation angle, in degrees counterclockwise*
0 create outline with 7 corners*
4,1,7,$1,$2,$3,$4,$5,$6,$7,$8,$9,$10,$11,$12,$13,$14,$1,$2,$15*%
%AMOutline8P*
0 Free polygon, 8 corners , with rotation*
0 The origin of the aperture is its center*
0 number of corners: always 8*
0 $1 to $16 corner X, Y*
0 $17 Rotation angle, in degrees counterclockwise*
0 create outline with 8 corners*
4,1,8,$1,$2,$3,$4,$5,$6,$7,$8,$9,$10,$11,$12,$13,$14,$15,$16,$1,$2,$17*%
G04 Aperture macros list end*
%ADD10R,1.500000X2.000000*%
%ADD11R,3.800000X2.000000*%
%ADD12RoundRect,0.250000X0.262500X0.450000X-0.262500X0.450000X-0.262500X-0.450000X0.262500X-0.450000X0*%
%ADD13RoundRect,0.250000X1.425000X-0.362500X1.425000X0.362500X-1.425000X0.362500X-1.425000X-0.362500X0*%
%ADD14RoundRect,0.250000X0.475000X-0.250000X0.475000X0.250000X-0.475000X0.250000X-0.475000X-0.250000X0*%
%ADD15RoundRect,0.250000X-0.262500X-0.450000X0.262500X-0.450000X0.262500X0.450000X-0.262500X0.450000X0*%
%ADD16C,5.500000*%
%ADD17RoundRect,0.150000X-0.150000X0.587500X-0.150000X-0.587500X0.150000X-0.587500X0.150000X0.587500X0*%
%ADD18RoundRect,0.250000X0.250000X0.475000X-0.250000X0.475000X-0.250000X-0.475000X0.250000X-0.475000X0*%
%ADD19RoundRect,0.250000X-0.475000X0.250000X-0.475000X-0.250000X0.475000X-0.250000X0.475000X0.250000X0*%
%ADD20R,2.000000X1.500000*%
%ADD21R,2.000000X3.800000*%
%ADD22RoundRect,0.250000X0.450000X-0.262500X0.450000X0.262500X-0.450000X0.262500X-0.450000X-0.262500X0*%
%ADD23RoundRect,0.250000X-0.250000X-2.500000X0.250000X-2.500000X0.250000X2.500000X-0.250000X2.500000X0*%
%ADD24RoundRect,0.250000X-0.550000X-1.250000X0.550000X-1.250000X0.550000X1.250000X-0.550000X1.250000X0*%
%ADD25R,1.200000X1.400000*%
%ADD26R,2.400000X0.740000*%
%ADD27R,1.700000X1.700000*%
%ADD28O,1.700000X1.700000*%
%ADD29RoundRect,0.075000X-0.662500X-0.075000X0.662500X-0.075000X0.662500X0.075000X-0.662500X0.075000X0*%
%ADD30RoundRect,0.075000X-0.075000X-0.662500X0.075000X-0.662500X0.075000X0.662500X-0.075000X0.662500X0*%
%ADD31R,1.800000X1.800000*%
%ADD32C,1.800000*%
%ADD33RoundRect,0.750000X0.750000X-1.250000X0.750000X1.250000X-0.750000X1.250000X-0.750000X-1.250000X0*%
%ADD34R,1.500000X4.500000*%
%ADD35Outline5P,-0.750000X2.250000X0.750000X2.250000X0.750000X-2.250000X-0.450000X-2.250000X-0.750000X-1.950000X270.000000*%
G04 APERTURE END LIST*
D10*
%TO.C,U3*%
X48487500Y-36350000D03*
X46187500Y-36350000D03*
X43887500Y-36350000D03*
D11*
X46187500Y-42650000D03*
%TD*%
D12*
%TO.C,R17*%
X10912500Y-11750000D03*
X9087500Y-11750000D03*
%TD*%
%TO.C,R11*%
X21162499Y-11750000D03*
X19337499Y-11750000D03*
%TD*%
D13*
%TO.C,R3*%
X35687500Y-24712500D03*
X35687500Y-18787500D03*
%TD*%
D12*
%TO.C,R14*%
X15912500Y-11750000D03*
X14087500Y-11750000D03*
%TD*%
D14*
%TO.C,C5*%
X124250000Y-11750000D03*
X124250000Y-9850000D03*
%TD*%
D15*
%TO.C,R25*%
X40275000Y-9250000D03*
X42100000Y-9250000D03*
%TD*%
D16*
%TO.C,H3*%
X145000000Y-45000000D03*
%TD*%
D13*
%TO.C,R21*%
X51437500Y-24712500D03*
X51437500Y-18787500D03*
%TD*%
D17*
%TO.C,Q6*%
X10950000Y-14375000D03*
X9050000Y-14375000D03*
X10000000Y-16250000D03*
%TD*%
D12*
%TO.C,R20*%
X52350000Y-11750000D03*
X50525000Y-11750000D03*
%TD*%
D15*
%TO.C,R22*%
X45275000Y-9250000D03*
X47100000Y-9250000D03*
%TD*%
D13*
%TO.C,R18*%
X10000000Y-24712500D03*
X10000000Y-18787500D03*
%TD*%
D15*
%TO.C,R19*%
X50525000Y-9250000D03*
X52350000Y-9250000D03*
%TD*%
%TO.C,R10*%
X19337499Y-9250000D03*
X21162499Y-9250000D03*
%TD*%
D18*
%TO.C,C1*%
X119200000Y-20800000D03*
X117300000Y-20800000D03*
%TD*%
D19*
%TO.C,C7*%
X132000000Y-22550000D03*
X132000000Y-24450000D03*
%TD*%
D17*
%TO.C,Q9*%
X42137500Y-14375000D03*
X40237500Y-14375000D03*
X41187500Y-16250000D03*
%TD*%
D20*
%TO.C,U4*%
X134700000Y-30550000D03*
X134700000Y-32850000D03*
X134700000Y-35150000D03*
D21*
X141000000Y-32850000D03*
%TD*%
D19*
%TO.C,C4*%
X137000000Y-22550000D03*
X137000000Y-24450000D03*
%TD*%
D17*
%TO.C,Q7*%
X52387500Y-14375000D03*
X50487500Y-14375000D03*
X51437500Y-16250000D03*
%TD*%
D13*
%TO.C,R15*%
X15000000Y-24712500D03*
X15000000Y-18787500D03*
%TD*%
%TO.C,R27*%
X41187500Y-24712500D03*
X41187500Y-18787500D03*
%TD*%
D12*
%TO.C,R2*%
X36600000Y-11750000D03*
X34775000Y-11750000D03*
%TD*%
D10*
%TO.C,U1*%
X32737501Y-36350000D03*
X30437501Y-36350000D03*
X28137501Y-36350000D03*
D11*
X30437501Y-42650000D03*
%TD*%
D13*
%TO.C,R9*%
X25437501Y-24712500D03*
X25437501Y-18787500D03*
%TD*%
D22*
%TO.C,R28*%
X130500000Y-9325000D03*
X130500000Y-7500000D03*
%TD*%
D23*
%TO.C,J1*%
X27600000Y-31250000D03*
X29600000Y-31250000D03*
X31600000Y-31250000D03*
X33600000Y-31250000D03*
D24*
X25200000Y-29000000D03*
X36000000Y-29000000D03*
%TD*%
D13*
%TO.C,R6*%
X30437501Y-24712500D03*
X30437501Y-18787500D03*
%TD*%
D12*
%TO.C,R8*%
X26350001Y-11750000D03*
X24525001Y-11750000D03*
%TD*%
D23*
%TO.C,J4*%
X43350000Y-31250000D03*
X45350000Y-31250000D03*
X47350000Y-31250000D03*
X49350000Y-31250000D03*
D24*
X40950000Y-29000000D03*
X51750000Y-29000000D03*
%TD*%
D15*
%TO.C,R29*%
X134337500Y-20000000D03*
X136162500Y-20000000D03*
%TD*%
D12*
%TO.C,R23*%
X47100000Y-11750000D03*
X45275000Y-11750000D03*
%TD*%
D19*
%TO.C,C8*%
X131250000Y-33850000D03*
X131250000Y-35750000D03*
%TD*%
D16*
%TO.C,H1*%
X5000000Y-5000000D03*
%TD*%
D25*
%TO.C,Y1*%
X117300000Y-16100000D03*
X117300000Y-18300000D03*
X119000000Y-18300000D03*
X119000000Y-16100000D03*
%TD*%
D26*
%TO.C,J5*%
X138100000Y-12390000D03*
X134200000Y-12390000D03*
X138100000Y-11120000D03*
X134200000Y-11120000D03*
X138100000Y-9850000D03*
X134200000Y-9850000D03*
X138100000Y-8580000D03*
X134200000Y-8580000D03*
X138100000Y-7310000D03*
X134200000Y-7310000D03*
%TD*%
D18*
%TO.C,C2*%
X119150000Y-13800000D03*
X117250000Y-13800000D03*
%TD*%
D27*
%TO.C,J6*%
X145400000Y-16250000D03*
D28*
X145100000Y-18790000D03*
X145400000Y-21330000D03*
X145100000Y-23870000D03*
X145400000Y-26410000D03*
X145100000Y-28950000D03*
%TD*%
D13*
%TO.C,R24*%
X46187500Y-24712500D03*
X46187500Y-18787500D03*
%TD*%
D16*
%TO.C,H2*%
X145000000Y-5000000D03*
%TD*%
D12*
%TO.C,R26*%
X42100000Y-11750000D03*
X40275000Y-11750000D03*
%TD*%
D17*
%TO.C,Q8*%
X47137500Y-14375000D03*
X45237500Y-14375000D03*
X46187500Y-16250000D03*
%TD*%
%TO.C,Q5*%
X15950000Y-14375000D03*
X14050000Y-14375000D03*
X15000000Y-16250000D03*
%TD*%
D19*
%TO.C,C3*%
X134500000Y-22550000D03*
X134500000Y-24450000D03*
%TD*%
D17*
%TO.C,Q1*%
X36637500Y-14375000D03*
X34737500Y-14375000D03*
X35687500Y-16250000D03*
%TD*%
D12*
%TO.C,R5*%
X31350001Y-11750000D03*
X29525001Y-11750000D03*
%TD*%
D22*
%TO.C,R30*%
X126500000Y-11662500D03*
X126500000Y-9837500D03*
%TD*%
D15*
%TO.C,R4*%
X29525001Y-9250000D03*
X31350001Y-9250000D03*
%TD*%
%TO.C,R7*%
X24525001Y-9250000D03*
X26350001Y-9250000D03*
%TD*%
%TO.C,R1*%
X34775000Y-9250000D03*
X36600000Y-9250000D03*
%TD*%
%TO.C,R13*%
X14087500Y-9250000D03*
X15912500Y-9250000D03*
%TD*%
D13*
%TO.C,R12*%
X20249999Y-24712500D03*
X20249999Y-18787500D03*
%TD*%
D17*
%TO.C,Q4*%
X21199999Y-14375000D03*
X19299999Y-14375000D03*
X20249999Y-16250000D03*
%TD*%
%TO.C,Q2*%
X31387501Y-14375000D03*
X29487501Y-14375000D03*
X30437501Y-16250000D03*
%TD*%
D15*
%TO.C,R16*%
X9087500Y-9250000D03*
X10912500Y-9250000D03*
%TD*%
D14*
%TO.C,C6*%
X122000000Y-13750000D03*
X122000000Y-11850000D03*
%TD*%
D17*
%TO.C,Q3*%
X26387501Y-14375000D03*
X24487501Y-14375000D03*
X25437501Y-16250000D03*
%TD*%
D29*
%TO.C,U5*%
X123037500Y-15210000D03*
X123037500Y-15710000D03*
X123037500Y-16210000D03*
X123037500Y-16710000D03*
X123037500Y-17210000D03*
X123037500Y-17710000D03*
X123037500Y-18210000D03*
X123037500Y-18710000D03*
X123037500Y-19210000D03*
X123037500Y-19710000D03*
X123037500Y-20210000D03*
X123037500Y-20710000D03*
D30*
X124450000Y-22122500D03*
X124950000Y-22122500D03*
X125450000Y-22122500D03*
X125950000Y-22122500D03*
X126450000Y-22122500D03*
X126950000Y-22122500D03*
X127450000Y-22122500D03*
X127950000Y-22122500D03*
X128450000Y-22122500D03*
X128950000Y-22122500D03*
X129450000Y-22122500D03*
X129950000Y-22122500D03*
D29*
X131362500Y-20710000D03*
X131362500Y-20210000D03*
X131362500Y-19710000D03*
X131362500Y-19210000D03*
X131362500Y-18710000D03*
X131362500Y-18210000D03*
X131362500Y-17710000D03*
X131362500Y-17210000D03*
X131362500Y-16710000D03*
X131362500Y-16210000D03*
X131362500Y-15710000D03*
X131362500Y-15210000D03*
D30*
X129950000Y-13797500D03*
X129450000Y-13797500D03*
X128950000Y-13797500D03*
X128450000Y-13797500D03*
X127950000Y-13797500D03*
X127450000Y-13797500D03*
X126950000Y-13797500D03*
X126450000Y-13797500D03*
X125950000Y-13797500D03*
X125450000Y-13797500D03*
X124950000Y-13797500D03*
X124450000Y-13797500D03*
%TD*%
D10*
%TO.C,U2*%
X17300000Y-36350000D03*
X15000000Y-36350000D03*
X12700000Y-36350000D03*
D11*
X15000000Y-42650000D03*
%TD*%
D16*
%TO.C,H4*%
X5000000Y-45000000D03*
%TD*%
D14*
%TO.C,C9*%
X131250000Y-32000000D03*
X131250000Y-30100000D03*
%TD*%
D23*
%TO.C,J3*%
X12100000Y-31250000D03*
X14100000Y-31250000D03*
X16100000Y-31250000D03*
X18100000Y-31250000D03*
D24*
X9700000Y-29000000D03*
X20500000Y-29000000D03*
%TD*%
D31*
%TO.C,RV3*%
X62750000Y-25100000D03*
D32*
X60250000Y-25100000D03*
X57750000Y-25100000D03*
D33*
X55850000Y-18100000D03*
X64650000Y-18100000D03*
%TD*%
D31*
%TO.C,RV1*%
X95250000Y-25050000D03*
D32*
X92750000Y-25050000D03*
X90250000Y-25050000D03*
D33*
X88350000Y-18050000D03*
X97150000Y-18050000D03*
%TD*%
D31*
%TO.C,RV2*%
X79000000Y-25050000D03*
D32*
X76500000Y-25050000D03*
X74000000Y-25050000D03*
D33*
X72100000Y-18050000D03*
X80900000Y-18050000D03*
%TD*%
D34*
%TO.C,J2*%
X127250000Y-41250000D03*
X137750000Y-41250000D03*
D35*
X132150000Y-45950000D03*
%TD*%
M02*
