%TF.GenerationSoftware,KiCad,Pcbnew,7.0.2-0*%
%TF.CreationDate,2023-07-03T21:11:48-04:00*%
%TF.ProjectId,controller,636f6e74-726f-46c6-9c65-722e6b696361,rev?*%
%TF.SameCoordinates,Original*%
%TF.FileFunction,Copper,L2,Bot*%
%TF.FilePolarity,Positive*%
%FSLAX46Y46*%
G04 Gerber Fmt 4.6, Leading zero omitted, Abs format (unit mm)*
G04 Created by KiCad (PCBNEW 7.0.2-0) date 2023-07-03 21:11:48*
%MOMM*%
%LPD*%
G01*
G04 APERTURE LIST*
G04 Aperture macros list*
%AMRoundRect*
0 Rectangle with rounded corners*
0 $1 Rounding radius*
0 $2 $3 $4 $5 $6 $7 $8 $9 X,Y pos of 4 corners*
0 Add a 4 corners polygon primitive as box body*
4,1,4,$2,$3,$4,$5,$6,$7,$8,$9,$2,$3,0*
0 Add four circle primitives for the rounded corners*
1,1,$1+$1,$2,$3*
1,1,$1+$1,$4,$5*
1,1,$1+$1,$6,$7*
1,1,$1+$1,$8,$9*
0 Add four rect primitives between the rounded corners*
20,1,$1+$1,$2,$3,$4,$5,0*
20,1,$1+$1,$4,$5,$6,$7,0*
20,1,$1+$1,$6,$7,$8,$9,0*
20,1,$1+$1,$8,$9,$2,$3,0*%
%AMOutline5P*
0 Free polygon, 5 corners , with rotation*
0 The origin of the aperture is its center*
0 number of corners: always 5*
0 $1 to $10 corner X, Y*
0 $11 Rotation angle, in degrees counterclockwise*
0 create outline with 5 corners*
4,1,5,$1,$2,$3,$4,$5,$6,$7,$8,$9,$10,$1,$2,$11*%
%AMOutline6P*
0 Free polygon, 6 corners , with rotation*
0 The origin of the aperture is its center*
0 number of corners: always 6*
0 $1 to $12 corner X, Y*
0 $13 Rotation angle, in degrees counterclockwise*
0 create outline with 6 corners*
4,1,6,$1,$2,$3,$4,$5,$6,$7,$8,$9,$10,$11,$12,$1,$2,$13*%
%AMOutline7P*
0 Free polygon, 7 corners , with rotation*
0 The origin of the aperture is its center*
0 number of corners: always 7*
0 $1 to $14 corner X, Y*
0 $15 Rotation angle, in degrees counterclockwise*
0 create outline with 7 corners*
4,1,7,$1,$2,$3,$4,$5,$6,$7,$8,$9,$10,$11,$12,$13,$14,$1,$2,$15*%
%AMOutline8P*
0 Free polygon, 8 corners , with rotation*
0 The origin of the aperture is its center*
0 number of corners: always 8*
0 $1 to $16 corner X, Y*
0 $17 Rotation angle, in degrees counterclockwise*
0 create outline with 8 corners*
4,1,8,$1,$2,$3,$4,$5,$6,$7,$8,$9,$10,$11,$12,$13,$14,$15,$16,$1,$2,$17*%
G04 Aperture macros list end*
%TA.AperFunction,ComponentPad*%
%ADD10C,5.500000*%
%TD*%
%TA.AperFunction,ComponentPad*%
%ADD11R,1.700000X1.700000*%
%TD*%
%TA.AperFunction,ComponentPad*%
%ADD12O,1.700000X1.700000*%
%TD*%
%TA.AperFunction,ComponentPad*%
%ADD13R,1.800000X1.800000*%
%TD*%
%TA.AperFunction,ComponentPad*%
%ADD14C,1.800000*%
%TD*%
%TA.AperFunction,ComponentPad*%
%ADD15RoundRect,0.750000X0.750000X-1.250000X0.750000X1.250000X-0.750000X1.250000X-0.750000X-1.250000X0*%
%TD*%
%TA.AperFunction,SMDPad,CuDef*%
%ADD16RoundRect,0.243750X-0.243750X-0.456250X0.243750X-0.456250X0.243750X0.456250X-0.243750X0.456250X0*%
%TD*%
%TA.AperFunction,ComponentPad*%
%ADD17R,1.500000X4.500000*%
%TD*%
%TA.AperFunction,ComponentPad*%
%ADD18Outline5P,-0.750000X2.250000X0.750000X2.250000X0.750000X-2.250000X-0.450000X-2.250000X-0.750000X-1.950000X270.000000*%
%TD*%
%TA.AperFunction,SMDPad,CuDef*%
%ADD19R,1.550000X1.300000*%
%TD*%
%TA.AperFunction,ViaPad*%
%ADD20C,0.800000*%
%TD*%
%TA.AperFunction,Conductor*%
%ADD21C,0.250000*%
%TD*%
G04 APERTURE END LIST*
D10*
%TO.P,H3,1*%
%TO.N,N/C*%
X145000000Y-45000000D03*
%TD*%
%TO.P,H1,1*%
%TO.N,N/C*%
X5000000Y-5000000D03*
%TD*%
D11*
%TO.P,J6,1,Pin_1*%
%TO.N,GND*%
X145400000Y-16250000D03*
D12*
%TO.P,J6,2,Pin_2*%
%TO.N,unconnected-(J6-Pin_2-Pad2)*%
X145100000Y-18790000D03*
%TO.P,J6,3,Pin_3*%
%TO.N,+3V3*%
X145400000Y-21330000D03*
%TO.P,J6,4,Pin_4*%
%TO.N,MCU_RX*%
X145100000Y-23870000D03*
%TO.P,J6,5,Pin_5*%
%TO.N,MCU_TX*%
X145400000Y-26410000D03*
%TO.P,J6,6,Pin_6*%
%TO.N,unconnected-(J6-Pin_6-Pad6)*%
X145100000Y-28950000D03*
%TD*%
D10*
%TO.P,H2,1*%
%TO.N,N/C*%
X145000000Y-5000000D03*
%TD*%
%TO.P,H4,1*%
%TO.N,N/C*%
X5000000Y-45000000D03*
%TD*%
D13*
%TO.P,RV3,1,1*%
%TO.N,+3V3*%
X62750000Y-25100000D03*
D14*
%TO.P,RV3,2,2*%
%TO.N,/B_POT*%
X60250000Y-25100000D03*
%TO.P,RV3,3,3*%
%TO.N,GND*%
X57750000Y-25100000D03*
D15*
%TO.P,RV3,MP*%
%TO.N,N/C*%
X55850000Y-18100000D03*
X64650000Y-18100000D03*
%TD*%
D13*
%TO.P,RV1,1,1*%
%TO.N,+3V3*%
X95250000Y-25050000D03*
D14*
%TO.P,RV1,2,2*%
%TO.N,/R_POT*%
X92750000Y-25050000D03*
%TO.P,RV1,3,3*%
%TO.N,GND*%
X90250000Y-25050000D03*
D15*
%TO.P,RV1,MP*%
%TO.N,N/C*%
X88350000Y-18050000D03*
X97150000Y-18050000D03*
%TD*%
D13*
%TO.P,RV2,1,1*%
%TO.N,+3V3*%
X79000000Y-25050000D03*
D14*
%TO.P,RV2,2,2*%
%TO.N,/G_POT*%
X76500000Y-25050000D03*
%TO.P,RV2,3,3*%
%TO.N,GND*%
X74000000Y-25050000D03*
D15*
%TO.P,RV2,MP*%
%TO.N,N/C*%
X72100000Y-18050000D03*
X80900000Y-18050000D03*
%TD*%
D16*
%TO.P,D1,1,K*%
%TO.N,GND*%
X75562500Y-32000000D03*
%TO.P,D1,2,A*%
%TO.N,Net-(D1-A)*%
X77437500Y-32000000D03*
%TD*%
D17*
%TO.P,J2,1*%
%TO.N,+12V*%
X127250000Y-41250000D03*
%TO.P,J2,2*%
%TO.N,GND*%
X137750000Y-41250000D03*
D18*
X132150000Y-45950000D03*
%TD*%
D19*
%TO.P,SW1,1,1*%
%TO.N,+3V3*%
X80475000Y-38250000D03*
X72525000Y-38250000D03*
%TO.P,SW1,2,2*%
%TO.N,BOOT0*%
X80475000Y-42750000D03*
X72525000Y-42750000D03*
%TD*%
D20*
%TO.N,GND*%
X12750000Y-12000000D03*
X115500000Y-15200000D03*
X18000000Y-13250000D03*
X135800000Y-25100000D03*
X39000000Y-13000000D03*
X120500000Y-18700000D03*
X17750000Y-38000000D03*
X34187501Y-36000000D03*
X7750000Y-14500000D03*
X7750000Y-13250000D03*
X33437501Y-12000000D03*
X140000000Y-7250000D03*
X112500000Y-14500000D03*
X136250000Y-11000000D03*
X49937500Y-36000000D03*
X131300000Y-28600000D03*
X119400000Y-11500000D03*
X43937500Y-12000000D03*
X47937500Y-38000000D03*
X12750000Y-14500000D03*
X115500000Y-13100000D03*
X49187500Y-12000000D03*
X131200000Y-37100000D03*
X135800000Y-28700000D03*
X43937500Y-13250000D03*
X120500000Y-21200000D03*
X33437501Y-14500000D03*
X134700000Y-28700000D03*
X23100000Y-13250000D03*
X16750000Y-38000000D03*
X49937500Y-37250000D03*
X124250000Y-8750000D03*
X33187501Y-38000000D03*
X129600000Y-30100000D03*
X136250000Y-7250000D03*
X18000000Y-14500000D03*
X122000000Y-10500000D03*
X49187500Y-14500000D03*
X18750000Y-37250000D03*
X140250000Y-16250000D03*
X129600000Y-35800000D03*
X131250000Y-3750000D03*
X133600000Y-28700000D03*
X39000000Y-11750000D03*
X23100000Y-12000000D03*
X28187501Y-12000000D03*
X112500000Y-16000000D03*
X39000000Y-14250000D03*
X28187501Y-14500000D03*
X74250000Y-32000000D03*
X32187501Y-38000000D03*
X43937500Y-14500000D03*
X18750000Y-36000000D03*
X142250000Y-26500000D03*
X133300000Y-25200000D03*
X18000000Y-12000000D03*
X112500000Y-13000000D03*
X120500000Y-16100000D03*
X12750000Y-13250000D03*
X34187501Y-37250000D03*
X140000000Y-11000000D03*
X33437501Y-13250000D03*
X131250000Y-5500000D03*
X117300000Y-11500000D03*
X139250000Y-21000000D03*
X130000000Y-24100000D03*
X23100000Y-14500000D03*
X28187501Y-13250000D03*
X49187500Y-13250000D03*
X7750000Y-12000000D03*
X115500000Y-17600000D03*
X135750000Y-16000000D03*
X48937500Y-38000000D03*
X126500000Y-8750000D03*
%TO.N,/LED2_R*%
X128700000Y-24500000D03*
X123800000Y-25900000D03*
%TO.N,/LED2_G*%
X127675685Y-23700000D03*
X123100000Y-24700000D03*
%TO.N,/LED1_B*%
X121700000Y-8900000D03*
X126250000Y-15750000D03*
%TO.N,Net-(D1-A)*%
X137400000Y-20000000D03*
%TO.N,+3V3*%
X121500000Y-19200000D03*
X136200000Y-12400000D03*
X131900000Y-9400000D03*
%TO.N,RESET*%
X134200000Y-5900000D03*
X125500000Y-18200000D03*
%TO.N,BOOT0*%
X126500000Y-31700000D03*
X125800000Y-20500000D03*
X127500000Y-15500000D03*
%TD*%
D21*
%TO.N,/LED2_R*%
X124651789Y-25048211D02*
X128151789Y-25048211D01*
X128151789Y-25048211D02*
X128700000Y-24500000D01*
X123800000Y-25900000D02*
X124651789Y-25048211D01*
%TO.N,/LED2_G*%
X123100000Y-24700000D02*
X123700000Y-24100000D01*
X123700000Y-24100000D02*
X127275685Y-24100000D01*
X127275685Y-24100000D02*
X127675685Y-23700000D01*
%TO.N,/LED1_B*%
X126250000Y-15750000D02*
X126250000Y-13450000D01*
X126250000Y-13450000D02*
X121700000Y-8900000D01*
%TO.N,Net-(D1-A)*%
X114100000Y-10500000D02*
X119900000Y-4700000D01*
X114100000Y-18537500D02*
X114100000Y-10500000D01*
X137400000Y-6200000D02*
X137400000Y-20000000D01*
X135900000Y-4700000D02*
X137400000Y-6200000D01*
X86937500Y-22500000D02*
X110137500Y-22500000D01*
X119900000Y-4700000D02*
X135900000Y-4700000D01*
X77437500Y-32000000D02*
X86937500Y-22500000D01*
X110137500Y-22500000D02*
X114100000Y-18537500D01*
%TO.N,+3V3*%
X79000000Y-25050000D02*
X72525000Y-31525000D01*
X121500000Y-19200000D02*
X121500000Y-23000000D01*
X133200000Y-9400000D02*
X136200000Y-12400000D01*
X121500000Y-23000000D02*
X119450000Y-25050000D01*
X131900000Y-9400000D02*
X133200000Y-9400000D01*
X72525000Y-38250000D02*
X80475000Y-38250000D01*
X72525000Y-31525000D02*
X72525000Y-38250000D01*
X119450000Y-25050000D02*
X95250000Y-25050000D01*
%TO.N,RESET*%
X134100000Y-5900000D02*
X134200000Y-5900000D01*
X129500000Y-16000000D02*
X129500000Y-10500000D01*
X125500000Y-18200000D02*
X127300000Y-18200000D01*
X127300000Y-18200000D02*
X129500000Y-16000000D01*
X129500000Y-10500000D02*
X134100000Y-5900000D01*
%TO.N,BOOT0*%
X115450000Y-42750000D02*
X80475000Y-42750000D01*
X72525000Y-42750000D02*
X80475000Y-42750000D01*
X124400000Y-18100000D02*
X124400000Y-19100000D01*
X126500000Y-31700000D02*
X115450000Y-42750000D01*
X125250000Y-17250000D02*
X124400000Y-18100000D01*
X127500000Y-15500000D02*
X127500000Y-16250000D01*
X126500000Y-17250000D02*
X125250000Y-17250000D01*
X127500000Y-16250000D02*
X126500000Y-17250000D01*
X124400000Y-19100000D02*
X125800000Y-20500000D01*
%TD*%
%TA.AperFunction,Conductor*%
%TO.N,GND*%
G36*
X146001124Y-551D02*
G01*
X146172950Y-8495D01*
X146373144Y-18331D01*
X146377464Y-18737D01*
X146563357Y-44668D01*
X146750360Y-72408D01*
X146754379Y-73179D01*
X146939391Y-116693D01*
X147120678Y-162104D01*
X147120682Y-162105D01*
X147124331Y-163171D01*
X147305175Y-223784D01*
X147305889Y-224031D01*
X147480785Y-286610D01*
X147484042Y-287910D01*
X147658883Y-365110D01*
X147659992Y-365616D01*
X147827389Y-444789D01*
X147830233Y-446252D01*
X147997449Y-539392D01*
X147998796Y-540170D01*
X148157312Y-635181D01*
X148159786Y-636768D01*
X148246360Y-696072D01*
X148317862Y-745052D01*
X148319359Y-746120D01*
X148467650Y-856100D01*
X148469743Y-857743D01*
X148617210Y-980198D01*
X148618749Y-981532D01*
X148755572Y-1105541D01*
X148757291Y-1107179D01*
X148892819Y-1242707D01*
X148894460Y-1244429D01*
X149018461Y-1381243D01*
X149019807Y-1382796D01*
X149142247Y-1530245D01*
X149143907Y-1532359D01*
X149253878Y-1680639D01*
X149254946Y-1682136D01*
X149363222Y-1840199D01*
X149364826Y-1842700D01*
X149459828Y-2001202D01*
X149460606Y-2002549D01*
X149553733Y-2169741D01*
X149555222Y-2172635D01*
X149634371Y-2339983D01*
X149634900Y-2341141D01*
X149712083Y-2515944D01*
X149713394Y-2519228D01*
X149775930Y-2694003D01*
X149776254Y-2694939D01*
X149836822Y-2875650D01*
X149837894Y-2879316D01*
X149883317Y-3060654D01*
X149926820Y-3245619D01*
X149927591Y-3249646D01*
X149955337Y-3436689D01*
X149981258Y-3622513D01*
X149981669Y-3626878D01*
X149991512Y-3827238D01*
X149999448Y-3998875D01*
X149999500Y-4001138D01*
X149999500Y-45998861D01*
X149999448Y-46001124D01*
X149991512Y-46172761D01*
X149981669Y-46373120D01*
X149981258Y-46377486D01*
X149955337Y-46563310D01*
X149927591Y-46750352D01*
X149926820Y-46754379D01*
X149883318Y-46939344D01*
X149837893Y-47120683D01*
X149836822Y-47124347D01*
X149776254Y-47305059D01*
X149775930Y-47305995D01*
X149713394Y-47480770D01*
X149712083Y-47484054D01*
X149634900Y-47658857D01*
X149634371Y-47660015D01*
X149555222Y-47827363D01*
X149553733Y-47830257D01*
X149460606Y-47997449D01*
X149459828Y-47998796D01*
X149364826Y-48157298D01*
X149363222Y-48159799D01*
X149254946Y-48317862D01*
X149253878Y-48319359D01*
X149143907Y-48467639D01*
X149142247Y-48469753D01*
X149019819Y-48617188D01*
X149018429Y-48618792D01*
X148894478Y-48755550D01*
X148892819Y-48757291D01*
X148757291Y-48892819D01*
X148755550Y-48894478D01*
X148618792Y-49018429D01*
X148617188Y-49019819D01*
X148469753Y-49142247D01*
X148467639Y-49143907D01*
X148319359Y-49253878D01*
X148317862Y-49254946D01*
X148159799Y-49363222D01*
X148157298Y-49364826D01*
X147998796Y-49459828D01*
X147997449Y-49460606D01*
X147830257Y-49553733D01*
X147827363Y-49555222D01*
X147660015Y-49634371D01*
X147658857Y-49634900D01*
X147484054Y-49712083D01*
X147480770Y-49713394D01*
X147305995Y-49775930D01*
X147305059Y-49776254D01*
X147124348Y-49836822D01*
X147120682Y-49837894D01*
X146939345Y-49883317D01*
X146754379Y-49926820D01*
X146750352Y-49927591D01*
X146563310Y-49955337D01*
X146377485Y-49981258D01*
X146373120Y-49981669D01*
X146172761Y-49991512D01*
X146001125Y-49999448D01*
X145998862Y-49999500D01*
X4001138Y-49999500D01*
X3998875Y-49999448D01*
X3827238Y-49991512D01*
X3626878Y-49981669D01*
X3622512Y-49981258D01*
X3436689Y-49955337D01*
X3249646Y-49927591D01*
X3245619Y-49926820D01*
X3060684Y-49883324D01*
X3011367Y-49870971D01*
X2879315Y-49837893D01*
X2875651Y-49836822D01*
X2694939Y-49776254D01*
X2694003Y-49775930D01*
X2519228Y-49713394D01*
X2515944Y-49712083D01*
X2341141Y-49634900D01*
X2339983Y-49634371D01*
X2172635Y-49555222D01*
X2169741Y-49553733D01*
X2002549Y-49460606D01*
X2001202Y-49459828D01*
X1842700Y-49364826D01*
X1840199Y-49363222D01*
X1682136Y-49254946D01*
X1680639Y-49253878D01*
X1532359Y-49143907D01*
X1530245Y-49142247D01*
X1382796Y-49019807D01*
X1381243Y-49018461D01*
X1244429Y-48894460D01*
X1242707Y-48892819D01*
X1107179Y-48757291D01*
X1105541Y-48755572D01*
X981532Y-48618749D01*
X980198Y-48617210D01*
X857743Y-48469743D01*
X856100Y-48467650D01*
X746120Y-48319359D01*
X745052Y-48317862D01*
X707637Y-48263243D01*
X636768Y-48159786D01*
X635181Y-48157312D01*
X540170Y-47998796D01*
X539392Y-47997449D01*
X513241Y-47950500D01*
X446252Y-47830233D01*
X444789Y-47827389D01*
X365616Y-47659992D01*
X365098Y-47658857D01*
X346887Y-47617612D01*
X287910Y-47484042D01*
X286610Y-47480785D01*
X224031Y-47305889D01*
X223784Y-47305175D01*
X163169Y-47124324D01*
X162111Y-47120706D01*
X116675Y-46939315D01*
X111402Y-46916895D01*
X73173Y-46754356D01*
X72409Y-46750364D01*
X44662Y-46563310D01*
X18738Y-46377466D01*
X18331Y-46373144D01*
X8487Y-46172761D01*
X552Y-46001124D01*
X500Y-45998861D01*
X500Y-45000000D01*
X2044500Y-45000000D01*
X2064484Y-45343113D01*
X2064730Y-45344508D01*
X2123919Y-45680188D01*
X2123921Y-45680199D01*
X2124166Y-45681585D01*
X2124569Y-45682934D01*
X2124572Y-45682943D01*
X2222330Y-46009480D01*
X2222333Y-46009488D01*
X2222738Y-46010841D01*
X2223299Y-46012143D01*
X2223300Y-46012144D01*
X2299177Y-46188045D01*
X2358869Y-46326426D01*
X2359581Y-46327660D01*
X2359585Y-46327667D01*
X2388348Y-46377486D01*
X2530716Y-46624074D01*
X2531561Y-46625209D01*
X2531565Y-46625215D01*
X2645337Y-46778037D01*
X2735956Y-46899759D01*
X2971813Y-47149753D01*
X3235098Y-47370675D01*
X3522250Y-47559538D01*
X3829386Y-47713788D01*
X4152353Y-47831338D01*
X4486783Y-47910599D01*
X4828153Y-47950500D01*
X4829572Y-47950500D01*
X5170428Y-47950500D01*
X5171847Y-47950500D01*
X5513217Y-47910599D01*
X5847647Y-47831338D01*
X6170614Y-47713788D01*
X6477750Y-47559538D01*
X6764902Y-47370675D01*
X7028187Y-47149753D01*
X7264044Y-46899759D01*
X7398097Y-46719695D01*
X129700000Y-46719695D01*
X129711604Y-46778037D01*
X129755808Y-46844191D01*
X129821962Y-46888395D01*
X129880304Y-46900000D01*
X132050000Y-46900000D01*
X132050000Y-46350000D01*
X132250000Y-46350000D01*
X132250000Y-46900000D01*
X134419696Y-46900000D01*
X134478037Y-46888395D01*
X134544191Y-46844191D01*
X134588395Y-46778037D01*
X134600000Y-46719695D01*
X134600000Y-46050000D01*
X133989148Y-46050000D01*
X134004986Y-45950000D01*
X133989148Y-45850000D01*
X134600000Y-45850000D01*
X134600000Y-45180304D01*
X134588395Y-45121962D01*
X134544191Y-45055808D01*
X134478037Y-45011604D01*
X134419696Y-45000000D01*
X142044500Y-45000000D01*
X142064484Y-45343113D01*
X142064730Y-45344508D01*
X142123919Y-45680188D01*
X142123921Y-45680199D01*
X142124166Y-45681585D01*
X142124569Y-45682934D01*
X142124572Y-45682943D01*
X142222330Y-46009480D01*
X142222333Y-46009488D01*
X142222738Y-46010841D01*
X142223299Y-46012143D01*
X142223300Y-46012144D01*
X142299177Y-46188045D01*
X142358869Y-46326426D01*
X142359581Y-46327660D01*
X142359585Y-46327667D01*
X142388348Y-46377486D01*
X142530716Y-46624074D01*
X142531561Y-46625209D01*
X142531565Y-46625215D01*
X142645337Y-46778037D01*
X142735956Y-46899759D01*
X142971813Y-47149753D01*
X143235098Y-47370675D01*
X143522250Y-47559538D01*
X143829386Y-47713788D01*
X144152353Y-47831338D01*
X144486783Y-47910599D01*
X144828153Y-47950500D01*
X144829572Y-47950500D01*
X145170428Y-47950500D01*
X145171847Y-47950500D01*
X145513217Y-47910599D01*
X145847647Y-47831338D01*
X146170614Y-47713788D01*
X146477750Y-47559538D01*
X146764902Y-47370675D01*
X147028187Y-47149753D01*
X147264044Y-46899759D01*
X147469284Y-46624074D01*
X147641131Y-46326426D01*
X147777262Y-46010841D01*
X147875834Y-45681585D01*
X147935516Y-45343113D01*
X147955500Y-45000000D01*
X147935516Y-44656887D01*
X147875834Y-44318415D01*
X147777262Y-43989159D01*
X147641131Y-43673574D01*
X147469284Y-43375926D01*
X147264044Y-43100241D01*
X147028187Y-42850247D01*
X146764902Y-42629325D01*
X146477750Y-42440462D01*
X146476481Y-42439825D01*
X146476473Y-42439820D01*
X146171886Y-42286851D01*
X146170614Y-42286212D01*
X146169276Y-42285725D01*
X145848984Y-42169148D01*
X145848974Y-42169145D01*
X145847647Y-42168662D01*
X145846264Y-42168334D01*
X145846260Y-42168333D01*
X145514611Y-42089731D01*
X145514604Y-42089729D01*
X145513217Y-42089401D01*
X145511803Y-42089235D01*
X145511799Y-42089235D01*
X145173253Y-42049664D01*
X145173247Y-42049663D01*
X145171847Y-42049500D01*
X144828153Y-42049500D01*
X144826753Y-42049663D01*
X144826746Y-42049664D01*
X144488200Y-42089235D01*
X144488193Y-42089236D01*
X144486783Y-42089401D01*
X144485398Y-42089729D01*
X144485388Y-42089731D01*
X144153739Y-42168333D01*
X144153730Y-42168335D01*
X144152353Y-42168662D01*
X144151030Y-42169143D01*
X144151015Y-42169148D01*
X143830723Y-42285725D01*
X143830717Y-42285727D01*
X143829386Y-42286212D01*
X143828117Y-42286849D01*
X143828113Y-42286851D01*
X143523526Y-42439820D01*
X143523510Y-42439828D01*
X143522250Y-42440462D01*
X143521065Y-42441241D01*
X143521057Y-42441246D01*
X143236289Y-42628541D01*
X143236281Y-42628546D01*
X143235098Y-42629325D01*
X143234016Y-42630232D01*
X143234005Y-42630241D01*
X142972901Y-42849333D01*
X142972890Y-42849342D01*
X142971813Y-42850247D01*
X142970840Y-42851277D01*
X142970836Y-42851282D01*
X142742272Y-43093546D01*
X142735956Y-43100241D01*
X142735112Y-43101374D01*
X142735105Y-43101383D01*
X142531565Y-43374784D01*
X142531556Y-43374797D01*
X142530716Y-43375926D01*
X142530007Y-43377153D01*
X142530003Y-43377160D01*
X142359585Y-43672332D01*
X142359577Y-43672346D01*
X142358869Y-43673574D01*
X142358306Y-43674878D01*
X142358303Y-43674885D01*
X142347470Y-43700000D01*
X142222738Y-43989159D01*
X142222334Y-43990505D01*
X142222330Y-43990519D01*
X142124572Y-44317056D01*
X142124568Y-44317069D01*
X142124166Y-44318415D01*
X142123922Y-44319797D01*
X142123919Y-44319811D01*
X142064730Y-44655491D01*
X142064484Y-44656887D01*
X142044500Y-45000000D01*
X134419696Y-45000000D01*
X132249999Y-45000000D01*
X132249999Y-45550000D01*
X132050000Y-45550000D01*
X132050000Y-45000000D01*
X130180307Y-45000000D01*
X130121962Y-45011605D01*
X130072503Y-45044653D01*
X129744650Y-45372506D01*
X129711604Y-45421962D01*
X129700000Y-45480304D01*
X129700000Y-45850000D01*
X130310852Y-45850000D01*
X130295014Y-45950000D01*
X130310852Y-46050000D01*
X129700000Y-46050000D01*
X129700000Y-46719695D01*
X7398097Y-46719695D01*
X7469284Y-46624074D01*
X7641131Y-46326426D01*
X7777262Y-46010841D01*
X7875834Y-45681585D01*
X7935516Y-45343113D01*
X7955500Y-45000000D01*
X7935516Y-44656887D01*
X7875834Y-44318415D01*
X7777262Y-43989159D01*
X7641131Y-43673574D01*
X7494586Y-43419750D01*
X71549500Y-43419750D01*
X71561132Y-43478229D01*
X71605447Y-43544552D01*
X71638608Y-43566709D01*
X71671769Y-43588867D01*
X71686389Y-43591775D01*
X71730249Y-43600500D01*
X71730252Y-43600500D01*
X73319751Y-43600500D01*
X73354837Y-43593520D01*
X73378231Y-43588867D01*
X73444552Y-43544552D01*
X73488867Y-43478231D01*
X73500500Y-43419748D01*
X73500500Y-43124500D01*
X73514852Y-43089852D01*
X73549500Y-43075500D01*
X79450500Y-43075500D01*
X79485148Y-43089852D01*
X79499500Y-43124500D01*
X79499500Y-43419750D01*
X79511132Y-43478229D01*
X79555447Y-43544552D01*
X79588608Y-43566709D01*
X79621769Y-43588867D01*
X79636389Y-43591775D01*
X79680249Y-43600500D01*
X79680252Y-43600500D01*
X81269751Y-43600500D01*
X81304837Y-43593520D01*
X81328231Y-43588867D01*
X81394552Y-43544552D01*
X81411124Y-43519750D01*
X126299500Y-43519750D01*
X126311132Y-43578229D01*
X126355447Y-43644552D01*
X126388608Y-43666709D01*
X126421769Y-43688867D01*
X126436389Y-43691775D01*
X126480249Y-43700500D01*
X126480252Y-43700500D01*
X128019751Y-43700500D01*
X128054837Y-43693520D01*
X128078231Y-43688867D01*
X128144552Y-43644552D01*
X128188867Y-43578231D01*
X128200500Y-43519748D01*
X128200500Y-43519695D01*
X136800000Y-43519695D01*
X136811604Y-43578037D01*
X136855808Y-43644191D01*
X136921962Y-43688395D01*
X136980304Y-43700000D01*
X137650000Y-43700000D01*
X137650000Y-43083454D01*
X137721840Y-43103895D01*
X137833521Y-43093546D01*
X137850000Y-43085340D01*
X137850000Y-43700000D01*
X138519696Y-43700000D01*
X138578037Y-43688395D01*
X138644191Y-43644191D01*
X138688395Y-43578037D01*
X138700000Y-43519695D01*
X138700000Y-41350000D01*
X138050000Y-41350000D01*
X138050000Y-41150000D01*
X138700000Y-41150000D01*
X138700000Y-38980304D01*
X138688395Y-38921962D01*
X138644191Y-38855808D01*
X138578037Y-38811604D01*
X138519696Y-38800000D01*
X137850000Y-38800000D01*
X137850000Y-39416545D01*
X137778160Y-39396105D01*
X137666479Y-39406454D01*
X137650000Y-39414659D01*
X137650000Y-38800000D01*
X136980304Y-38800000D01*
X136921962Y-38811604D01*
X136855808Y-38855808D01*
X136811604Y-38921962D01*
X136800000Y-38980304D01*
X136800000Y-41150000D01*
X137450000Y-41150000D01*
X137450000Y-41350000D01*
X136800000Y-41350000D01*
X136800000Y-43519695D01*
X128200500Y-43519695D01*
X128200500Y-38980252D01*
X128200500Y-38980249D01*
X128188867Y-38921770D01*
X128188867Y-38921769D01*
X128144793Y-38855808D01*
X128144552Y-38855447D01*
X128094923Y-38822286D01*
X128078231Y-38811133D01*
X128078230Y-38811132D01*
X128078229Y-38811132D01*
X128019751Y-38799500D01*
X128019748Y-38799500D01*
X126480252Y-38799500D01*
X126480249Y-38799500D01*
X126421770Y-38811132D01*
X126355447Y-38855447D01*
X126311132Y-38921770D01*
X126299500Y-38980249D01*
X126299500Y-43519750D01*
X81411124Y-43519750D01*
X81438867Y-43478231D01*
X81450500Y-43419748D01*
X81450500Y-43124500D01*
X81464852Y-43089852D01*
X81499500Y-43075500D01*
X115433641Y-43075500D01*
X115437911Y-43075685D01*
X115478807Y-43079264D01*
X115518462Y-43068637D01*
X115522623Y-43067715D01*
X115563045Y-43060588D01*
X115570052Y-43056541D01*
X115581865Y-43051648D01*
X115589684Y-43049554D01*
X115623330Y-43025993D01*
X115626885Y-43023729D01*
X115662455Y-43003194D01*
X115688854Y-42971731D01*
X115691721Y-42968603D01*
X126354467Y-32305857D01*
X126389114Y-32291506D01*
X126395509Y-32291924D01*
X126500000Y-32305682D01*
X126656762Y-32285044D01*
X126802841Y-32224536D01*
X126928282Y-32128282D01*
X127024536Y-32002841D01*
X127085044Y-31856762D01*
X127105682Y-31700000D01*
X127085044Y-31543238D01*
X127024536Y-31397159D01*
X126975935Y-31333821D01*
X126928282Y-31271717D01*
X126802842Y-31175465D01*
X126802841Y-31175464D01*
X126656762Y-31114956D01*
X126500000Y-31094318D01*
X126343237Y-31114956D01*
X126197157Y-31175465D01*
X126071717Y-31271717D01*
X125975465Y-31397157D01*
X125975464Y-31397158D01*
X125975464Y-31397159D01*
X125972239Y-31404944D01*
X125914956Y-31543237D01*
X125894318Y-31699999D01*
X125908074Y-31804487D01*
X125898367Y-31840712D01*
X125894141Y-31845531D01*
X115329526Y-42410148D01*
X115294878Y-42424500D01*
X81499500Y-42424500D01*
X81464852Y-42410148D01*
X81450500Y-42375500D01*
X81450500Y-42080249D01*
X81438867Y-42021770D01*
X81438867Y-42021769D01*
X81416709Y-41988608D01*
X81394552Y-41955447D01*
X81344923Y-41922286D01*
X81328231Y-41911133D01*
X81328230Y-41911132D01*
X81328229Y-41911132D01*
X81269751Y-41899500D01*
X81269748Y-41899500D01*
X79680252Y-41899500D01*
X79680249Y-41899500D01*
X79621770Y-41911132D01*
X79555447Y-41955447D01*
X79511132Y-42021770D01*
X79499500Y-42080249D01*
X79499500Y-42375500D01*
X79485148Y-42410148D01*
X79450500Y-42424500D01*
X73549500Y-42424500D01*
X73514852Y-42410148D01*
X73500500Y-42375500D01*
X73500500Y-42080249D01*
X73488867Y-42021770D01*
X73488867Y-42021769D01*
X73466709Y-41988608D01*
X73444552Y-41955447D01*
X73394923Y-41922286D01*
X73378231Y-41911133D01*
X73378230Y-41911132D01*
X73378229Y-41911132D01*
X73319751Y-41899500D01*
X73319748Y-41899500D01*
X71730252Y-41899500D01*
X71730249Y-41899500D01*
X71671770Y-41911132D01*
X71605447Y-41955447D01*
X71561132Y-42021770D01*
X71549500Y-42080249D01*
X71549500Y-43419750D01*
X7494586Y-43419750D01*
X7469284Y-43375926D01*
X7264044Y-43100241D01*
X7028187Y-42850247D01*
X6764902Y-42629325D01*
X6477750Y-42440462D01*
X6476481Y-42439825D01*
X6476473Y-42439820D01*
X6171886Y-42286851D01*
X6170614Y-42286212D01*
X6169276Y-42285725D01*
X5848984Y-42169148D01*
X5848974Y-42169145D01*
X5847647Y-42168662D01*
X5846264Y-42168334D01*
X5846260Y-42168333D01*
X5514611Y-42089731D01*
X5514604Y-42089729D01*
X5513217Y-42089401D01*
X5511803Y-42089235D01*
X5511799Y-42089235D01*
X5173253Y-42049664D01*
X5173247Y-42049663D01*
X5171847Y-42049500D01*
X4828153Y-42049500D01*
X4826753Y-42049663D01*
X4826746Y-42049664D01*
X4488200Y-42089235D01*
X4488193Y-42089236D01*
X4486783Y-42089401D01*
X4485398Y-42089729D01*
X4485388Y-42089731D01*
X4153739Y-42168333D01*
X4153730Y-42168335D01*
X4152353Y-42168662D01*
X4151030Y-42169143D01*
X4151015Y-42169148D01*
X3830723Y-42285725D01*
X3830717Y-42285727D01*
X3829386Y-42286212D01*
X3828117Y-42286849D01*
X3828113Y-42286851D01*
X3523526Y-42439820D01*
X3523510Y-42439828D01*
X3522250Y-42440462D01*
X3521065Y-42441241D01*
X3521057Y-42441246D01*
X3236289Y-42628541D01*
X3236281Y-42628546D01*
X3235098Y-42629325D01*
X3234016Y-42630232D01*
X3234005Y-42630241D01*
X2972901Y-42849333D01*
X2972890Y-42849342D01*
X2971813Y-42850247D01*
X2970840Y-42851277D01*
X2970836Y-42851282D01*
X2742272Y-43093546D01*
X2735956Y-43100241D01*
X2735112Y-43101374D01*
X2735105Y-43101383D01*
X2531565Y-43374784D01*
X2531556Y-43374797D01*
X2530716Y-43375926D01*
X2530007Y-43377153D01*
X2530003Y-43377160D01*
X2359585Y-43672332D01*
X2359577Y-43672346D01*
X2358869Y-43673574D01*
X2358306Y-43674878D01*
X2358303Y-43674885D01*
X2347470Y-43700000D01*
X2222738Y-43989159D01*
X2222334Y-43990505D01*
X2222330Y-43990519D01*
X2124572Y-44317056D01*
X2124568Y-44317069D01*
X2124166Y-44318415D01*
X2123922Y-44319797D01*
X2123919Y-44319811D01*
X2064730Y-44655491D01*
X2064484Y-44656887D01*
X2044500Y-45000000D01*
X500Y-45000000D01*
X500Y-38919750D01*
X71549500Y-38919750D01*
X71561132Y-38978229D01*
X71561132Y-38978230D01*
X71561133Y-38978231D01*
X71562518Y-38980304D01*
X71605447Y-39044552D01*
X71638608Y-39066709D01*
X71671769Y-39088867D01*
X71686389Y-39091775D01*
X71730249Y-39100500D01*
X71730252Y-39100500D01*
X73319751Y-39100500D01*
X73354837Y-39093520D01*
X73378231Y-39088867D01*
X73444552Y-39044552D01*
X73488867Y-38978231D01*
X73500500Y-38919748D01*
X73500500Y-38624500D01*
X73514852Y-38589852D01*
X73549500Y-38575500D01*
X79450500Y-38575500D01*
X79485148Y-38589852D01*
X79499500Y-38624500D01*
X79499500Y-38919750D01*
X79511132Y-38978229D01*
X79511132Y-38978230D01*
X79511133Y-38978231D01*
X79512518Y-38980304D01*
X79555447Y-39044552D01*
X79588608Y-39066709D01*
X79621769Y-39088867D01*
X79636389Y-39091775D01*
X79680249Y-39100500D01*
X79680252Y-39100500D01*
X81269751Y-39100500D01*
X81304837Y-39093520D01*
X81328231Y-39088867D01*
X81394552Y-39044552D01*
X81438867Y-38978231D01*
X81450500Y-38919748D01*
X81450500Y-37580252D01*
X81450500Y-37580251D01*
X81450500Y-37580249D01*
X81438867Y-37521770D01*
X81438867Y-37521769D01*
X81416709Y-37488608D01*
X81394552Y-37455447D01*
X81344923Y-37422286D01*
X81328231Y-37411133D01*
X81328230Y-37411132D01*
X81328229Y-37411132D01*
X81269751Y-37399500D01*
X81269748Y-37399500D01*
X79680252Y-37399500D01*
X79680249Y-37399500D01*
X79621770Y-37411132D01*
X79555447Y-37455447D01*
X79511132Y-37521770D01*
X79499500Y-37580249D01*
X79499500Y-37875500D01*
X79485148Y-37910148D01*
X79450500Y-37924500D01*
X73549500Y-37924500D01*
X73514852Y-37910148D01*
X73500500Y-37875500D01*
X73500500Y-37580249D01*
X73488867Y-37521770D01*
X73488867Y-37521769D01*
X73466709Y-37488608D01*
X73444552Y-37455447D01*
X73394923Y-37422286D01*
X73378231Y-37411133D01*
X73378230Y-37411132D01*
X73378229Y-37411132D01*
X73319751Y-37399500D01*
X73319748Y-37399500D01*
X72899500Y-37399500D01*
X72864852Y-37385148D01*
X72850500Y-37350500D01*
X72850500Y-32100000D01*
X74875001Y-32100000D01*
X74875001Y-32508556D01*
X74875107Y-32510825D01*
X74877812Y-32539681D01*
X74921991Y-32665939D01*
X75001426Y-32773573D01*
X75109059Y-32853007D01*
X75235319Y-32897187D01*
X75264175Y-32899894D01*
X75266440Y-32899999D01*
X75462499Y-32899999D01*
X75462500Y-32899998D01*
X75462500Y-32100000D01*
X75662500Y-32100000D01*
X75662500Y-32899999D01*
X75858557Y-32899999D01*
X75860825Y-32899892D01*
X75889681Y-32897187D01*
X76015939Y-32853008D01*
X76123573Y-32773573D01*
X76203007Y-32665940D01*
X76247187Y-32539680D01*
X76249894Y-32510824D01*
X76249944Y-32509764D01*
X76749500Y-32509764D01*
X76749604Y-32510873D01*
X76749605Y-32510894D01*
X76752314Y-32539774D01*
X76796545Y-32666179D01*
X76876069Y-32773930D01*
X76955593Y-32832622D01*
X76983821Y-32853455D01*
X77110226Y-32897686D01*
X77137524Y-32900245D01*
X77139105Y-32900394D01*
X77139106Y-32900394D01*
X77140236Y-32900500D01*
X77141372Y-32900500D01*
X77733628Y-32900500D01*
X77734764Y-32900500D01*
X77764774Y-32897686D01*
X77891179Y-32853455D01*
X77998930Y-32773930D01*
X78078455Y-32666179D01*
X78122686Y-32539774D01*
X78125500Y-32509764D01*
X78125500Y-31792620D01*
X78139852Y-31757973D01*
X80947825Y-28950000D01*
X144044417Y-28950000D01*
X144064699Y-29155934D01*
X144124767Y-29353952D01*
X144124768Y-29353954D01*
X144222315Y-29536450D01*
X144353590Y-29696410D01*
X144513550Y-29827685D01*
X144696046Y-29925232D01*
X144795056Y-29955266D01*
X144894065Y-29985300D01*
X144914348Y-29987297D01*
X145100000Y-30005583D01*
X145305934Y-29985300D01*
X145503954Y-29925232D01*
X145686450Y-29827685D01*
X145846410Y-29696410D01*
X145977685Y-29536450D01*
X146075232Y-29353954D01*
X146135300Y-29155934D01*
X146155583Y-28950000D01*
X146135300Y-28744066D01*
X146075232Y-28546046D01*
X145977685Y-28363550D01*
X145846410Y-28203590D01*
X145686450Y-28072315D01*
X145503954Y-27974768D01*
X145503953Y-27974767D01*
X145503952Y-27974767D01*
X145305934Y-27914699D01*
X145100000Y-27894417D01*
X144894065Y-27914699D01*
X144696047Y-27974767D01*
X144513550Y-28072315D01*
X144353590Y-28203590D01*
X144222315Y-28363550D01*
X144124767Y-28546047D01*
X144064699Y-28744065D01*
X144044417Y-28950000D01*
X80947825Y-28950000D01*
X84847826Y-25050000D01*
X89145286Y-25050000D01*
X89164097Y-25252992D01*
X89219884Y-25449065D01*
X89310753Y-25631555D01*
X89403804Y-25754774D01*
X89832848Y-25325729D01*
X89868239Y-25380798D01*
X89971311Y-25470109D01*
X89545330Y-25896089D01*
X89584259Y-25931577D01*
X89757588Y-26038899D01*
X89947678Y-26112539D01*
X90148073Y-26150000D01*
X90351927Y-26150000D01*
X90552321Y-26112539D01*
X90742411Y-26038899D01*
X90915737Y-25931580D01*
X90954668Y-25896088D01*
X90528688Y-25470109D01*
X90631761Y-25380798D01*
X90667150Y-25325730D01*
X91096194Y-25754774D01*
X91189246Y-25631555D01*
X91280115Y-25449065D01*
X91335902Y-25252992D01*
X91354713Y-25050000D01*
X91644784Y-25050000D01*
X91663603Y-25253084D01*
X91719417Y-25449249D01*
X91810326Y-25631820D01*
X91933234Y-25794578D01*
X91988082Y-25844578D01*
X92083959Y-25931981D01*
X92257363Y-26039348D01*
X92447544Y-26113024D01*
X92648024Y-26150500D01*
X92648026Y-26150500D01*
X92851974Y-26150500D01*
X92851976Y-26150500D01*
X93052456Y-26113024D01*
X93242637Y-26039348D01*
X93355042Y-25969750D01*
X94149500Y-25969750D01*
X94161132Y-26028229D01*
X94205447Y-26094552D01*
X94232367Y-26112539D01*
X94271769Y-26138867D01*
X94286389Y-26141775D01*
X94330249Y-26150500D01*
X94330252Y-26150500D01*
X96169751Y-26150500D01*
X96204837Y-26143520D01*
X96228231Y-26138867D01*
X96294552Y-26094552D01*
X96338867Y-26028231D01*
X96348067Y-25981980D01*
X96350500Y-25969750D01*
X96350500Y-25900000D01*
X123194318Y-25900000D01*
X123214956Y-26056762D01*
X123275464Y-26202841D01*
X123275465Y-26202842D01*
X123371717Y-26328282D01*
X123449801Y-26388197D01*
X123497159Y-26424536D01*
X123643238Y-26485044D01*
X123800000Y-26505682D01*
X123956762Y-26485044D01*
X124102841Y-26424536D01*
X124121785Y-26410000D01*
X144344417Y-26410000D01*
X144364699Y-26615934D01*
X144424767Y-26813952D01*
X144424768Y-26813954D01*
X144522315Y-26996450D01*
X144653590Y-27156410D01*
X144813550Y-27287685D01*
X144996046Y-27385232D01*
X145095056Y-27415266D01*
X145194065Y-27445300D01*
X145212529Y-27447118D01*
X145400000Y-27465583D01*
X145605934Y-27445300D01*
X145803954Y-27385232D01*
X145986450Y-27287685D01*
X146146410Y-27156410D01*
X146277685Y-26996450D01*
X146375232Y-26813954D01*
X146435300Y-26615934D01*
X146455583Y-26410000D01*
X146435300Y-26204066D01*
X146434928Y-26202841D01*
X146385198Y-26038899D01*
X146375232Y-26006046D01*
X146277685Y-25823550D01*
X146146410Y-25663590D01*
X145986450Y-25532315D01*
X145803954Y-25434768D01*
X145803953Y-25434767D01*
X145803952Y-25434767D01*
X145605934Y-25374699D01*
X145400000Y-25354417D01*
X145194065Y-25374699D01*
X144996047Y-25434767D01*
X144813550Y-25532315D01*
X144653590Y-25663590D01*
X144522315Y-25823550D01*
X144424767Y-26006047D01*
X144364699Y-26204065D01*
X144344417Y-26410000D01*
X124121785Y-26410000D01*
X124228282Y-26328282D01*
X124324536Y-26202841D01*
X124385044Y-26056762D01*
X124405682Y-25900000D01*
X124391925Y-25795509D01*
X124401632Y-25759285D01*
X124405850Y-25754474D01*
X124772262Y-25388063D01*
X124806911Y-25373711D01*
X128135430Y-25373711D01*
X128139700Y-25373896D01*
X128180596Y-25377475D01*
X128220251Y-25366848D01*
X128224412Y-25365926D01*
X128264834Y-25358799D01*
X128271841Y-25354752D01*
X128283654Y-25349859D01*
X128291473Y-25347765D01*
X128325119Y-25324204D01*
X128328674Y-25321940D01*
X128364244Y-25301405D01*
X128390643Y-25269942D01*
X128393510Y-25266814D01*
X128554467Y-25105857D01*
X128589114Y-25091506D01*
X128595509Y-25091924D01*
X128700000Y-25105682D01*
X128856762Y-25085044D01*
X129002841Y-25024536D01*
X129128282Y-24928282D01*
X129224536Y-24802841D01*
X129285044Y-24656762D01*
X129305682Y-24500000D01*
X129285044Y-24343238D01*
X129224536Y-24197159D01*
X129166688Y-24121770D01*
X129128282Y-24071717D01*
X129026519Y-23993633D01*
X129002841Y-23975464D01*
X128856762Y-23914956D01*
X128700000Y-23894318D01*
X128543237Y-23914956D01*
X128458634Y-23950000D01*
X128431760Y-23961132D01*
X128397157Y-23975465D01*
X128271717Y-24071717D01*
X128175465Y-24197157D01*
X128175464Y-24197158D01*
X128175464Y-24197159D01*
X128166657Y-24218420D01*
X128114956Y-24343237D01*
X128094318Y-24500000D01*
X128108074Y-24604488D01*
X128098367Y-24640713D01*
X128094147Y-24645525D01*
X128031314Y-24708359D01*
X127996667Y-24722711D01*
X124668148Y-24722711D01*
X124663877Y-24722525D01*
X124622981Y-24718946D01*
X124583317Y-24729574D01*
X124579146Y-24730498D01*
X124538744Y-24737622D01*
X124531733Y-24741670D01*
X124519922Y-24746562D01*
X124512103Y-24748657D01*
X124478490Y-24772193D01*
X124474888Y-24774488D01*
X124439334Y-24795016D01*
X124412944Y-24826465D01*
X124410057Y-24829615D01*
X123945531Y-25294141D01*
X123910883Y-25308493D01*
X123904488Y-25308074D01*
X123800000Y-25294318D01*
X123799999Y-25294318D01*
X123643237Y-25314956D01*
X123547971Y-25354417D01*
X123499004Y-25374700D01*
X123497157Y-25375465D01*
X123371717Y-25471717D01*
X123275465Y-25597157D01*
X123275464Y-25597158D01*
X123275464Y-25597159D01*
X123214956Y-25743238D01*
X123194318Y-25900000D01*
X96350500Y-25900000D01*
X96350500Y-25424500D01*
X96364852Y-25389852D01*
X96399500Y-25375500D01*
X119433641Y-25375500D01*
X119437911Y-25375685D01*
X119478807Y-25379264D01*
X119518462Y-25368637D01*
X119522623Y-25367715D01*
X119563045Y-25360588D01*
X119570052Y-25356541D01*
X119581865Y-25351648D01*
X119589684Y-25349554D01*
X119623330Y-25325993D01*
X119626885Y-25323729D01*
X119662455Y-25303194D01*
X119688854Y-25271731D01*
X119691721Y-25268603D01*
X120260324Y-24700000D01*
X122494318Y-24700000D01*
X122514956Y-24856762D01*
X122575464Y-25002841D01*
X122575465Y-25002842D01*
X122671717Y-25128282D01*
X122728548Y-25171889D01*
X122797159Y-25224536D01*
X122943238Y-25285044D01*
X123100000Y-25305682D01*
X123256762Y-25285044D01*
X123402841Y-25224536D01*
X123528282Y-25128282D01*
X123624536Y-25002841D01*
X123685044Y-24856762D01*
X123705682Y-24700000D01*
X123691925Y-24595509D01*
X123701632Y-24559285D01*
X123705842Y-24554482D01*
X123820475Y-24439850D01*
X123855122Y-24425500D01*
X127259326Y-24425500D01*
X127263596Y-24425685D01*
X127304492Y-24429264D01*
X127344147Y-24418637D01*
X127348308Y-24417715D01*
X127388730Y-24410588D01*
X127395737Y-24406541D01*
X127407550Y-24401648D01*
X127415369Y-24399554D01*
X127449015Y-24375993D01*
X127452570Y-24373729D01*
X127488140Y-24353194D01*
X127514539Y-24321731D01*
X127517406Y-24318603D01*
X127530152Y-24305857D01*
X127564799Y-24291506D01*
X127571194Y-24291924D01*
X127675685Y-24305682D01*
X127832447Y-24285044D01*
X127978526Y-24224536D01*
X128103967Y-24128282D01*
X128200221Y-24002841D01*
X128255246Y-23869999D01*
X144044417Y-23869999D01*
X144064699Y-24075934D01*
X144124767Y-24273952D01*
X144124768Y-24273954D01*
X144222315Y-24456450D01*
X144353590Y-24616410D01*
X144513550Y-24747685D01*
X144696046Y-24845232D01*
X144734056Y-24856762D01*
X144894065Y-24905300D01*
X144912529Y-24907118D01*
X145100000Y-24925583D01*
X145305934Y-24905300D01*
X145503954Y-24845232D01*
X145686450Y-24747685D01*
X145846410Y-24616410D01*
X145977685Y-24456450D01*
X146075232Y-24273954D01*
X146135300Y-24075934D01*
X146155583Y-23870000D01*
X146135300Y-23664066D01*
X146075232Y-23466046D01*
X145977685Y-23283550D01*
X145846410Y-23123590D01*
X145686450Y-22992315D01*
X145503954Y-22894768D01*
X145503953Y-22894767D01*
X145503952Y-22894767D01*
X145305934Y-22834699D01*
X145100000Y-22814417D01*
X144894065Y-22834699D01*
X144696047Y-22894767D01*
X144513550Y-22992315D01*
X144353590Y-23123590D01*
X144222315Y-23283550D01*
X144124767Y-23466047D01*
X144064699Y-23664065D01*
X144044417Y-23869999D01*
X128255246Y-23869999D01*
X128260729Y-23856762D01*
X128281367Y-23700000D01*
X128260729Y-23543238D01*
X128200221Y-23397159D01*
X128163882Y-23349801D01*
X128103967Y-23271717D01*
X127978527Y-23175465D01*
X127978526Y-23175464D01*
X127832447Y-23114956D01*
X127675685Y-23094318D01*
X127518922Y-23114956D01*
X127372842Y-23175465D01*
X127247402Y-23271717D01*
X127151150Y-23397157D01*
X127090641Y-23543237D01*
X127070003Y-23700000D01*
X127072518Y-23719104D01*
X127062811Y-23755330D01*
X127030333Y-23774081D01*
X127023937Y-23774500D01*
X123716350Y-23774500D01*
X123712081Y-23774314D01*
X123671193Y-23770737D01*
X123671192Y-23770737D01*
X123631536Y-23781362D01*
X123627384Y-23782282D01*
X123586955Y-23789412D01*
X123586953Y-23789412D01*
X123586953Y-23789413D01*
X123579944Y-23793459D01*
X123568133Y-23798351D01*
X123560314Y-23800446D01*
X123526701Y-23823982D01*
X123523099Y-23826277D01*
X123487545Y-23846805D01*
X123461155Y-23878254D01*
X123458268Y-23881404D01*
X123245531Y-24094141D01*
X123210883Y-24108493D01*
X123204488Y-24108074D01*
X123100000Y-24094318D01*
X123099999Y-24094318D01*
X122943237Y-24114956D01*
X122797157Y-24175465D01*
X122671717Y-24271717D01*
X122575465Y-24397157D01*
X122575464Y-24397158D01*
X122575464Y-24397159D01*
X122574472Y-24399554D01*
X122525336Y-24518179D01*
X122514956Y-24543238D01*
X122494318Y-24700000D01*
X120260324Y-24700000D01*
X121718605Y-23241719D01*
X121721747Y-23238841D01*
X121753194Y-23212455D01*
X121773729Y-23176885D01*
X121775993Y-23173330D01*
X121799554Y-23139684D01*
X121801648Y-23131865D01*
X121806541Y-23120052D01*
X121810588Y-23113045D01*
X121817715Y-23072623D01*
X121818640Y-23068452D01*
X121829264Y-23028807D01*
X121825686Y-22987908D01*
X121825500Y-22983638D01*
X121825500Y-21535934D01*
X121825500Y-21330000D01*
X144344417Y-21330000D01*
X144364699Y-21535934D01*
X144424767Y-21733952D01*
X144424768Y-21733954D01*
X144522315Y-21916450D01*
X144653590Y-22076410D01*
X144813550Y-22207685D01*
X144996046Y-22305232D01*
X145095056Y-22335266D01*
X145194065Y-22365300D01*
X145212529Y-22367118D01*
X145400000Y-22385583D01*
X145605934Y-22365300D01*
X145803954Y-22305232D01*
X145986450Y-22207685D01*
X146146410Y-22076410D01*
X146277685Y-21916450D01*
X146375232Y-21733954D01*
X146435300Y-21535934D01*
X146455583Y-21330000D01*
X146435300Y-21124066D01*
X146429723Y-21105682D01*
X146375232Y-20926047D01*
X146375232Y-20926046D01*
X146277685Y-20743550D01*
X146146410Y-20583590D01*
X145986450Y-20452315D01*
X145803954Y-20354768D01*
X145803953Y-20354767D01*
X145803952Y-20354767D01*
X145605934Y-20294699D01*
X145400000Y-20274417D01*
X145194065Y-20294699D01*
X144996047Y-20354767D01*
X144813550Y-20452315D01*
X144653590Y-20583590D01*
X144522315Y-20743550D01*
X144424767Y-20926047D01*
X144364699Y-21124065D01*
X144344417Y-21330000D01*
X121825500Y-21330000D01*
X121825500Y-19731309D01*
X121839851Y-19696664D01*
X121844647Y-19692456D01*
X121928282Y-19628282D01*
X122024536Y-19502841D01*
X122085044Y-19356762D01*
X122105682Y-19200000D01*
X122085044Y-19043238D01*
X122024536Y-18897159D01*
X121988197Y-18849801D01*
X121928282Y-18771717D01*
X121805084Y-18677185D01*
X121802841Y-18675464D01*
X121656762Y-18614956D01*
X121500000Y-18594318D01*
X121343237Y-18614956D01*
X121197157Y-18675465D01*
X121071717Y-18771717D01*
X120975465Y-18897157D01*
X120975464Y-18897158D01*
X120975464Y-18897159D01*
X120914956Y-19043238D01*
X120894318Y-19200000D01*
X120914956Y-19356762D01*
X120975464Y-19502841D01*
X120987522Y-19518555D01*
X121071717Y-19628282D01*
X121105758Y-19654402D01*
X121155328Y-19692438D01*
X121174080Y-19724916D01*
X121174499Y-19731312D01*
X121174499Y-22844877D01*
X121160147Y-22879525D01*
X119329526Y-24710148D01*
X119294878Y-24724500D01*
X96399500Y-24724500D01*
X96364852Y-24710148D01*
X96350500Y-24675500D01*
X96350500Y-24130249D01*
X96338867Y-24071770D01*
X96338867Y-24071769D01*
X96298351Y-24011133D01*
X96294552Y-24005447D01*
X96244923Y-23972286D01*
X96228231Y-23961133D01*
X96228230Y-23961132D01*
X96228229Y-23961132D01*
X96169751Y-23949500D01*
X96169748Y-23949500D01*
X94330252Y-23949500D01*
X94330249Y-23949500D01*
X94271770Y-23961132D01*
X94205447Y-24005447D01*
X94161132Y-24071770D01*
X94149500Y-24130249D01*
X94149500Y-25969750D01*
X93355042Y-25969750D01*
X93416041Y-25931981D01*
X93566764Y-25794579D01*
X93689673Y-25631821D01*
X93780582Y-25449250D01*
X93836397Y-25253083D01*
X93855215Y-25050000D01*
X93836397Y-24846917D01*
X93780582Y-24650750D01*
X93689673Y-24468179D01*
X93657584Y-24425686D01*
X93566765Y-24305421D01*
X93478035Y-24224534D01*
X93416041Y-24168019D01*
X93242637Y-24060652D01*
X93242635Y-24060651D01*
X93093411Y-24002842D01*
X93052456Y-23986976D01*
X92851976Y-23949500D01*
X92648024Y-23949500D01*
X92447544Y-23986976D01*
X92447541Y-23986976D01*
X92447541Y-23986977D01*
X92257364Y-24060651D01*
X92083959Y-24168019D01*
X91933234Y-24305421D01*
X91810326Y-24468179D01*
X91719417Y-24650750D01*
X91663603Y-24846915D01*
X91644784Y-25050000D01*
X91354713Y-25050000D01*
X91335902Y-24847007D01*
X91280115Y-24650934D01*
X91189246Y-24468444D01*
X91096194Y-24345224D01*
X90667150Y-24774268D01*
X90631761Y-24719202D01*
X90528687Y-24629889D01*
X90954668Y-24203909D01*
X90915740Y-24168422D01*
X90742411Y-24061100D01*
X90552321Y-23987460D01*
X90351927Y-23950000D01*
X90148073Y-23950000D01*
X89947678Y-23987460D01*
X89757588Y-24061100D01*
X89584262Y-24168420D01*
X89545331Y-24203910D01*
X89971311Y-24629890D01*
X89868239Y-24719202D01*
X89832849Y-24774269D01*
X89403804Y-24345224D01*
X89310753Y-24468444D01*
X89219884Y-24650934D01*
X89164097Y-24847007D01*
X89145286Y-25050000D01*
X84847826Y-25050000D01*
X87057974Y-22839852D01*
X87092622Y-22825500D01*
X110121141Y-22825500D01*
X110125411Y-22825685D01*
X110166307Y-22829264D01*
X110205962Y-22818637D01*
X110210123Y-22817715D01*
X110250545Y-22810588D01*
X110257552Y-22806541D01*
X110269365Y-22801648D01*
X110277184Y-22799554D01*
X110310830Y-22775993D01*
X110314385Y-22773729D01*
X110349955Y-22753194D01*
X110376354Y-22721731D01*
X110379221Y-22718603D01*
X114318611Y-18779214D01*
X114321753Y-18776336D01*
X114327258Y-18771717D01*
X114353194Y-18749955D01*
X114373717Y-18714406D01*
X114376013Y-18710803D01*
X114399554Y-18677184D01*
X114401648Y-18669365D01*
X114406541Y-18657552D01*
X114410588Y-18650545D01*
X114417716Y-18610116D01*
X114418641Y-18605946D01*
X114429263Y-18566308D01*
X114425686Y-18525419D01*
X114425500Y-18521149D01*
X114425500Y-10655121D01*
X114439852Y-10620473D01*
X116160325Y-8900000D01*
X121094318Y-8900000D01*
X121114956Y-9056762D01*
X121175464Y-9202841D01*
X121193633Y-9226519D01*
X121271717Y-9328282D01*
X121349801Y-9388197D01*
X121397159Y-9424536D01*
X121543238Y-9485044D01*
X121700000Y-9505682D01*
X121804488Y-9491925D01*
X121840713Y-9501631D01*
X121845532Y-9505858D01*
X125910148Y-13570473D01*
X125924500Y-13605121D01*
X125924500Y-15218686D01*
X125910148Y-15253334D01*
X125905330Y-15257560D01*
X125821716Y-15321719D01*
X125725465Y-15447157D01*
X125703577Y-15500000D01*
X125664956Y-15593238D01*
X125644318Y-15750000D01*
X125664956Y-15906762D01*
X125725464Y-16052841D01*
X125725465Y-16052842D01*
X125821717Y-16178282D01*
X125896654Y-16235782D01*
X125947159Y-16274536D01*
X126093238Y-16335044D01*
X126250000Y-16355682D01*
X126406762Y-16335044D01*
X126552841Y-16274536D01*
X126678282Y-16178282D01*
X126774536Y-16052841D01*
X126835044Y-15906762D01*
X126855423Y-15751965D01*
X126874173Y-15719489D01*
X126910398Y-15709782D01*
X126942877Y-15728533D01*
X126949273Y-15739611D01*
X126954392Y-15751968D01*
X126975464Y-15802841D01*
X126975465Y-15802842D01*
X127071715Y-15928279D01*
X127071716Y-15928280D01*
X127071718Y-15928282D01*
X127155330Y-15992439D01*
X127174081Y-16024916D01*
X127174500Y-16031312D01*
X127174500Y-16094877D01*
X127160148Y-16129525D01*
X126379526Y-16910148D01*
X126344878Y-16924500D01*
X125266360Y-16924500D01*
X125262089Y-16924314D01*
X125221194Y-16920736D01*
X125181551Y-16931358D01*
X125177380Y-16932282D01*
X125136955Y-16939411D01*
X125129944Y-16943459D01*
X125118133Y-16948351D01*
X125110314Y-16950446D01*
X125076701Y-16973982D01*
X125073099Y-16976277D01*
X125037545Y-16996805D01*
X125011155Y-17028254D01*
X125008268Y-17031404D01*
X124181403Y-17858269D01*
X124178252Y-17861156D01*
X124146807Y-17887542D01*
X124126278Y-17923098D01*
X124123982Y-17926701D01*
X124100446Y-17960314D01*
X124098351Y-17968133D01*
X124093459Y-17979944D01*
X124089411Y-17986955D01*
X124082287Y-18027357D01*
X124081363Y-18031528D01*
X124070735Y-18071192D01*
X124074314Y-18112087D01*
X124074500Y-18116358D01*
X124074500Y-19083640D01*
X124074314Y-19087911D01*
X124070735Y-19128809D01*
X124081360Y-19168460D01*
X124082285Y-19172632D01*
X124089411Y-19213044D01*
X124093456Y-19220050D01*
X124098351Y-19231867D01*
X124100445Y-19239682D01*
X124123988Y-19273306D01*
X124126284Y-19276911D01*
X124146806Y-19312456D01*
X124178253Y-19338843D01*
X124181405Y-19341731D01*
X125194141Y-20354467D01*
X125208493Y-20389115D01*
X125208073Y-20395511D01*
X125194318Y-20500000D01*
X125214956Y-20656762D01*
X125275464Y-20802841D01*
X125275465Y-20802842D01*
X125371717Y-20928282D01*
X125449801Y-20988197D01*
X125497159Y-21024536D01*
X125643238Y-21085044D01*
X125800000Y-21105682D01*
X125956762Y-21085044D01*
X126102841Y-21024536D01*
X126228282Y-20928282D01*
X126324536Y-20802841D01*
X126385044Y-20656762D01*
X126405682Y-20500000D01*
X126385044Y-20343238D01*
X126324536Y-20197159D01*
X126248244Y-20097733D01*
X126228282Y-20071717D01*
X126102842Y-19975465D01*
X126102841Y-19975464D01*
X125956762Y-19914956D01*
X125800000Y-19894318D01*
X125799999Y-19894318D01*
X125695511Y-19908074D01*
X125659286Y-19898367D01*
X125654467Y-19894141D01*
X124739852Y-18979525D01*
X124725500Y-18944877D01*
X124725500Y-18255121D01*
X124739851Y-18220474D01*
X124812562Y-18147762D01*
X124847210Y-18133411D01*
X124881858Y-18147763D01*
X124896210Y-18182411D01*
X124895791Y-18188805D01*
X124894317Y-18199998D01*
X124914955Y-18356762D01*
X124914956Y-18356762D01*
X124975464Y-18502841D01*
X124987161Y-18518085D01*
X125071717Y-18628282D01*
X125135450Y-18677185D01*
X125197159Y-18724536D01*
X125343238Y-18785044D01*
X125500000Y-18805682D01*
X125656762Y-18785044D01*
X125802841Y-18724536D01*
X125928282Y-18628282D01*
X125945421Y-18605946D01*
X125992439Y-18544671D01*
X126024917Y-18525919D01*
X126031313Y-18525500D01*
X127283641Y-18525500D01*
X127287911Y-18525685D01*
X127328807Y-18529264D01*
X127368462Y-18518637D01*
X127372623Y-18517715D01*
X127413045Y-18510588D01*
X127420052Y-18506541D01*
X127431865Y-18501648D01*
X127439684Y-18499554D01*
X127473330Y-18475993D01*
X127476885Y-18473729D01*
X127512455Y-18453194D01*
X127538854Y-18421731D01*
X127541721Y-18418603D01*
X129718605Y-16241719D01*
X129721747Y-16238841D01*
X129727948Y-16233638D01*
X129753194Y-16212455D01*
X129773729Y-16176885D01*
X129775993Y-16173330D01*
X129799554Y-16139684D01*
X129801648Y-16131865D01*
X129806541Y-16120052D01*
X129810588Y-16113045D01*
X129817715Y-16072623D01*
X129818640Y-16068452D01*
X129822824Y-16052841D01*
X129829264Y-16028807D01*
X129825686Y-15987908D01*
X129825500Y-15983638D01*
X129825500Y-10655122D01*
X129839852Y-10620474D01*
X131227723Y-9232603D01*
X131262371Y-9218251D01*
X131297019Y-9232603D01*
X131311371Y-9267251D01*
X131310952Y-9273647D01*
X131294318Y-9399999D01*
X131294318Y-9400000D01*
X131314956Y-9556762D01*
X131375464Y-9702841D01*
X131375465Y-9702842D01*
X131471717Y-9828282D01*
X131549801Y-9888197D01*
X131597159Y-9924536D01*
X131743238Y-9985044D01*
X131900000Y-10005682D01*
X132056762Y-9985044D01*
X132202841Y-9924536D01*
X132328282Y-9828282D01*
X132392438Y-9744671D01*
X132424917Y-9725919D01*
X132431313Y-9725500D01*
X133044878Y-9725500D01*
X133079526Y-9739852D01*
X135594141Y-12254467D01*
X135608493Y-12289115D01*
X135608073Y-12295511D01*
X135594318Y-12400000D01*
X135614956Y-12556762D01*
X135675464Y-12702841D01*
X135675465Y-12702842D01*
X135771717Y-12828282D01*
X135849801Y-12888197D01*
X135897159Y-12924536D01*
X136043238Y-12985044D01*
X136200000Y-13005682D01*
X136356762Y-12985044D01*
X136502841Y-12924536D01*
X136628282Y-12828282D01*
X136724536Y-12702841D01*
X136785044Y-12556762D01*
X136805682Y-12400000D01*
X136785044Y-12243238D01*
X136724536Y-12097159D01*
X136688197Y-12049801D01*
X136628282Y-11971717D01*
X136502842Y-11875465D01*
X136502841Y-11875464D01*
X136356762Y-11814956D01*
X136200000Y-11794318D01*
X136199999Y-11794318D01*
X136095511Y-11808074D01*
X136059286Y-11798367D01*
X136054467Y-11794141D01*
X133441724Y-9181398D01*
X133438847Y-9178259D01*
X133412455Y-9146806D01*
X133376911Y-9126284D01*
X133373306Y-9123988D01*
X133369306Y-9121187D01*
X133339684Y-9100446D01*
X133339683Y-9100445D01*
X133339682Y-9100445D01*
X133331867Y-9098351D01*
X133320050Y-9093456D01*
X133313044Y-9089411D01*
X133272632Y-9082285D01*
X133268460Y-9081360D01*
X133228809Y-9070735D01*
X133187912Y-9074314D01*
X133183641Y-9074500D01*
X132431313Y-9074500D01*
X132396665Y-9060148D01*
X132392439Y-9055329D01*
X132328282Y-8971717D01*
X132202842Y-8875465D01*
X132202841Y-8875464D01*
X132056762Y-8814956D01*
X131900000Y-8794318D01*
X131899999Y-8794318D01*
X131773647Y-8810952D01*
X131737421Y-8801245D01*
X131718670Y-8768767D01*
X131728377Y-8732541D01*
X131732603Y-8727723D01*
X132747178Y-7713148D01*
X133972035Y-6488290D01*
X134006682Y-6473939D01*
X134025431Y-6477668D01*
X134043238Y-6485044D01*
X134200000Y-6505682D01*
X134356762Y-6485044D01*
X134502841Y-6424536D01*
X134628282Y-6328282D01*
X134724536Y-6202841D01*
X134785044Y-6056762D01*
X134805682Y-5900000D01*
X134785044Y-5743238D01*
X134724536Y-5597159D01*
X134688197Y-5549801D01*
X134628282Y-5471717D01*
X134502842Y-5375465D01*
X134502841Y-5375464D01*
X134356762Y-5314956D01*
X134200000Y-5294318D01*
X134043237Y-5314956D01*
X133897157Y-5375465D01*
X133771717Y-5471717D01*
X133675465Y-5597157D01*
X133614956Y-5743237D01*
X133594317Y-5900000D01*
X133596440Y-5916121D01*
X133586733Y-5952346D01*
X133582507Y-5957164D01*
X129281403Y-10258269D01*
X129278252Y-10261156D01*
X129246807Y-10287542D01*
X129226278Y-10323098D01*
X129223982Y-10326701D01*
X129200446Y-10360314D01*
X129198351Y-10368133D01*
X129193459Y-10379944D01*
X129189411Y-10386955D01*
X129182287Y-10427357D01*
X129181363Y-10431528D01*
X129170735Y-10471193D01*
X129174313Y-10512088D01*
X129174499Y-10516358D01*
X129174499Y-15844878D01*
X129160147Y-15879526D01*
X127179526Y-17860148D01*
X127144878Y-17874500D01*
X126031313Y-17874500D01*
X125996665Y-17860148D01*
X125992439Y-17855329D01*
X125928282Y-17771717D01*
X125802842Y-17675465D01*
X125802841Y-17675464D01*
X125789091Y-17669768D01*
X125762575Y-17643251D01*
X125762575Y-17605748D01*
X125789094Y-17579230D01*
X125807845Y-17575500D01*
X126483641Y-17575500D01*
X126487911Y-17575685D01*
X126528807Y-17579264D01*
X126568462Y-17568637D01*
X126572623Y-17567715D01*
X126613045Y-17560588D01*
X126620052Y-17556541D01*
X126631865Y-17551648D01*
X126639684Y-17549554D01*
X126673330Y-17525993D01*
X126676885Y-17523729D01*
X126712455Y-17503194D01*
X126738854Y-17471731D01*
X126741721Y-17468603D01*
X127718605Y-16491719D01*
X127721747Y-16488841D01*
X127753194Y-16462455D01*
X127773729Y-16426885D01*
X127775993Y-16423330D01*
X127799554Y-16389684D01*
X127801648Y-16381865D01*
X127806541Y-16370052D01*
X127810588Y-16363045D01*
X127817715Y-16322623D01*
X127818640Y-16318452D01*
X127829264Y-16278807D01*
X127825686Y-16237908D01*
X127825500Y-16233638D01*
X127825500Y-16031312D01*
X127839852Y-15996664D01*
X127844655Y-15992450D01*
X127928282Y-15928282D01*
X128024536Y-15802841D01*
X128085044Y-15656762D01*
X128105682Y-15500000D01*
X128085044Y-15343238D01*
X128024536Y-15197159D01*
X127988197Y-15149801D01*
X127928282Y-15071717D01*
X127802842Y-14975465D01*
X127802841Y-14975464D01*
X127656762Y-14914956D01*
X127500000Y-14894318D01*
X127343237Y-14914956D01*
X127197157Y-14975465D01*
X127071717Y-15071717D01*
X126975465Y-15197157D01*
X126914956Y-15343237D01*
X126894577Y-15498032D01*
X126875825Y-15530510D01*
X126839600Y-15540217D01*
X126807122Y-15521465D01*
X126800726Y-15510388D01*
X126795608Y-15498032D01*
X126774536Y-15447159D01*
X126738197Y-15399801D01*
X126678282Y-15321717D01*
X126594670Y-15257560D01*
X126575918Y-15225082D01*
X126575499Y-15218686D01*
X126575499Y-14894318D01*
X126575499Y-13466335D01*
X126575686Y-13462086D01*
X126579264Y-13421193D01*
X126568640Y-13381545D01*
X126567714Y-13377371D01*
X126560588Y-13336955D01*
X126556542Y-13329947D01*
X126551647Y-13318128D01*
X126549554Y-13310316D01*
X126549553Y-13310316D01*
X126526006Y-13276686D01*
X126523718Y-13273094D01*
X126503194Y-13237545D01*
X126471744Y-13211155D01*
X126468593Y-13208267D01*
X122305858Y-9045532D01*
X122291506Y-9010884D01*
X122291925Y-9004488D01*
X122305682Y-8900000D01*
X122285044Y-8743238D01*
X122224536Y-8597159D01*
X122188197Y-8549801D01*
X122128282Y-8471717D01*
X122002842Y-8375465D01*
X122002841Y-8375464D01*
X121856762Y-8314956D01*
X121700000Y-8294318D01*
X121543237Y-8314956D01*
X121397157Y-8375465D01*
X121271717Y-8471717D01*
X121175465Y-8597157D01*
X121119387Y-8732541D01*
X121114956Y-8743238D01*
X121094318Y-8900000D01*
X116160325Y-8900000D01*
X120020474Y-5039852D01*
X120055122Y-5025500D01*
X135744878Y-5025500D01*
X135779526Y-5039852D01*
X137060148Y-6320474D01*
X137074500Y-6355122D01*
X137074500Y-19468686D01*
X137060148Y-19503334D01*
X137055330Y-19507560D01*
X136971716Y-19571719D01*
X136875465Y-19697157D01*
X136814956Y-19843237D01*
X136808231Y-19894318D01*
X136794318Y-20000000D01*
X136814956Y-20156762D01*
X136875464Y-20302841D01*
X136875465Y-20302842D01*
X136971717Y-20428282D01*
X137049801Y-20488197D01*
X137097159Y-20524536D01*
X137243238Y-20585044D01*
X137400000Y-20605682D01*
X137556762Y-20585044D01*
X137702841Y-20524536D01*
X137828282Y-20428282D01*
X137924536Y-20302841D01*
X137985044Y-20156762D01*
X138005682Y-20000000D01*
X137985044Y-19843238D01*
X137924536Y-19697159D01*
X137828282Y-19571718D01*
X137744669Y-19507559D01*
X137725919Y-19475081D01*
X137725500Y-19468686D01*
X137725500Y-18789999D01*
X144044417Y-18789999D01*
X144064699Y-18995934D01*
X144117661Y-19170525D01*
X144124768Y-19193954D01*
X144222315Y-19376450D01*
X144353590Y-19536410D01*
X144513550Y-19667685D01*
X144696046Y-19765232D01*
X144795056Y-19795266D01*
X144894065Y-19825300D01*
X144912529Y-19827118D01*
X145100000Y-19845583D01*
X145305934Y-19825300D01*
X145503954Y-19765232D01*
X145686450Y-19667685D01*
X145846410Y-19536410D01*
X145977685Y-19376450D01*
X146075232Y-19193954D01*
X146135300Y-18995934D01*
X146155583Y-18790000D01*
X146135300Y-18584066D01*
X146117534Y-18525500D01*
X146095601Y-18453194D01*
X146075232Y-18386046D01*
X145977685Y-18203550D01*
X145846410Y-18043590D01*
X145686450Y-17912315D01*
X145503954Y-17814768D01*
X145503953Y-17814767D01*
X145503952Y-17814767D01*
X145305934Y-17754699D01*
X145100000Y-17734417D01*
X144894065Y-17754699D01*
X144696047Y-17814767D01*
X144513550Y-17912315D01*
X144353590Y-18043590D01*
X144222315Y-18203550D01*
X144124767Y-18386047D01*
X144064699Y-18584065D01*
X144044417Y-18789999D01*
X137725500Y-18789999D01*
X137725500Y-17119695D01*
X144350000Y-17119695D01*
X144361604Y-17178037D01*
X144405808Y-17244191D01*
X144471962Y-17288395D01*
X144530304Y-17300000D01*
X145300000Y-17300000D01*
X145300000Y-16740764D01*
X145364237Y-16750000D01*
X145435763Y-16750000D01*
X145500000Y-16740764D01*
X145500000Y-17300000D01*
X146269696Y-17300000D01*
X146328037Y-17288395D01*
X146394191Y-17244191D01*
X146438395Y-17178037D01*
X146450000Y-17119695D01*
X146450000Y-16350000D01*
X145891746Y-16350000D01*
X145900000Y-16321889D01*
X145900000Y-16178111D01*
X145891746Y-16150000D01*
X146450000Y-16150000D01*
X146450000Y-15380304D01*
X146438395Y-15321962D01*
X146394191Y-15255808D01*
X146328037Y-15211604D01*
X146269696Y-15200000D01*
X145500000Y-15200000D01*
X145500000Y-15759235D01*
X145435763Y-15750000D01*
X145364237Y-15750000D01*
X145300000Y-15759235D01*
X145300000Y-15200000D01*
X144530304Y-15200000D01*
X144471962Y-15211604D01*
X144405808Y-15255808D01*
X144361604Y-15321962D01*
X144350000Y-15380304D01*
X144350000Y-16150000D01*
X144908254Y-16150000D01*
X144900000Y-16178111D01*
X144900000Y-16321889D01*
X144908254Y-16350000D01*
X144350000Y-16350000D01*
X144350000Y-17119695D01*
X137725500Y-17119695D01*
X137725500Y-6216347D01*
X137725686Y-6212076D01*
X137726494Y-6202841D01*
X137729263Y-6171193D01*
X137718636Y-6131534D01*
X137717717Y-6127392D01*
X137710588Y-6086955D01*
X137706542Y-6079947D01*
X137701647Y-6068128D01*
X137699553Y-6060314D01*
X137676009Y-6026689D01*
X137673712Y-6023084D01*
X137653194Y-5987545D01*
X137621750Y-5961160D01*
X137618599Y-5958272D01*
X136660326Y-5000000D01*
X142044500Y-5000000D01*
X142064484Y-5343113D01*
X142064730Y-5344508D01*
X142123919Y-5680188D01*
X142123921Y-5680199D01*
X142124166Y-5681585D01*
X142124569Y-5682934D01*
X142124572Y-5682943D01*
X142222330Y-6009480D01*
X142222333Y-6009488D01*
X142222738Y-6010841D01*
X142223299Y-6012143D01*
X142223300Y-6012144D01*
X142358303Y-6325114D01*
X142358869Y-6326426D01*
X142359581Y-6327660D01*
X142359585Y-6327667D01*
X142446189Y-6477669D01*
X142530716Y-6624074D01*
X142735956Y-6899759D01*
X142971813Y-7149753D01*
X143235098Y-7370675D01*
X143522250Y-7559538D01*
X143829386Y-7713788D01*
X144152353Y-7831338D01*
X144486783Y-7910599D01*
X144828153Y-7950500D01*
X144829572Y-7950500D01*
X145170428Y-7950500D01*
X145171847Y-7950500D01*
X145513217Y-7910599D01*
X145847647Y-7831338D01*
X146170614Y-7713788D01*
X146477750Y-7559538D01*
X146764902Y-7370675D01*
X147028187Y-7149753D01*
X147264044Y-6899759D01*
X147469284Y-6624074D01*
X147641131Y-6326426D01*
X147777262Y-6010841D01*
X147875834Y-5681585D01*
X147935516Y-5343113D01*
X147955500Y-5000000D01*
X147935516Y-4656887D01*
X147875834Y-4318415D01*
X147777262Y-3989159D01*
X147641131Y-3673574D01*
X147469284Y-3375926D01*
X147264044Y-3100241D01*
X147028187Y-2850247D01*
X146843098Y-2694939D01*
X146765994Y-2630241D01*
X146765990Y-2630238D01*
X146764902Y-2629325D01*
X146477750Y-2440462D01*
X146476481Y-2439825D01*
X146476473Y-2439820D01*
X146171886Y-2286851D01*
X146170614Y-2286212D01*
X146169276Y-2285725D01*
X145848984Y-2169148D01*
X145848974Y-2169145D01*
X145847647Y-2168662D01*
X145846264Y-2168334D01*
X145846260Y-2168333D01*
X145514611Y-2089731D01*
X145514604Y-2089729D01*
X145513217Y-2089401D01*
X145511803Y-2089235D01*
X145511799Y-2089235D01*
X145173253Y-2049664D01*
X145173247Y-2049663D01*
X145171847Y-2049500D01*
X144828153Y-2049500D01*
X144826753Y-2049663D01*
X144826746Y-2049664D01*
X144488200Y-2089235D01*
X144488193Y-2089236D01*
X144486783Y-2089401D01*
X144485398Y-2089729D01*
X144485388Y-2089731D01*
X144153739Y-2168333D01*
X144153730Y-2168335D01*
X144152353Y-2168662D01*
X144151030Y-2169143D01*
X144151015Y-2169148D01*
X143830723Y-2285725D01*
X143830717Y-2285727D01*
X143829386Y-2286212D01*
X143828117Y-2286849D01*
X143828113Y-2286851D01*
X143523526Y-2439820D01*
X143523510Y-2439828D01*
X143522250Y-2440462D01*
X143521065Y-2441241D01*
X143521057Y-2441246D01*
X143236289Y-2628541D01*
X143236281Y-2628546D01*
X143235098Y-2629325D01*
X143234016Y-2630232D01*
X143234005Y-2630241D01*
X142972901Y-2849333D01*
X142972890Y-2849342D01*
X142971813Y-2850247D01*
X142970840Y-2851277D01*
X142970836Y-2851282D01*
X142773304Y-3060654D01*
X142735956Y-3100241D01*
X142735112Y-3101374D01*
X142735105Y-3101383D01*
X142531565Y-3374784D01*
X142531556Y-3374797D01*
X142530716Y-3375926D01*
X142530007Y-3377153D01*
X142530003Y-3377160D01*
X142359585Y-3672332D01*
X142359577Y-3672346D01*
X142358869Y-3673574D01*
X142358306Y-3674878D01*
X142358303Y-3674885D01*
X142297844Y-3815046D01*
X142222738Y-3989159D01*
X142222334Y-3990505D01*
X142222330Y-3990519D01*
X142124572Y-4317056D01*
X142124568Y-4317069D01*
X142124166Y-4318415D01*
X142123922Y-4319797D01*
X142123919Y-4319811D01*
X142064730Y-4655491D01*
X142064484Y-4656887D01*
X142044500Y-5000000D01*
X136660326Y-5000000D01*
X136141724Y-4481398D01*
X136138847Y-4478259D01*
X136112455Y-4446806D01*
X136076911Y-4426284D01*
X136073306Y-4423988D01*
X136069306Y-4421187D01*
X136039684Y-4400446D01*
X136039683Y-4400445D01*
X136039682Y-4400445D01*
X136031867Y-4398351D01*
X136020050Y-4393456D01*
X136013044Y-4389411D01*
X135972632Y-4382285D01*
X135968460Y-4381360D01*
X135928809Y-4370735D01*
X135887912Y-4374314D01*
X135883641Y-4374500D01*
X119916359Y-4374500D01*
X119912088Y-4374314D01*
X119871192Y-4370735D01*
X119831528Y-4381363D01*
X119827357Y-4382287D01*
X119786955Y-4389411D01*
X119779944Y-4393459D01*
X119768133Y-4398351D01*
X119760314Y-4400446D01*
X119726701Y-4423982D01*
X119723099Y-4426277D01*
X119687545Y-4446805D01*
X119661155Y-4478254D01*
X119658268Y-4481404D01*
X113881403Y-10258269D01*
X113878252Y-10261156D01*
X113846807Y-10287542D01*
X113826278Y-10323098D01*
X113823982Y-10326701D01*
X113800446Y-10360314D01*
X113798351Y-10368133D01*
X113793459Y-10379944D01*
X113789411Y-10386955D01*
X113782287Y-10427357D01*
X113781363Y-10431528D01*
X113770735Y-10471192D01*
X113774314Y-10512087D01*
X113774500Y-10516358D01*
X113774500Y-18382377D01*
X113760148Y-18417025D01*
X110017026Y-22160148D01*
X109982378Y-22174500D01*
X86953859Y-22174500D01*
X86949588Y-22174314D01*
X86908692Y-22170735D01*
X86869028Y-22181363D01*
X86864857Y-22182287D01*
X86824455Y-22189411D01*
X86817444Y-22193459D01*
X86805633Y-22198351D01*
X86797814Y-22200446D01*
X86764201Y-22223982D01*
X86760599Y-22226277D01*
X86725045Y-22246805D01*
X86698655Y-22278254D01*
X86695768Y-22281404D01*
X77868094Y-31109078D01*
X77833446Y-31123430D01*
X77817263Y-31120680D01*
X77764776Y-31102314D01*
X77735894Y-31099605D01*
X77735873Y-31099604D01*
X77734764Y-31099500D01*
X77140236Y-31099500D01*
X77139127Y-31099603D01*
X77139105Y-31099605D01*
X77110225Y-31102314D01*
X76983820Y-31146545D01*
X76876069Y-31226069D01*
X76796545Y-31333820D01*
X76752314Y-31460225D01*
X76749605Y-31489105D01*
X76749603Y-31489127D01*
X76749500Y-31490236D01*
X76749500Y-32509764D01*
X76249944Y-32509764D01*
X76250000Y-32508559D01*
X76250000Y-32100000D01*
X75662500Y-32100000D01*
X75462500Y-32100000D01*
X74875001Y-32100000D01*
X72850500Y-32100000D01*
X72850500Y-31900000D01*
X74875000Y-31900000D01*
X75462500Y-31900000D01*
X75462500Y-31100000D01*
X75662500Y-31100000D01*
X75662500Y-31900000D01*
X76249999Y-31900000D01*
X76249999Y-31491443D01*
X76249892Y-31489174D01*
X76247187Y-31460318D01*
X76203008Y-31334060D01*
X76123573Y-31226426D01*
X76015940Y-31146992D01*
X75889680Y-31102812D01*
X75860824Y-31100105D01*
X75858559Y-31100000D01*
X75662500Y-31100000D01*
X75462500Y-31100000D01*
X75266443Y-31100000D01*
X75264174Y-31100107D01*
X75235318Y-31102812D01*
X75109060Y-31146991D01*
X75001426Y-31226426D01*
X74921992Y-31334059D01*
X74877812Y-31460319D01*
X74875105Y-31489175D01*
X74875000Y-31491440D01*
X74875000Y-31900000D01*
X72850500Y-31900000D01*
X72850500Y-31680122D01*
X72864852Y-31645474D01*
X78345474Y-26164852D01*
X78380122Y-26150500D01*
X79919751Y-26150500D01*
X79954837Y-26143520D01*
X79978231Y-26138867D01*
X80044552Y-26094552D01*
X80088867Y-26028231D01*
X80098067Y-25981980D01*
X80100500Y-25969750D01*
X80100500Y-24130249D01*
X80088867Y-24071770D01*
X80088867Y-24071769D01*
X80048351Y-24011133D01*
X80044552Y-24005447D01*
X79994923Y-23972286D01*
X79978231Y-23961133D01*
X79978230Y-23961132D01*
X79978229Y-23961132D01*
X79919751Y-23949500D01*
X79919748Y-23949500D01*
X78080252Y-23949500D01*
X78080249Y-23949500D01*
X78021770Y-23961132D01*
X77955447Y-24005447D01*
X77911132Y-24071770D01*
X77899500Y-24130249D01*
X77899500Y-25669877D01*
X77885148Y-25704525D01*
X72306403Y-31283269D01*
X72303252Y-31286156D01*
X72271807Y-31312542D01*
X72251278Y-31348098D01*
X72248982Y-31351701D01*
X72225446Y-31385314D01*
X72223351Y-31393133D01*
X72218459Y-31404944D01*
X72214411Y-31411955D01*
X72207287Y-31452357D01*
X72206363Y-31456528D01*
X72195735Y-31496192D01*
X72199314Y-31537087D01*
X72199500Y-31541358D01*
X72199500Y-37350500D01*
X72185148Y-37385148D01*
X72150500Y-37399500D01*
X71730249Y-37399500D01*
X71671770Y-37411132D01*
X71605447Y-37455447D01*
X71561132Y-37521770D01*
X71549500Y-37580249D01*
X71549500Y-38919750D01*
X500Y-38919750D01*
X500Y-25100000D01*
X56645286Y-25100000D01*
X56664097Y-25302992D01*
X56719884Y-25499065D01*
X56810753Y-25681555D01*
X56903804Y-25804774D01*
X57332848Y-25375729D01*
X57368239Y-25430798D01*
X57471311Y-25520109D01*
X57045330Y-25946089D01*
X57084259Y-25981577D01*
X57257588Y-26088899D01*
X57447678Y-26162539D01*
X57648073Y-26200000D01*
X57851927Y-26200000D01*
X58052321Y-26162539D01*
X58242411Y-26088899D01*
X58415737Y-25981580D01*
X58454668Y-25946088D01*
X58028688Y-25520109D01*
X58131761Y-25430798D01*
X58167150Y-25375730D01*
X58596194Y-25804774D01*
X58689246Y-25681555D01*
X58780115Y-25499065D01*
X58835902Y-25302992D01*
X58854713Y-25100000D01*
X59144784Y-25100000D01*
X59163603Y-25303084D01*
X59219417Y-25499249D01*
X59310326Y-25681820D01*
X59433234Y-25844578D01*
X59489739Y-25896088D01*
X59583959Y-25981981D01*
X59757363Y-26089348D01*
X59947544Y-26163024D01*
X60148024Y-26200500D01*
X60148026Y-26200500D01*
X60351974Y-26200500D01*
X60351976Y-26200500D01*
X60552456Y-26163024D01*
X60742637Y-26089348D01*
X60855042Y-26019750D01*
X61649500Y-26019750D01*
X61661132Y-26078229D01*
X61705447Y-26144552D01*
X61732367Y-26162539D01*
X61771769Y-26188867D01*
X61786389Y-26191775D01*
X61830249Y-26200500D01*
X61830252Y-26200500D01*
X63669751Y-26200500D01*
X63704837Y-26193520D01*
X63728231Y-26188867D01*
X63794552Y-26144552D01*
X63838867Y-26078231D01*
X63850500Y-26019748D01*
X63850500Y-25050000D01*
X72895286Y-25050000D01*
X72914097Y-25252992D01*
X72969884Y-25449065D01*
X73060753Y-25631555D01*
X73153804Y-25754774D01*
X73582848Y-25325729D01*
X73618239Y-25380798D01*
X73721311Y-25470109D01*
X73295330Y-25896089D01*
X73334259Y-25931577D01*
X73507588Y-26038899D01*
X73697678Y-26112539D01*
X73898073Y-26150000D01*
X74101927Y-26150000D01*
X74302321Y-26112539D01*
X74492411Y-26038899D01*
X74665737Y-25931580D01*
X74704668Y-25896088D01*
X74278688Y-25470109D01*
X74381761Y-25380798D01*
X74417150Y-25325730D01*
X74846194Y-25754774D01*
X74939246Y-25631555D01*
X75030115Y-25449065D01*
X75085902Y-25252992D01*
X75104713Y-25050000D01*
X75104713Y-25049999D01*
X75394784Y-25049999D01*
X75413603Y-25253084D01*
X75469417Y-25449249D01*
X75560326Y-25631820D01*
X75683234Y-25794578D01*
X75738082Y-25844578D01*
X75833959Y-25931981D01*
X76007363Y-26039348D01*
X76197544Y-26113024D01*
X76398024Y-26150500D01*
X76398026Y-26150500D01*
X76601974Y-26150500D01*
X76601976Y-26150500D01*
X76802456Y-26113024D01*
X76992637Y-26039348D01*
X77166041Y-25931981D01*
X77316764Y-25794579D01*
X77439673Y-25631821D01*
X77530582Y-25449250D01*
X77586397Y-25253083D01*
X77605215Y-25050000D01*
X77586397Y-24846917D01*
X77530582Y-24650750D01*
X77439673Y-24468179D01*
X77407584Y-24425686D01*
X77316765Y-24305421D01*
X77228035Y-24224534D01*
X77166041Y-24168019D01*
X76992637Y-24060652D01*
X76992635Y-24060651D01*
X76843411Y-24002842D01*
X76802456Y-23986976D01*
X76601976Y-23949500D01*
X76398024Y-23949500D01*
X76197544Y-23986976D01*
X76197541Y-23986976D01*
X76197541Y-23986977D01*
X76007364Y-24060651D01*
X75833959Y-24168019D01*
X75683234Y-24305421D01*
X75560326Y-24468179D01*
X75469417Y-24650750D01*
X75413603Y-24846915D01*
X75394784Y-25049999D01*
X75104713Y-25049999D01*
X75085902Y-24847007D01*
X75030115Y-24650934D01*
X74939246Y-24468444D01*
X74846194Y-24345224D01*
X74417149Y-24774268D01*
X74381761Y-24719202D01*
X74278687Y-24629889D01*
X74704668Y-24203909D01*
X74665740Y-24168422D01*
X74492411Y-24061100D01*
X74302321Y-23987460D01*
X74101927Y-23950000D01*
X73898073Y-23950000D01*
X73697678Y-23987460D01*
X73507588Y-24061100D01*
X73334262Y-24168420D01*
X73295331Y-24203910D01*
X73721311Y-24629890D01*
X73618239Y-24719202D01*
X73582849Y-24774269D01*
X73153804Y-24345224D01*
X73060753Y-24468444D01*
X72969884Y-24650934D01*
X72914097Y-24847007D01*
X72895286Y-25050000D01*
X63850500Y-25050000D01*
X63850500Y-24180252D01*
X63850500Y-24180251D01*
X63850500Y-24180249D01*
X63840554Y-24130249D01*
X63838867Y-24121769D01*
X63808241Y-24075934D01*
X63794552Y-24055447D01*
X63744923Y-24022286D01*
X63728231Y-24011133D01*
X63728230Y-24011132D01*
X63728229Y-24011132D01*
X63669751Y-23999500D01*
X63669748Y-23999500D01*
X61830252Y-23999500D01*
X61830249Y-23999500D01*
X61771770Y-24011132D01*
X61705447Y-24055447D01*
X61661132Y-24121770D01*
X61649500Y-24180249D01*
X61649500Y-26019750D01*
X60855042Y-26019750D01*
X60916041Y-25981981D01*
X61066764Y-25844579D01*
X61189673Y-25681821D01*
X61280582Y-25499250D01*
X61336397Y-25303083D01*
X61355215Y-25100000D01*
X61336397Y-24896917D01*
X61280582Y-24700750D01*
X61189673Y-24518179D01*
X61151915Y-24468179D01*
X61066765Y-24355421D01*
X60977399Y-24273954D01*
X60916041Y-24218019D01*
X60742637Y-24110652D01*
X60742635Y-24110651D01*
X60642133Y-24071717D01*
X60552456Y-24036976D01*
X60351976Y-23999500D01*
X60148024Y-23999500D01*
X59947544Y-24036976D01*
X59947541Y-24036976D01*
X59947541Y-24036977D01*
X59757364Y-24110651D01*
X59583959Y-24218019D01*
X59433234Y-24355421D01*
X59310326Y-24518179D01*
X59219417Y-24700750D01*
X59163603Y-24896915D01*
X59144784Y-25100000D01*
X58854713Y-25100000D01*
X58835902Y-24897007D01*
X58780115Y-24700934D01*
X58689246Y-24518444D01*
X58596194Y-24395224D01*
X58167149Y-24824268D01*
X58131761Y-24769202D01*
X58028687Y-24679889D01*
X58454668Y-24253909D01*
X58415740Y-24218422D01*
X58242411Y-24111100D01*
X58052321Y-24037460D01*
X57851927Y-24000000D01*
X57648073Y-24000000D01*
X57447678Y-24037460D01*
X57257588Y-24111100D01*
X57084262Y-24218420D01*
X57045331Y-24253910D01*
X57471311Y-24679890D01*
X57368239Y-24769202D01*
X57332849Y-24824269D01*
X56903804Y-24395224D01*
X56810753Y-24518444D01*
X56719884Y-24700934D01*
X56664097Y-24897007D01*
X56645286Y-25100000D01*
X500Y-25100000D01*
X500Y-19405138D01*
X54149500Y-19405138D01*
X54149596Y-19406214D01*
X54159583Y-19518555D01*
X54212761Y-19704402D01*
X54212762Y-19704405D01*
X54212763Y-19704406D01*
X54244536Y-19765232D01*
X54302266Y-19875751D01*
X54424428Y-20025571D01*
X54481022Y-20071717D01*
X54574249Y-20147734D01*
X54745594Y-20237237D01*
X54745596Y-20237237D01*
X54745597Y-20237238D01*
X54931444Y-20290416D01*
X54931448Y-20290417D01*
X55044862Y-20300500D01*
X55045960Y-20300500D01*
X56654040Y-20300500D01*
X56655138Y-20300500D01*
X56768552Y-20290417D01*
X56954406Y-20237237D01*
X57125751Y-20147734D01*
X57275571Y-20025571D01*
X57397734Y-19875751D01*
X57487237Y-19704406D01*
X57540417Y-19518552D01*
X57550500Y-19405138D01*
X62949500Y-19405138D01*
X62949596Y-19406214D01*
X62959583Y-19518555D01*
X63012761Y-19704402D01*
X63012762Y-19704405D01*
X63012763Y-19704406D01*
X63044536Y-19765232D01*
X63102266Y-19875751D01*
X63224428Y-20025571D01*
X63281022Y-20071717D01*
X63374249Y-20147734D01*
X63545594Y-20237237D01*
X63545596Y-20237237D01*
X63545597Y-20237238D01*
X63731444Y-20290416D01*
X63731448Y-20290417D01*
X63844862Y-20300500D01*
X63845960Y-20300500D01*
X65454040Y-20300500D01*
X65455138Y-20300500D01*
X65568552Y-20290417D01*
X65754406Y-20237237D01*
X65925751Y-20147734D01*
X66075571Y-20025571D01*
X66197734Y-19875751D01*
X66287237Y-19704406D01*
X66340417Y-19518552D01*
X66350500Y-19405138D01*
X66350500Y-19355138D01*
X70399500Y-19355138D01*
X70401395Y-19376449D01*
X70409583Y-19468555D01*
X70462761Y-19654402D01*
X70552266Y-19825751D01*
X70674428Y-19975571D01*
X70792342Y-20071717D01*
X70824249Y-20097734D01*
X70995594Y-20187237D01*
X70995596Y-20187237D01*
X70995597Y-20187238D01*
X71181444Y-20240416D01*
X71181448Y-20240417D01*
X71294862Y-20250500D01*
X71295960Y-20250500D01*
X72904040Y-20250500D01*
X72905138Y-20250500D01*
X73018552Y-20240417D01*
X73204406Y-20187237D01*
X73375751Y-20097734D01*
X73525571Y-19975571D01*
X73647734Y-19825751D01*
X73737237Y-19654406D01*
X73790417Y-19468552D01*
X73800500Y-19355138D01*
X79199500Y-19355138D01*
X79201395Y-19376449D01*
X79209583Y-19468555D01*
X79262761Y-19654402D01*
X79352266Y-19825751D01*
X79474428Y-19975571D01*
X79592342Y-20071717D01*
X79624249Y-20097734D01*
X79795594Y-20187237D01*
X79795596Y-20187237D01*
X79795597Y-20187238D01*
X79981444Y-20240416D01*
X79981448Y-20240417D01*
X80094862Y-20250500D01*
X80095960Y-20250500D01*
X81704040Y-20250500D01*
X81705138Y-20250500D01*
X81818552Y-20240417D01*
X82004406Y-20187237D01*
X82175751Y-20097734D01*
X82325571Y-19975571D01*
X82447734Y-19825751D01*
X82537237Y-19654406D01*
X82590417Y-19468552D01*
X82600500Y-19355138D01*
X86649500Y-19355138D01*
X86651395Y-19376449D01*
X86659583Y-19468555D01*
X86712761Y-19654402D01*
X86802266Y-19825751D01*
X86924428Y-19975571D01*
X87042342Y-20071717D01*
X87074249Y-20097734D01*
X87245594Y-20187237D01*
X87245596Y-20187237D01*
X87245597Y-20187238D01*
X87431444Y-20240416D01*
X87431448Y-20240417D01*
X87544862Y-20250500D01*
X87545960Y-20250500D01*
X89154040Y-20250500D01*
X89155138Y-20250500D01*
X89268552Y-20240417D01*
X89454406Y-20187237D01*
X89625751Y-20097734D01*
X89775571Y-19975571D01*
X89897734Y-19825751D01*
X89987237Y-19654406D01*
X90040417Y-19468552D01*
X90050500Y-19355138D01*
X95449500Y-19355138D01*
X95451395Y-19376449D01*
X95459583Y-19468555D01*
X95512761Y-19654402D01*
X95602266Y-19825751D01*
X95724428Y-19975571D01*
X95842342Y-20071717D01*
X95874249Y-20097734D01*
X96045594Y-20187237D01*
X96045596Y-20187237D01*
X96045597Y-20187238D01*
X96231444Y-20240416D01*
X96231448Y-20240417D01*
X96344862Y-20250500D01*
X96345960Y-20250500D01*
X97954040Y-20250500D01*
X97955138Y-20250500D01*
X98068552Y-20240417D01*
X98254406Y-20187237D01*
X98425751Y-20097734D01*
X98575571Y-19975571D01*
X98697734Y-19825751D01*
X98787237Y-19654406D01*
X98840417Y-19468552D01*
X98850500Y-19355138D01*
X98850500Y-16744862D01*
X98840417Y-16631448D01*
X98791314Y-16459844D01*
X98787238Y-16445597D01*
X98787237Y-16445596D01*
X98787237Y-16445594D01*
X98697734Y-16274249D01*
X98619483Y-16178282D01*
X98575571Y-16124428D01*
X98425751Y-16002266D01*
X98425750Y-16002266D01*
X98254406Y-15912763D01*
X98254405Y-15912762D01*
X98254402Y-15912761D01*
X98068555Y-15859583D01*
X98019079Y-15855184D01*
X97955138Y-15849500D01*
X96344862Y-15849500D01*
X96297410Y-15853718D01*
X96231444Y-15859583D01*
X96045597Y-15912761D01*
X95874248Y-16002266D01*
X95724428Y-16124428D01*
X95602266Y-16274248D01*
X95512761Y-16445597D01*
X95459583Y-16631444D01*
X95459583Y-16631448D01*
X95449500Y-16744862D01*
X95449500Y-19355138D01*
X90050500Y-19355138D01*
X90050500Y-16744862D01*
X90040417Y-16631448D01*
X89991314Y-16459844D01*
X89987238Y-16445597D01*
X89987237Y-16445596D01*
X89987237Y-16445594D01*
X89897734Y-16274249D01*
X89819483Y-16178282D01*
X89775571Y-16124428D01*
X89625751Y-16002266D01*
X89625750Y-16002266D01*
X89454406Y-15912763D01*
X89454405Y-15912762D01*
X89454402Y-15912761D01*
X89268555Y-15859583D01*
X89219079Y-15855184D01*
X89155138Y-15849500D01*
X87544862Y-15849500D01*
X87497410Y-15853718D01*
X87431444Y-15859583D01*
X87245597Y-15912761D01*
X87074248Y-16002266D01*
X86924428Y-16124428D01*
X86802266Y-16274248D01*
X86712761Y-16445597D01*
X86659583Y-16631444D01*
X86659583Y-16631448D01*
X86649500Y-16744862D01*
X86649500Y-19355138D01*
X82600500Y-19355138D01*
X82600500Y-16744862D01*
X82590417Y-16631448D01*
X82541314Y-16459844D01*
X82537238Y-16445597D01*
X82537237Y-16445596D01*
X82537237Y-16445594D01*
X82447734Y-16274249D01*
X82369483Y-16178282D01*
X82325571Y-16124428D01*
X82175751Y-16002266D01*
X82004406Y-15912763D01*
X82004405Y-15912762D01*
X82004402Y-15912761D01*
X81818555Y-15859583D01*
X81769079Y-15855184D01*
X81705138Y-15849500D01*
X80094862Y-15849500D01*
X80047410Y-15853718D01*
X79981444Y-15859583D01*
X79795597Y-15912761D01*
X79624248Y-16002266D01*
X79474428Y-16124428D01*
X79352266Y-16274248D01*
X79262761Y-16445597D01*
X79209583Y-16631444D01*
X79209583Y-16631448D01*
X79199500Y-16744862D01*
X79199500Y-19355138D01*
X73800500Y-19355138D01*
X73800500Y-16744862D01*
X73790417Y-16631448D01*
X73741314Y-16459844D01*
X73737238Y-16445597D01*
X73737237Y-16445596D01*
X73737237Y-16445594D01*
X73647734Y-16274249D01*
X73569483Y-16178282D01*
X73525571Y-16124428D01*
X73375751Y-16002266D01*
X73204406Y-15912763D01*
X73204405Y-15912762D01*
X73204402Y-15912761D01*
X73018555Y-15859583D01*
X72969079Y-15855184D01*
X72905138Y-15849500D01*
X71294862Y-15849500D01*
X71247410Y-15853718D01*
X71181444Y-15859583D01*
X70995597Y-15912761D01*
X70824248Y-16002266D01*
X70674428Y-16124428D01*
X70552266Y-16274248D01*
X70462761Y-16445597D01*
X70409583Y-16631444D01*
X70409583Y-16631448D01*
X70399500Y-16744862D01*
X70399500Y-19355138D01*
X66350500Y-19355138D01*
X66350500Y-16794862D01*
X66340417Y-16681448D01*
X66287237Y-16495594D01*
X66197734Y-16324249D01*
X66157198Y-16274536D01*
X66075571Y-16174428D01*
X65925751Y-16052266D01*
X65754402Y-15962761D01*
X65568555Y-15909583D01*
X65519079Y-15905184D01*
X65455138Y-15899500D01*
X63844862Y-15899500D01*
X63797410Y-15903718D01*
X63731444Y-15909583D01*
X63545597Y-15962761D01*
X63374248Y-16052266D01*
X63224428Y-16174428D01*
X63102266Y-16324248D01*
X63012761Y-16495597D01*
X62959583Y-16681444D01*
X62959583Y-16681448D01*
X62949500Y-16794862D01*
X62949500Y-19405138D01*
X57550500Y-19405138D01*
X57550500Y-16794862D01*
X57540417Y-16681448D01*
X57487237Y-16495594D01*
X57397734Y-16324249D01*
X57357198Y-16274536D01*
X57275571Y-16174428D01*
X57125751Y-16052266D01*
X56954402Y-15962761D01*
X56768555Y-15909583D01*
X56719079Y-15905184D01*
X56655138Y-15899500D01*
X55044862Y-15899500D01*
X54997410Y-15903718D01*
X54931444Y-15909583D01*
X54745597Y-15962761D01*
X54574248Y-16052266D01*
X54424428Y-16174428D01*
X54302266Y-16324248D01*
X54212761Y-16495597D01*
X54159583Y-16681444D01*
X54159583Y-16681448D01*
X54149500Y-16794862D01*
X54149500Y-19405138D01*
X500Y-19405138D01*
X500Y-5000000D01*
X2044500Y-5000000D01*
X2064484Y-5343113D01*
X2064730Y-5344508D01*
X2123919Y-5680188D01*
X2123921Y-5680199D01*
X2124166Y-5681585D01*
X2124569Y-5682934D01*
X2124572Y-5682943D01*
X2222330Y-6009480D01*
X2222333Y-6009488D01*
X2222738Y-6010841D01*
X2223299Y-6012143D01*
X2223300Y-6012144D01*
X2358303Y-6325114D01*
X2358869Y-6326426D01*
X2359581Y-6327660D01*
X2359585Y-6327667D01*
X2446189Y-6477669D01*
X2530716Y-6624074D01*
X2735956Y-6899759D01*
X2971813Y-7149753D01*
X3235098Y-7370675D01*
X3522250Y-7559538D01*
X3829386Y-7713788D01*
X4152353Y-7831338D01*
X4486783Y-7910599D01*
X4828153Y-7950500D01*
X4829572Y-7950500D01*
X5170428Y-7950500D01*
X5171847Y-7950500D01*
X5513217Y-7910599D01*
X5847647Y-7831338D01*
X6170614Y-7713788D01*
X6477750Y-7559538D01*
X6764902Y-7370675D01*
X7028187Y-7149753D01*
X7264044Y-6899759D01*
X7469284Y-6624074D01*
X7641131Y-6326426D01*
X7777262Y-6010841D01*
X7875834Y-5681585D01*
X7935516Y-5343113D01*
X7955500Y-5000000D01*
X7935516Y-4656887D01*
X7875834Y-4318415D01*
X7777262Y-3989159D01*
X7641131Y-3673574D01*
X7469284Y-3375926D01*
X7264044Y-3100241D01*
X7028187Y-2850247D01*
X6843098Y-2694939D01*
X6765994Y-2630241D01*
X6765990Y-2630238D01*
X6764902Y-2629325D01*
X6477750Y-2440462D01*
X6476481Y-2439825D01*
X6476473Y-2439820D01*
X6171886Y-2286851D01*
X6170614Y-2286212D01*
X6169276Y-2285725D01*
X5848984Y-2169148D01*
X5848974Y-2169145D01*
X5847647Y-2168662D01*
X5846264Y-2168334D01*
X5846260Y-2168333D01*
X5514611Y-2089731D01*
X5514604Y-2089729D01*
X5513217Y-2089401D01*
X5511803Y-2089235D01*
X5511799Y-2089235D01*
X5173253Y-2049664D01*
X5173247Y-2049663D01*
X5171847Y-2049500D01*
X4828153Y-2049500D01*
X4826753Y-2049663D01*
X4826746Y-2049664D01*
X4488200Y-2089235D01*
X4488193Y-2089236D01*
X4486783Y-2089401D01*
X4485398Y-2089729D01*
X4485388Y-2089731D01*
X4153739Y-2168333D01*
X4153730Y-2168335D01*
X4152353Y-2168662D01*
X4151030Y-2169143D01*
X4151015Y-2169148D01*
X3830723Y-2285725D01*
X3830717Y-2285727D01*
X3829386Y-2286212D01*
X3828117Y-2286849D01*
X3828113Y-2286851D01*
X3523526Y-2439820D01*
X3523510Y-2439828D01*
X3522250Y-2440462D01*
X3521065Y-2441241D01*
X3521057Y-2441246D01*
X3236289Y-2628541D01*
X3236281Y-2628546D01*
X3235098Y-2629325D01*
X3234016Y-2630232D01*
X3234005Y-2630241D01*
X2972901Y-2849333D01*
X2972890Y-2849342D01*
X2971813Y-2850247D01*
X2970840Y-2851277D01*
X2970836Y-2851282D01*
X2773304Y-3060654D01*
X2735956Y-3100241D01*
X2735112Y-3101374D01*
X2735105Y-3101383D01*
X2531565Y-3374784D01*
X2531556Y-3374797D01*
X2530716Y-3375926D01*
X2530007Y-3377153D01*
X2530003Y-3377160D01*
X2359585Y-3672332D01*
X2359577Y-3672346D01*
X2358869Y-3673574D01*
X2358306Y-3674878D01*
X2358303Y-3674885D01*
X2297844Y-3815046D01*
X2222738Y-3989159D01*
X2222334Y-3990505D01*
X2222330Y-3990519D01*
X2124572Y-4317056D01*
X2124568Y-4317069D01*
X2124166Y-4318415D01*
X2123922Y-4319797D01*
X2123919Y-4319811D01*
X2064730Y-4655491D01*
X2064484Y-4656887D01*
X2044500Y-5000000D01*
X500Y-5000000D01*
X500Y-4001138D01*
X552Y-3998875D01*
X8487Y-3827238D01*
X18331Y-3626851D01*
X18737Y-3622539D01*
X44670Y-3436633D01*
X72410Y-3249630D01*
X73179Y-3245619D01*
X116689Y-3060626D01*
X162108Y-2879303D01*
X163166Y-2875682D01*
X223807Y-2694754D01*
X224010Y-2694169D01*
X286616Y-2519195D01*
X287902Y-2515976D01*
X365138Y-2341052D01*
X365589Y-2340064D01*
X444801Y-2172585D01*
X446239Y-2169791D01*
X539425Y-2002491D01*
X540138Y-2001256D01*
X635199Y-1842656D01*
X636747Y-1840243D01*
X745083Y-1682091D01*
X746087Y-1680684D01*
X856127Y-1532313D01*
X857714Y-1530291D01*
X980239Y-1382740D01*
X981492Y-1381294D01*
X1105578Y-1244386D01*
X1107137Y-1242750D01*
X1242750Y-1107137D01*
X1244386Y-1105578D01*
X1381294Y-981492D01*
X1382740Y-980239D01*
X1530291Y-857714D01*
X1532313Y-856127D01*
X1680684Y-746087D01*
X1682091Y-745083D01*
X1840243Y-636747D01*
X1842656Y-635199D01*
X2001256Y-540138D01*
X2002491Y-539425D01*
X2169791Y-446239D01*
X2172585Y-444801D01*
X2340064Y-365589D01*
X2341052Y-365138D01*
X2515976Y-287902D01*
X2519195Y-286616D01*
X2694169Y-224010D01*
X2694754Y-223807D01*
X2875689Y-163164D01*
X2879279Y-162114D01*
X3060626Y-116689D01*
X3245656Y-73170D01*
X3249626Y-72410D01*
X3436651Y-44667D01*
X3622539Y-18737D01*
X3626851Y-18331D01*
X3826958Y-8500D01*
X3998875Y-551D01*
X4001138Y-500D01*
X145998862Y-500D01*
X146001124Y-551D01*
G37*
%TD.AperFunction*%
%TD*%
M02*
